<svg width="86" height="54" viewBox="0 0 86 54" fill="none" xmlns="http://www.w3.org/2000/svg">
<rect width="86" height="54" rx="7" fill="#00A6E2"/>
<path d="M45.5909 41.1818L45.6591 39.3068L44.0739 40.3125L43.6648 39.5966L45.3352 38.7273L43.6648 37.858L44.0739 37.142L45.6591 38.1477L45.5909 36.2727H46.4091L46.3409 38.1477L47.9261 37.142L48.3352 37.858L46.6648 38.7273L48.3352 39.5966L47.9261 40.3125L46.3409 39.3068L46.4091 41.1818H45.5909ZM52.75 45.1193C52.108 45.1193 51.5611 44.9446 51.1094 44.5952C50.6577 44.2429 50.3125 43.733 50.0739 43.0653C49.8352 42.3949 49.7159 41.5852 49.7159 40.6364C49.7159 39.6932 49.8352 38.8878 50.0739 38.2202C50.3153 37.5497 50.6619 37.0384 51.1136 36.6861C51.5682 36.331 52.1136 36.1534 52.75 36.1534C53.3864 36.1534 53.9304 36.331 54.3821 36.6861C54.8366 37.0384 55.1832 37.5497 55.4219 38.2202C55.6634 38.8878 55.7841 39.6932 55.7841 40.6364C55.7841 41.5852 55.6648 42.3949 55.4261 43.0653C55.1875 43.733 54.8423 44.2429 54.3906 44.5952C53.9389 44.9446 53.392 45.1193 52.75 45.1193ZM52.75 44.1818C53.3864 44.1818 53.8807 43.875 54.233 43.2614C54.5852 42.6477 54.7614 41.7727 54.7614 40.6364C54.7614 39.8807 54.6804 39.2372 54.5185 38.706C54.3594 38.1747 54.1293 37.7699 53.8281 37.4915C53.5298 37.2131 53.1705 37.0739 52.75 37.0739C52.1193 37.0739 51.6264 37.3849 51.2713 38.0071C50.9162 38.6264 50.7386 39.5028 50.7386 40.6364C50.7386 41.392 50.8182 42.0341 50.9773 42.5625C51.1364 43.0909 51.3651 43.4929 51.6634 43.7685C51.9645 44.044 52.3267 44.1818 52.75 44.1818ZM60.25 45.1193C59.608 45.1193 59.0611 44.9446 58.6094 44.5952C58.1577 44.2429 57.8125 43.733 57.5739 43.0653C57.3352 42.3949 57.2159 41.5852 57.2159 40.6364C57.2159 39.6932 57.3352 38.8878 57.5739 38.2202C57.8153 37.5497 58.1619 37.0384 58.6136 36.6861C59.0682 36.331 59.6136 36.1534 60.25 36.1534C60.8864 36.1534 61.4304 36.331 61.8821 36.6861C62.3366 37.0384 62.6832 37.5497 62.9219 38.2202C63.1634 38.8878 63.2841 39.6932 63.2841 40.6364C63.2841 41.5852 63.1648 42.3949 62.9261 43.0653C62.6875 43.733 62.3423 44.2429 61.8906 44.5952C61.4389 44.9446 60.892 45.1193 60.25 45.1193ZM60.25 44.1818C60.8864 44.1818 61.3807 43.875 61.733 43.2614C62.0852 42.6477 62.2614 41.7727 62.2614 40.6364C62.2614 39.8807 62.1804 39.2372 62.0185 38.706C61.8594 38.1747 61.6293 37.7699 61.3281 37.4915C61.0298 37.2131 60.6705 37.0739 60.25 37.0739C59.6193 37.0739 59.1264 37.3849 58.7713 38.0071C58.4162 38.6264 58.2386 39.5028 58.2386 40.6364C58.2386 41.392 58.3182 42.0341 58.4773 42.5625C58.6364 43.0909 58.8651 43.4929 59.1634 43.7685C59.4645 44.044 59.8267 44.1818 60.25 44.1818ZM67.75 45.1193C67.108 45.1193 66.5611 44.9446 66.1094 44.5952C65.6577 44.2429 65.3125 43.733 65.0739 43.0653C64.8352 42.3949 64.7159 41.5852 64.7159 40.6364C64.7159 39.6932 64.8352 38.8878 65.0739 38.2202C65.3153 37.5497 65.6619 37.0384 66.1136 36.6861C66.5682 36.331 67.1136 36.1534 67.75 36.1534C68.3864 36.1534 68.9304 36.331 69.3821 36.6861C69.8366 37.0384 70.1832 37.5497 70.4219 38.2202C70.6634 38.8878 70.7841 39.6932 70.7841 40.6364C70.7841 41.5852 70.6648 42.3949 70.4261 43.0653C70.1875 43.733 69.8423 44.2429 69.3906 44.5952C68.9389 44.9446 68.392 45.1193 67.75 45.1193ZM67.75 44.1818C68.3864 44.1818 68.8807 43.875 69.233 43.2614C69.5852 42.6477 69.7614 41.7727 69.7614 40.6364C69.7614 39.8807 69.6804 39.2372 69.5185 38.706C69.3594 38.1747 69.1293 37.7699 68.8281 37.4915C68.5298 37.2131 68.1705 37.0739 67.75 37.0739C67.1193 37.0739 66.6264 37.3849 66.2713 38.0071C65.9162 38.6264 65.7386 39.5028 65.7386 40.6364C65.7386 41.392 65.8182 42.0341 65.9773 42.5625C66.1364 43.0909 66.3651 43.4929 66.6634 43.7685C66.9645 44.044 67.3267 44.1818 67.75 44.1818ZM75.25 45.1193C74.608 45.1193 74.0611 44.9446 73.6094 44.5952C73.1577 44.2429 72.8125 43.733 72.5739 43.0653C72.3352 42.3949 72.2159 41.5852 72.2159 40.6364C72.2159 39.6932 72.3352 38.8878 72.5739 38.2202C72.8153 37.5497 73.1619 37.0384 73.6136 36.6861C74.0682 36.331 74.6136 36.1534 75.25 36.1534C75.8864 36.1534 76.4304 36.331 76.8821 36.6861C77.3366 37.0384 77.6832 37.5497 77.9219 38.2202C78.1634 38.8878 78.2841 39.6932 78.2841 40.6364C78.2841 41.5852 78.1648 42.3949 77.9261 43.0653C77.6875 43.733 77.3423 44.2429 76.8906 44.5952C76.4389 44.9446 75.892 45.1193 75.25 45.1193ZM75.25 44.1818C75.8864 44.1818 76.3807 43.875 76.733 43.2614C77.0852 42.6477 77.2614 41.7727 77.2614 40.6364C77.2614 39.8807 77.1804 39.2372 77.0185 38.706C76.8594 38.1747 76.6293 37.7699 76.3281 37.4915C76.0298 37.2131 75.6705 37.0739 75.25 37.0739C74.6193 37.0739 74.1264 37.3849 73.7713 38.0071C73.4162 38.6264 73.2386 39.5028 73.2386 40.6364C73.2386 41.392 73.3182 42.0341 73.4773 42.5625C73.6364 43.0909 73.8651 43.4929 74.1634 43.7685C74.4645 44.044 74.8267 44.1818 75.25 44.1818Z" fill="white"/>
</svg>
