<svg width="35" height="35" viewBox="0 0 35 35" fill="none" xmlns="http://www.w3.org/2000/svg">
<g clip-path="url(#clip0_2134_42745)">
<path d="M17.5 0.000244141C7.84971 0.000244141 0 7.85057 0 17.5003C0 27.15 7.84971 34.9997 17.5 34.9997C27.1497 34.9997 34.9994 27.15 34.9999 17.5003C35 7.85057 27.1503 0.000244141 17.5 0.000244141ZM17.5 32.7604C9.08548 32.7604 2.23982 25.9148 2.23982 17.5003C2.23982 9.0858 9.08548 2.24007 17.5 2.24007C25.9144 2.24007 32.7601 9.08573 32.7601 17.5002C32.7601 25.9147 25.9145 32.7604 17.5 32.7604Z" fill="#00A6E2"/>
<path d="M18.9014 8.69934H14.1014C13.4826 8.69934 12.9815 9.20047 12.9815 9.81925V16.9434H11.5765C10.9577 16.9434 10.4565 17.4445 10.4565 18.0633C10.4565 18.6821 10.9577 19.1838 11.5765 19.1838H12.9815V20.7272H11.5765C10.9577 20.7272 10.4565 21.229 10.4565 21.8478C10.4565 22.4665 10.9577 22.9683 11.5765 22.9683H12.9815V25.1815C12.9815 25.8002 13.4826 26.302 14.1014 26.302C14.7202 26.302 15.2213 25.7997 15.2213 25.1815V22.9684H21.3615C21.9797 22.9684 22.4814 22.4667 22.4814 21.8478C22.4814 21.229 21.9802 20.7273 21.3615 20.7273H15.2213V19.1839H18.902C20.773 19.1839 22.3509 18.658 23.466 17.663C24.5052 16.736 25.0773 15.4639 25.0773 14.0812C25.0773 11.4724 22.9121 8.69934 18.9014 8.69934ZM21.9736 15.9915C21.2759 16.6146 20.2136 16.9434 18.9014 16.9434H15.2213V10.9386H18.9014C21.4846 10.9386 22.8368 12.519 22.8368 14.0806C22.8369 14.8158 22.5305 15.4947 21.9736 15.9915Z" fill="#00A6E2"/>
</g>
<defs>
<clipPath id="clip0_2134_42745">
<rect width="35" height="35" fill="white"/>
</clipPath>
</defs>
</svg>
