<svg width="16" height="16" viewBox="0 0 16 16" fill="none" xmlns="http://www.w3.org/2000/svg">
<path d="M5.50005 13.5C5.43438 13.5001 5.36935 13.4871 5.30868 13.462C5.24802 13.4369 5.19292 13.4 5.14655 13.3535C5.10009 13.3071 5.06323 13.252 5.03809 13.1913C5.01294 13.1307 5 13.0656 5 13C5 12.9343 5.01294 12.8693 5.03809 12.8086C5.06323 12.748 5.10009 12.6929 5.14655 12.6465L9.79305 7.99998L5.14655 3.35348C4.95117 3.15811 4.95117 2.84173 5.14655 2.64648C5.34192 2.45123 5.6583 2.45111 5.85355 2.64648L10.8535 7.64648C10.9 7.69289 10.9369 7.74799 10.962 7.80865C10.9872 7.8693 11.0001 7.93432 11.0001 7.99998C11.0001 8.06565 10.9872 8.13066 10.962 8.19132C10.9369 8.25198 10.9 8.30708 10.8535 8.35348L5.85355 13.3535C5.80718 13.4 5.75208 13.4369 5.69142 13.462C5.63075 13.4871 5.56572 13.5001 5.50005 13.5Z" fill="currentColor"/>
</svg>
