<svg width="16" height="16" viewBox="0 0 16 16" fill="none" xmlns="http://www.w3.org/2000/svg">
<path d="M4.30669 5.53977C5.21244 5.53977 5.94669 4.80551 5.94669 3.89977C5.94669 2.99402 5.21244 2.25977 4.30669 2.25977C3.40094 2.25977 2.66669 2.99402 2.66669 3.89977C2.66669 4.80551 3.40094 5.53977 4.30669 5.53977Z" stroke="currentColor" stroke-width="1.5" stroke-miterlimit="10" stroke-linecap="round" stroke-linejoin="round"/>
<path d="M11.6933 13.74C12.5991 13.74 13.3333 13.0057 13.3333 12.1C13.3333 11.1942 12.5991 10.46 11.6933 10.46C10.7876 10.46 10.0533 11.1942 10.0533 12.1C10.0533 13.0057 10.7876 13.74 11.6933 13.74Z" stroke="currentColor" stroke-width="1.5" stroke-miterlimit="10" stroke-linecap="round" stroke-linejoin="round"/>
<path d="M4.30669 13.74C5.21244 13.74 5.94669 13.0057 5.94669 12.1C5.94669 11.1942 5.21244 10.46 4.30669 10.46C3.40094 10.46 2.66669 11.1942 2.66669 12.1C2.66669 13.0057 3.40094 13.74 4.30669 13.74Z" stroke="currentColor" stroke-width="1.5" stroke-miterlimit="10" stroke-linecap="round" stroke-linejoin="round"/>
</svg>
