<svg width="16" height="16" viewBox="0 0 16 16" fill="none" xmlns="http://www.w3.org/2000/svg">
<path d="M10.8566 5.97714L8.80514 8L10.8566 10.0229C10.9137 10.0763 10.9592 10.1409 10.9903 10.2127C11.0214 10.2844 11.0375 10.3618 11.0375 10.44C11.0375 10.5182 11.0214 10.5956 10.9903 10.6673C10.9592 10.7391 10.9137 10.8037 10.8566 10.8571C10.8032 10.9101 10.7398 10.952 10.6702 10.9804C10.6006 11.0089 10.5261 11.0233 10.4509 11.0229C10.3009 11.0222 10.1573 10.9627 10.0509 10.8571L7.99942 8.80571L5.97657 10.8571C5.87013 10.9627 5.72647 11.0222 5.57657 11.0229C5.50136 11.0233 5.42681 11.0089 5.35719 10.9804C5.28757 10.952 5.22425 10.9101 5.17085 10.8571C5.06442 10.7501 5.00468 10.6052 5.00468 10.4543C5.00468 10.3033 5.06442 10.1585 5.17085 10.0514L7.19371 8L5.17085 5.97714C5.07724 5.86783 5.02832 5.72721 5.03387 5.5834C5.03943 5.43958 5.09905 5.30316 5.20082 5.20139C5.30258 5.09963 5.43901 5.04001 5.58282 5.03445C5.72664 5.0289 5.86725 5.07782 5.97657 5.17143L7.99942 7.19429L10.0223 5.17143C10.0752 5.11665 10.1384 5.07283 10.2082 5.04246C10.278 5.0121 10.3532 4.99579 10.4293 4.99446C10.5055 4.99313 10.5811 5.00682 10.652 5.03473C10.7228 5.06264 10.7875 5.10424 10.8423 5.15714C10.8971 5.21005 10.9409 5.27322 10.9712 5.34306C11.0016 5.4129 11.0179 5.48804 11.0193 5.56419C11.0206 5.64033 11.0069 5.71599 10.979 5.78684C10.9511 5.8577 10.9095 5.92236 10.8566 5.97714ZM13.6566 13.6571C12.5377 14.7759 11.1122 15.5377 9.56042 15.8463C8.0086 16.155 6.40011 15.9965 4.93834 15.391C3.47658 14.7854 2.2272 13.76 1.34819 12.4445C0.469171 11.1289 0 9.58222 0 8C0 6.41779 0.469171 4.8711 1.34819 3.55553C2.2272 2.23995 3.47658 1.21457 4.93834 0.609045C6.40011 0.00352037 8.0086 -0.154954 9.56042 0.153662C11.1122 0.462277 12.5377 1.22412 13.6566 2.34286C14.3995 3.08574 14.9889 3.96769 15.391 4.93835C15.793 5.909 16 6.94936 16 8C16 9.05064 15.793 10.091 15.391 11.0617C14.9889 12.0323 14.3995 12.9143 13.6566 13.6571ZM12.8509 3.14857C11.8909 2.19197 10.6691 1.54125 9.33955 1.2786C8.01005 1.01594 6.63252 1.15312 5.38093 1.67282C4.12934 2.19252 3.05981 3.07143 2.30739 4.19857C1.55497 5.3257 1.1534 6.65051 1.1534 8.00571C1.1534 9.36092 1.55497 10.6857 2.30739 11.8129C3.05981 12.94 4.12934 13.8189 5.38093 14.3386C6.63252 14.8583 8.01005 14.9955 9.33955 14.7328C10.6691 14.4702 11.8909 13.8195 12.8509 12.8629C13.4901 12.2258 13.9973 11.4688 14.3434 10.6353C14.6895 9.80183 14.8677 8.90821 14.8677 8.00571C14.8677 7.10322 14.6895 6.2096 14.3434 5.3761C13.9973 4.5426 13.4901 3.78563 12.8509 3.14857Z" fill="currentColor"/>
</svg>
