<svg width="23" height="18" viewBox="0 0 23 18" fill="none" xmlns="http://www.w3.org/2000/svg">
<path d="M7.15 12.35L18.95 0.549999C19.3167 0.183333 19.7833 0 20.35 0C20.9167 0 21.3833 0.183333 21.75 0.549999C22.1167 0.916666 22.3 1.38333 22.3 1.95C22.3 2.51667 22.1167 2.98333 21.75 3.35L8.55 16.55C8.15 16.95 7.68333 17.15 7.15 17.15C6.61667 17.15 6.15 16.95 5.75 16.55L0.549999 11.35C0.183333 10.9833 0 10.5167 0 9.95C0 9.38333 0.183333 8.91667 0.549999 8.55C0.916666 8.18333 1.38333 8 1.95 8C2.51667 8 2.98333 8.18333 3.35 8.55L7.15 12.35Z" fill="currentColor"/>
</svg>
