<svg width="8" height="8" viewBox="0 0 8 8" fill="none" xmlns="http://www.w3.org/2000/svg">
<path d="M4.00002 4.33366C4.18412 4.33366 4.33335 4.18442 4.33335 4.00033C4.33335 3.81623 4.18412 3.66699 4.00002 3.66699C3.81593 3.66699 3.66669 3.81623 3.66669 4.00033C3.66669 4.18442 3.81593 4.33366 4.00002 4.33366Z" fill="currentColor" stroke="currentColor" stroke-linecap="round" stroke-linejoin="round"/>
<path d="M4.00002 1.99967C4.18412 1.99967 4.33335 1.85044 4.33335 1.66634C4.33335 1.48225 4.18412 1.33301 4.00002 1.33301C3.81593 1.33301 3.66669 1.48225 3.66669 1.66634C3.66669 1.85044 3.81593 1.99967 4.00002 1.99967Z" fill="currentColor" stroke="currentColor" stroke-linecap="round" stroke-linejoin="round"/>
<path d="M4.00002 6.66667C4.18412 6.66667 4.33335 6.51743 4.33335 6.33333C4.33335 6.14924 4.18412 6 4.00002 6C3.81593 6 3.66669 6.14924 3.66669 6.33333C3.66669 6.51743 3.81593 6.66667 4.00002 6.66667Z" fill="currentColor" stroke="currentColor" stroke-linecap="round" stroke-linejoin="round"/>
</svg>
