<svg width="16" height="16" viewBox="0 0 16 16" fill="none" xmlns="http://www.w3.org/2000/svg">
<path d="M7.99999 13C2.76586 13 0.170861 8.437 0.0629859 8.24288C0.0216782 8.16857 0 8.08495 0 7.99994C0 7.91492 0.0216782 7.83131 0.0629859 7.757C0.170861 7.563 2.76586 3 7.99999 3C13.2341 3 15.8291 7.563 15.937 7.75712C15.9783 7.83143 16 7.91505 16 8.00006C16 8.08508 15.9783 8.16869 15.937 8.243C15.8291 8.437 13.2341 13 7.99999 13ZM1.08836 7.99925C1.68311 8.90062 4.01824 12 7.99999 12C11.9944 12 14.3191 8.90312 14.9116 8.00075C14.3169 7.09937 11.9817 4 7.99999 4C4.00561 4 1.68086 7.09687 1.08836 7.99925ZM7.99999 11C6.34574 11 4.99999 9.65425 4.99999 8C4.99999 6.34575 6.34574 5 7.99999 5C9.65424 5 11 6.34575 11 8C11 9.65425 9.65424 11 7.99999 11ZM7.99999 6C6.89724 6 5.99999 6.89725 5.99999 8C5.99999 9.10275 6.89724 10 7.99999 10C9.10274 10 9.99999 9.10275 9.99999 8C9.99999 6.89725 9.10274 6 7.99999 6Z" fill="currentColor"/>
</svg>
