<svg width="30" height="30" viewBox="0 0 30 30" fill="none" xmlns="http://www.w3.org/2000/svg">
<path fill-rule="evenodd" clip-rule="evenodd" d="M14.75 28.75C22.482 28.75 28.75 22.482 28.75 14.75C28.75 7.01801 22.482 0.75 14.75 0.75C7.01801 0.75 0.75 7.01801 0.75 14.75C0.75 22.482 7.01801 28.75 14.75 28.75Z" stroke="currentColor" stroke-width="1.5" stroke-linecap="round" stroke-linejoin="round"/>
<path d="M9.5 10.75C9.5 10.3358 9.16421 10 8.75 10C8.33579 10 8 10.3358 8 10.75H8.75H9.5ZM8 12.75C8 13.1642 8.33579 13.5 8.75 13.5C9.16421 13.5 9.5 13.1642 9.5 12.75H8.75H8ZM21.5 10.75C21.5 10.3358 21.1642 10 20.75 10C20.3358 10 20 10.3358 20 10.75H20.75H21.5ZM20 12.75C20 13.1642 20.3358 13.5 20.75 13.5C21.1642 13.5 21.5 13.1642 21.5 12.75H20.75H20ZM20.7706 19.4997C21.1846 19.4883 21.5111 19.1435 21.4997 18.7294C21.4883 18.3154 21.1435 17.9889 20.7294 18.0003L20.75 18.75L20.7706 19.4997ZM15.75 19.75L15.9503 20.4728C15.9737 20.4663 15.9967 20.4587 16.0194 20.45L15.75 19.75ZM10.2065 22.2331C9.92108 22.5333 9.93299 23.008 10.2331 23.2935C10.5333 23.5789 11.008 23.567 11.2935 23.2669L10.75 22.75L10.2065 22.2331ZM8.75 10.75H8V12.75H8.75H9.5V10.75H8.75ZM20.75 10.75H20V12.75H20.75H21.5V10.75H20.75ZM20.75 18.75L20.7294 18.0003C18.9329 18.0496 17.1579 18.4046 15.4806 19.05L15.75 19.75L16.0194 20.45C17.5376 19.8657 19.1444 19.5444 20.7706 19.4997L20.75 18.75ZM15.75 19.75L15.5497 19.0272C13.5112 19.5922 11.6644 20.7003 10.2065 22.2331L10.75 22.75L11.2935 23.2669C12.564 21.9309 14.1736 20.9652 15.9503 20.4728L15.75 19.75Z" fill="currentColor"/>
</svg>
