<svg width="24" height="24" viewBox="0 0 24 24" fill="none" xmlns="http://www.w3.org/2000/svg">
<path d="M11.9858 13.4718C11.8485 13.6091 11.8485 13.8317 11.9858 13.9689L13.5915 15.5746C13.6602 15.6433 13.7502 15.6776 13.8401 15.6776C13.9301 15.6776 14.0201 15.6433 14.0887 15.5746C14.226 15.4373 14.226 15.2147 14.0887 15.0775L12.4829 13.4718C12.3457 13.3345 12.123 13.3345 11.9858 13.4718Z" fill="currentColor" stroke="currentColor" stroke-width="0.3"/>
<path d="M24 7.59813C24 5.96561 23.3643 4.43083 22.2099 3.27644C21.0555 2.12205 19.5207 1.48633 17.8882 1.48633C16.733 1.48633 15.6059 1.81197 14.6287 2.42805C14.4645 2.53159 14.4152 2.74867 14.5188 2.91292C14.6223 3.07712 14.8394 3.12644 15.0037 3.02284C15.8685 2.47769 16.866 2.1895 17.8882 2.1895C19.3329 2.1895 20.6911 2.75209 21.7127 3.77364C22.7342 4.79519 23.2969 6.15339 23.2969 7.59813C23.2969 9.04286 22.7343 10.4011 21.7127 11.4226L20.1462 12.9892L17.1763 10.0193C16.9267 9.78161 16.209 9.04572 15.9573 8.83942C14.7813 7.87581 12.9167 7.99956 11.7993 9.11697L10.9876 9.92866C10.6114 10.3049 10.1111 10.5122 9.57895 10.5122C9.04683 10.5122 8.54653 10.305 8.17027 9.92866C8.09817 9.85656 8.09817 9.73923 8.17027 9.66714L13.8096 4.0277C13.9469 3.89041 13.9469 3.6678 13.8096 3.53055C13.6723 3.39325 13.4497 3.39325 13.3125 3.53055L12 4.843L10.4334 3.27644C9.27909 2.12209 7.74431 1.48633 6.1118 1.48633C5.77106 1.48633 5.42812 1.51511 5.09245 1.57192C4.90102 1.60431 4.77206 1.78577 4.80445 1.9772C4.83684 2.16864 5.01816 2.2975 5.20973 2.2652C5.50678 2.21495 5.81025 2.18945 6.1118 2.18945C7.55648 2.18945 8.91473 2.75205 9.93628 3.77359L11.5028 5.34016L7.67302 9.16998C7.32675 9.5162 7.32675 10.0796 7.67302 10.4259C8.18208 10.9349 8.85895 11.2153 9.57891 11.2153C10.2989 11.2153 10.9757 10.9349 11.4848 10.4259L12.2965 9.61417C13.1641 8.74656 14.5508 8.65248 15.5248 9.39405C15.6188 9.46567 16.5716 10.4148 16.6791 10.5165L20.2996 14.137C20.3013 14.1386 20.3029 14.1403 20.3046 14.142C20.5102 14.3476 20.6234 14.6209 20.6234 14.9117C20.6234 15.2025 20.5102 15.4758 20.3046 15.6814C19.8802 16.1058 19.1896 16.1059 18.7651 15.6814L14.5192 11.4355C14.3819 11.2982 14.1593 11.2982 14.022 11.4355C13.8847 11.5728 13.8847 11.7954 14.022 11.9327L18.7887 16.6992C19.2131 17.1236 19.2131 17.8142 18.7887 18.2387C18.5831 18.4443 18.3097 18.5575 18.0189 18.5575C17.7282 18.5575 17.4548 18.4443 17.2494 18.2389L15.2476 16.2364C15.1103 16.0991 14.8877 16.0991 14.7504 16.2364C14.6131 16.3737 14.6131 16.5963 14.7504 16.7336L16.3691 18.3523L16.3693 18.3525C16.7937 18.7769 16.7937 19.4675 16.3693 19.8919C15.9449 20.3163 15.2543 20.3163 14.8298 19.8919L13.2669 18.3289C12.92 17.982 12.465 17.8075 12.0092 17.8052C12.2356 17.1728 12.0963 16.4376 11.5906 15.9319C11.2897 15.631 10.9073 15.46 10.5138 15.4184C10.9722 14.7233 10.8958 13.7766 10.2846 13.1653C9.64252 12.5233 8.63072 12.4718 7.92881 13.0099C7.88137 12.6133 7.70428 12.2462 7.41741 11.9593C6.71888 11.2607 5.58216 11.2607 4.88358 11.9593L3.85378 12.9891L2.28722 11.4225C1.26572 10.4011 0.703125 9.04281 0.703125 7.59813C0.703125 6.15344 1.26572 4.79519 2.28727 3.77364C2.71341 3.3475 3.20423 2.99781 3.74602 2.73433C3.92062 2.64939 3.99333 2.43902 3.90839 2.26441C3.82345 2.0898 3.61303 2.01709 3.43847 2.10203C2.82619 2.39983 2.27161 2.79494 1.79006 3.27648C0.635719 4.43078 0 5.96561 0 7.59813C0 9.23064 0.635719 10.7654 1.79011 11.9198L3.36698 13.4966C2.82155 14.1989 2.87072 15.2166 3.51544 15.8614C3.83302 16.179 4.24116 16.3517 4.6575 16.3805C4.31213 17.0542 4.42083 17.9024 4.98422 18.4658C5.33353 18.8151 5.79225 18.9897 6.25111 18.9897C6.33937 18.9897 6.42759 18.9831 6.51511 18.9702C6.50231 19.0572 6.49575 19.1457 6.49575 19.2352C6.49575 19.7138 6.68212 20.1637 7.02052 20.5021C7.35891 20.8405 7.80886 21.0269 8.28741 21.0269C8.59097 21.0269 8.88291 20.9516 9.14227 20.8105C9.1755 21.2353 9.35639 21.6303 9.66098 21.9349C9.99938 22.2733 10.4493 22.4597 10.9279 22.4597C11.3164 22.4597 11.686 22.3368 11.9924 22.1096C12.3116 22.3713 12.7079 22.5138 13.1261 22.5138C13.6047 22.5138 14.0546 22.3274 14.393 21.989C14.7281 21.6539 14.902 21.218 14.9156 20.7781C15.1341 20.868 15.3668 20.9131 15.5996 20.9131C16.0584 20.9131 16.5172 20.7385 16.8665 20.3892C17.2095 20.0462 17.3836 19.5977 17.3898 19.1471C17.5883 19.2215 17.8005 19.2607 18.0189 19.2607C18.4974 19.2607 18.9474 19.0743 19.2858 18.7359C19.8357 18.186 19.9524 17.3648 19.6366 16.6994C20.0609 16.6755 20.4783 16.5021 20.8017 16.1786C21.1401 15.8402 21.3265 15.3902 21.3265 14.9117C21.3265 14.4343 21.1411 13.9855 20.8043 13.6474L20.6465 13.4831L22.2098 11.9198C23.3643 10.7654 24 9.23064 24 7.59813ZM4.01264 15.3642C3.58823 14.9397 3.58823 14.2492 4.01264 13.8247L5.38083 12.4565C5.80528 12.0321 6.49584 12.0321 6.9203 12.4565C7.3447 12.8809 7.3447 13.5715 6.92034 13.9959L5.55188 15.3644C5.12742 15.7886 4.437 15.7885 4.01264 15.3642ZM7.01639 17.9727C6.59161 18.3927 5.90442 18.3916 5.48142 17.9687C5.05702 17.5442 5.05702 16.8536 5.48142 16.4292L8.24803 13.6626C8.67248 13.2382 9.36305 13.2382 9.78745 13.6626C10.2119 14.087 10.2119 14.7776 9.78745 15.202L7.02056 17.9683C7.01911 17.9697 7.0178 17.9712 7.01639 17.9727ZM9.05714 20.0049C8.85155 20.2105 8.57817 20.3237 8.28741 20.3237C7.99664 20.3237 7.72331 20.2105 7.51772 20.0049C7.31213 19.7993 7.19888 19.5259 7.19888 19.2352C7.19888 18.9465 7.31072 18.6751 7.51359 18.47C7.51505 18.4686 7.51659 18.4673 7.51805 18.4658L9.56091 16.423C9.77231 16.2151 10.0479 16.1109 10.3238 16.1109C10.6025 16.1109 10.8813 16.217 11.0934 16.4292C11.5178 16.8536 11.5178 17.5442 11.0934 17.9687L9.05714 20.0049ZM11.6976 21.4377C11.492 21.6433 11.2186 21.7566 10.9279 21.7566C10.6371 21.7566 10.3638 21.6433 10.1582 21.4377C9.95259 21.2321 9.83934 20.9588 9.83934 20.668C9.83934 20.3773 9.95259 20.1039 10.1582 19.8983L11.2303 18.8262C11.4425 18.614 11.7213 18.5079 12 18.5079C12.2788 18.5079 12.5576 18.614 12.7698 18.8262C13.1942 19.2506 13.1942 19.9412 12.7698 20.3656L11.6976 21.4377ZM13.8959 21.4917C13.5195 21.868 12.9344 21.91 12.5107 21.619L13.2669 20.8628C13.5563 20.5734 13.7254 20.2089 13.775 19.8315L13.8959 19.9523C14.3203 20.3768 14.3203 21.0673 13.8959 21.4917Z" fill="currentColor" stroke="currentColor" stroke-width="0.3"/>
</svg>
