<svg width="16" height="16" viewBox="0 0 16 16" fill="none" xmlns="http://www.w3.org/2000/svg">
<path d="M14.7076 2.27271C13.8698 1.43489 12.7606 0.976973 11.5768 0.976973C10.393 0.976973 9.28047 1.43828 8.44265 2.2761L8.00509 2.71367L7.56074 2.26932C6.72292 1.4315 5.60696 0.966797 4.42316 0.966797C3.24275 0.966797 2.13018 1.42811 1.29575 2.26253C0.457936 3.10035 -0.00337341 4.21292 1.85735e-05 5.39672C1.85735e-05 6.58052 0.46472 7.6897 1.30254 8.52752L7.67267 14.8977C7.76087 14.9858 7.87959 15.0333 7.99491 15.0333C8.11024 15.0333 8.22896 14.9892 8.31715 14.901L14.7009 8.54109C15.5387 7.70327 16 6.5907 16 5.4069C16.0034 4.2231 15.5455 3.11053 14.7076 2.27271ZM14.0564 7.89322L7.99491 13.9309L1.94701 7.88304C1.28219 7.21821 0.915853 6.3363 0.915853 5.39672C0.915853 4.45714 1.27879 3.57523 1.94362 2.91379C2.60506 2.25236 3.48697 1.88602 4.42316 1.88602C5.36274 1.88602 6.24804 2.25236 6.91287 2.91718L7.67946 3.68377C7.85923 3.86355 8.14755 3.86355 8.32733 3.68377L9.08713 2.92397C9.75196 2.25914 10.6373 1.89281 11.5735 1.89281C12.5096 1.89281 13.3916 2.25914 14.0564 2.92058C14.7212 3.5854 15.0841 4.46732 15.0841 5.4069C15.0875 6.34648 14.7212 7.22839 14.0564 7.89322Z" fill="currentColor"/>
</svg>
