<svg width="24" height="24" viewBox="0 0 24 24" fill="none" xmlns="http://www.w3.org/2000/svg">
<path d="M13.6034 16.9086C13.358 16.9315 13.1117 16.8761 12.8997 16.7504C12.8233 16.6719 12.7655 16.5772 12.7305 16.4734C12.6956 16.3695 12.6845 16.2591 12.6979 16.1504C12.7037 15.967 12.7256 15.7845 12.7634 15.605C12.8 15.399 12.8473 15.1951 12.9052 14.994L13.5488 12.7795C13.6152 12.5609 13.6591 12.3361 13.6797 12.1086C13.6797 11.8631 13.7125 11.694 13.7125 11.5958C13.7192 11.3799 13.6771 11.1652 13.5893 10.9678C13.5014 10.7704 13.3701 10.5954 13.2052 10.4558C12.7941 10.1403 12.2823 9.98516 11.7652 10.0195C11.3946 10.0251 11.027 10.0857 10.6743 10.1995C10.2888 10.3195 9.88334 10.4631 9.4579 10.6304L9.27246 11.3504C9.3979 11.3068 9.55066 11.2577 9.72518 11.2031C9.89167 11.1538 10.0643 11.1281 10.2379 11.1268C10.4815 11.1004 10.7266 11.1602 10.9306 11.2958C10.9992 11.3777 11.0505 11.4725 11.0814 11.5747C11.1124 11.6769 11.1223 11.7843 11.1106 11.8904C11.11 12.0738 11.0899 12.2567 11.0506 12.4358C11.0124 12.6268 10.9633 12.8286 10.9033 13.0413L10.2543 15.2667C10.2019 15.4736 10.1601 15.6829 10.1288 15.894C10.1033 16.0747 10.0906 16.2569 10.0906 16.4394C10.0893 16.6568 10.1378 16.8715 10.2323 17.0673C10.3269 17.263 10.465 17.4344 10.6361 17.5685C11.0534 17.889 11.5726 18.0478 12.0979 18.0158C12.4677 18.0234 12.8363 17.9699 13.1888 17.8576C13.4979 17.7521 13.9106 17.6012 14.427 17.4049L14.6015 16.7176C14.4617 16.7756 14.3176 16.823 14.1706 16.8594C13.9847 16.9018 13.7938 16.9184 13.6034 16.9086ZM14.2852 6.4086C13.9883 6.13597 13.5972 5.9893 13.1943 5.99952C12.7915 5.99044 12.4008 6.13696 12.1033 6.4086C11.5581 6.87876 11.4972 7.70193 11.9674 8.24723C12.0093 8.29583 12.0547 8.34127 12.1033 8.38316C12.7245 8.93877 13.664 8.93877 14.2851 8.38316C14.8304 7.90837 14.8875 7.08149 14.4127 6.53624C14.3732 6.4908 14.3306 6.44815 14.2852 6.4086Z" fill="currentColor"/>
<path d="M12 0C5.37258 0 0 5.37258 0 12C0 18.6274 5.37258 24 12 24C18.6274 24 24 18.6274 24 12C24 5.37258 18.6274 0 12 0ZM12 22.9091C5.97506 22.9091 1.09092 18.0249 1.09092 12C1.09092 5.97506 5.97506 1.09092 12 1.09092C18.0249 1.09092 22.9091 5.97506 22.9091 12C22.9091 18.0249 18.0249 22.9091 12 22.9091Z" fill="currentColor"/>
</svg>
