<svg width="16" height="16" viewBox="0 0 16 16" fill="none" xmlns="http://www.w3.org/2000/svg">
<path d="M8.4999 0.5C4.84014 0.5 1.71489 3.1415 1.10489 6.75L0.914894 6.4675C0.840634 6.35744 0.725692 6.28138 0.595354 6.25606C0.465016 6.23074 0.329959 6.25824 0.219894 6.3325C0.109829 6.40676 0.0337724 6.5217 0.00845503 6.65204C-0.0168624 6.78238 0.0106336 6.91744 0.0848942 7.0275L1.08489 8.5275C1.1255 8.58926 1.1793 8.64125 1.24242 8.67972C1.30553 8.7182 1.37639 8.7422 1.44989 8.75H1.49989C1.56546 8.74978 1.63034 8.73664 1.69082 8.71133C1.75131 8.68602 1.80621 8.64904 1.85239 8.6025L3.10239 7.3525C3.19165 7.25776 3.24049 7.13198 3.23855 7.00184C3.23661 6.87169 3.18405 6.74742 3.09201 6.65538C2.99998 6.56334 2.8757 6.51078 2.74556 6.50884C2.61541 6.50691 2.48963 6.55574 2.39489 6.645L2.08489 6.9575C2.66064 3.414 5.9999 1.0085 9.54315 1.58425C13.0864 2.16 15.4924 5.499 14.9166 9.0425C14.4054 12.189 11.6876 14.5005 8.4999 14.5C7.50926 14.518 6.52895 14.2964 5.64232 13.8542C4.7557 13.4119 3.98899 12.7621 3.40739 11.96C3.36931 11.9065 3.32106 11.861 3.2654 11.8261C3.20973 11.7913 3.14775 11.7677 3.08298 11.7568C3.01821 11.7459 2.95193 11.7478 2.88791 11.7625C2.8239 11.7772 2.76341 11.8044 2.70989 11.8425C2.65638 11.8806 2.61089 11.9288 2.57603 11.9845C2.54116 12.0402 2.5176 12.1021 2.50669 12.1669C2.49578 12.2317 2.49773 12.298 2.51244 12.362C2.52714 12.426 2.55431 12.4865 2.59239 12.54C3.26591 13.4727 4.15474 14.2288 5.18328 14.7442C6.21182 15.2596 7.34962 15.5188 8.4999 15.5C12.6421 15.5 15.9999 12.1423 15.9999 8C15.9999 3.85775 12.6421 0.5 8.4999 0.5Z" fill="currentColor"/>
</svg>
