<svg width="16" height="16" viewBox="0 0 16 16" fill="none" xmlns="http://www.w3.org/2000/svg">
<path d="M14 3.98698C11.78 3.76698 9.54667 3.65364 7.32 3.65364C6 3.65364 4.68 3.72031 3.36 3.85364L2 3.98698" stroke="currentColor" stroke-linecap="round" stroke-linejoin="round"/>
<path d="M5.66675 3.31333L5.81341 2.44C5.92008 1.80667 6.00008 1.33333 7.12675 1.33333H8.87341C10.0001 1.33333 10.0867 1.83333 10.1867 2.44667L10.3334 3.31333" stroke="currentColor" stroke-linecap="round" stroke-linejoin="round"/>
<path d="M12.5667 6.09375L12.1333 12.8071C12.06 13.8537 12 14.6671 10.14 14.6671H5.86002C4.00002 14.6671 3.94002 13.8537 3.86668 12.8071L3.43335 6.09375" stroke="currentColor" stroke-linecap="round" stroke-linejoin="round"/>
<path d="M6.88672 11H9.10672" stroke="currentColor" stroke-linecap="round" stroke-linejoin="round"/>
<path d="M6.33325 8.33333H9.66659" stroke="currentColor" stroke-linecap="round" stroke-linejoin="round"/>
</svg>
