<svg width="16" height="16" viewBox="0 0 16 16" fill="none" xmlns="http://www.w3.org/2000/svg">
<path d="M14.5999 2.9C14.5999 3.42748 14.4454 3.94341 14.1556 4.38407C13.8657 4.82474 13.453 5.17084 12.9687 5.37964C12.4843 5.58843 11.9493 5.65077 11.4299 5.55896C10.9105 5.46715 10.4293 5.2252 10.0459 4.863L5.30288 7.28C5.43314 7.75117 5.43314 8.24884 5.30288 8.72L10.0459 11.137C10.5056 10.7028 11.1031 10.4438 11.7342 10.405C12.3653 10.3662 12.99 10.5501 13.4994 10.9247C14.0088 11.2993 14.3706 11.8408 14.5216 12.4548C14.6727 13.0688 14.6035 13.7164 14.326 14.2846C14.0486 14.8528 13.5805 15.3056 13.0035 15.564C12.4264 15.8225 11.7769 15.8702 11.1682 15.6989C10.5596 15.5275 10.0304 15.148 9.67284 14.6265C9.31533 14.105 9.15219 13.4745 9.21188 12.845L4.16188 10.27C3.75407 10.5326 3.28303 10.6806 2.79829 10.6982C2.31354 10.7159 1.83299 10.6026 1.40715 10.3703C0.981308 10.1381 0.625902 9.79539 0.378288 9.37828C0.130675 8.96118 0 8.48507 0 8C0 7.51494 0.130675 7.03883 0.378288 6.62172C0.625902 6.20462 0.981308 5.86192 1.40715 5.62966C1.83299 5.39739 2.31354 5.28414 2.79829 5.30179C3.28303 5.31945 3.75407 5.46737 4.16188 5.73L9.21188 3.155C9.17748 2.79137 9.21722 2.42454 9.3287 2.07671C9.44017 1.72888 9.62106 1.40729 9.86041 1.13139C10.0998 0.855491 10.3926 0.631025 10.7212 0.471578C11.0498 0.31213 11.4074 0.221016 11.7722 0.203748C12.1371 0.186481 12.5016 0.24342 12.8439 0.37112C13.1861 0.498819 13.4988 0.694624 13.7631 0.946684C14.0275 1.19874 14.2379 1.50182 14.3818 1.83756C14.5256 2.17331 14.5998 2.53475 14.5999 2.9Z" fill="currentColor"/>
</svg>
