<svg width="36" height="36" viewBox="0 0 36 36" fill="none" xmlns="http://www.w3.org/2000/svg">
<path d="M18 0C14.4399 0 10.9598 1.05568 7.99974 3.03355C5.03966 5.01141 2.73255 7.82263 1.37018 11.1117C0.00779918 14.4008 -0.348661 18.02 0.345873 21.5116C1.04041 25.0033 2.75474 28.2106 5.27209 30.7279C7.78943 33.2453 10.9967 34.9596 14.4884 35.6541C17.98 36.3487 21.5992 35.9922 24.8883 34.6298C28.1774 33.2675 30.9886 30.9604 32.9665 28.0003C34.9443 25.0402 36 21.5601 36 18C36 13.2261 34.1036 8.64773 30.7279 5.27208C27.3523 1.89642 22.7739 0 18 0ZM28.3746 25.0445C27.8509 25.1182 25.29 25.0445 25.1571 25.0445C24.495 25.0532 23.8563 24.8004 23.3796 24.3409C22.8396 23.8193 22.3568 23.2466 21.8291 22.7045C21.6736 22.5382 21.5046 22.3849 21.3239 22.2464C20.9025 21.9232 20.4852 21.9948 20.2868 22.4939C20.1319 23.031 20.0238 23.5806 19.9636 24.1364C19.9289 24.6395 19.6098 24.9545 19.0452 24.9893C18.6955 25.0077 18.3457 25.0159 18 25.0057C16.7401 24.9988 15.4998 24.6924 14.3816 24.1118C13.1713 23.4381 12.1168 22.5167 11.2868 21.4077C9.92251 19.665 8.83228 17.7505 7.85864 15.7766C7.80751 15.6764 6.80933 13.5532 6.78478 13.453C6.69478 13.1195 6.78478 12.7984 7.06092 12.6859C7.23683 12.6184 10.5259 12.6859 10.5811 12.6859C10.8258 12.6842 11.0647 12.7604 11.2633 12.9035C11.4618 13.0465 11.6098 13.249 11.6857 13.4816C12.2942 15.0382 13.1266 16.4976 14.1566 17.8139C14.3009 17.9892 14.4697 18.1428 14.6577 18.27C14.9257 18.4541 15.1793 18.3907 15.2898 18.0798C15.4208 17.6513 15.4978 17.2081 15.5189 16.7605C15.5373 15.8727 15.5189 15.2898 15.4698 14.402C15.4371 13.8334 15.2366 13.3364 14.398 13.1748C14.1402 13.1277 14.1177 12.915 14.2834 12.7023C14.6291 12.2625 15.1016 12.1909 15.6314 12.1643C16.4209 12.1193 17.2105 12.15 18 12.1643H18.1718C18.5155 12.1631 18.8583 12.198 19.1946 12.2686C19.3935 12.3093 19.5741 12.413 19.7093 12.5645C19.8446 12.716 19.9273 12.907 19.9452 13.1093C19.9858 13.3333 20.003 13.5609 19.9964 13.7884C19.9759 14.7559 19.9289 15.7255 19.9186 16.693C19.9091 17.0768 19.9441 17.4605 20.023 17.8364C20.1355 18.3518 20.4893 18.4807 20.8411 18.1084C21.2971 17.6282 21.7149 17.1133 22.0909 16.5682C22.7573 15.5747 23.3064 14.5073 23.7273 13.3875C23.9564 12.8127 24.1364 12.6859 24.75 12.6859H28.2396C28.447 12.6823 28.6539 12.7098 28.8532 12.7677C28.9237 12.7863 28.9897 12.8192 29.0469 12.8644C29.1041 12.9096 29.1514 12.9661 29.1858 13.0304C29.2202 13.0948 29.2409 13.1655 29.2467 13.2382C29.2524 13.3109 29.2431 13.384 29.2193 13.453C29.0475 14.218 28.6343 14.8705 28.1966 15.4984C27.4868 16.5027 26.7382 17.4825 26.0121 18.4745C25.9247 18.6028 25.8448 18.736 25.7727 18.8734C25.4986 19.3684 25.5191 19.6445 25.9159 20.0536C26.55 20.7061 27.2271 21.3157 27.8386 21.9866C28.2872 22.4747 28.6924 23.001 29.0496 23.5595C29.4852 24.2632 29.2091 24.9259 28.3746 25.0445Z" fill="currentColor"/>
</svg>
