<svg width="16" height="16" viewBox="0 0 16 16" fill="none" xmlns="http://www.w3.org/2000/svg">
<path d="M15.1955 5.26812H10.2814L8.76172 0.583359C8.66012 0.263008 8.35555 0.0234375 8 0.0234375C7.6443 0.0234375 7.33973 0.263008 7.23812 0.583437L5.71852 5.2682H0.804609C0.363164 5.26812 0 5.63187 0 6.07867C0 6.34492 0.132734 6.58387 0.336016 6.72914V6.72515L4.30859 9.61918C4.30859 9.61918 2.78898 14.3033 2.79297 14.3033C2.68359 14.6282 2.78898 14.9927 3.08195 15.2082C3.37098 15.4152 3.75 15.3995 4.02344 15.2004L8 12.3098L11.9766 15.2004C12.2501 15.3995 12.6327 15.4152 12.9221 15.2044C13.2111 14.9927 13.3205 14.6282 13.2111 14.3033L11.6954 9.61918L15.6641 6.72125V6.72902C15.8672 6.58391 16.0001 6.3448 16.0001 6.07851C16.0001 5.63191 15.6405 5.26812 15.1955 5.26812Z" fill="currentColor"/>
</svg>
