<svg width="36" height="36" viewBox="0 0 36 36" fill="none" xmlns="http://www.w3.org/2000/svg">
<path d="M22.9737 13.0265L22.9381 12.991C21.7609 11.8199 20.2051 11.1063 18.5496 10.978C16.8941 10.8496 15.2469 11.3148 13.9032 12.2904C12.5594 13.2659 11.6069 14.6879 11.2162 16.3018C10.8255 17.9157 11.0222 19.616 11.771 21.0981L12.0789 21.7044L11.5034 24.4944V24.5299L14.2674 23.8738L14.8974 24.1865C16.2086 24.8373 17.6909 25.0603 19.1356 24.8241C20.5803 24.5878 21.9144 23.9042 22.95 22.8696C24.2502 21.5631 24.9821 19.7962 24.9865 17.9529C24.991 16.1097 24.2676 14.3392 22.9737 13.0265ZM22.6942 20.8423C22.3555 21.3752 21.8179 22.0265 21.1476 22.1899C19.9634 22.4765 18.161 22.1899 15.9039 20.1033L15.8755 20.0773C13.9121 18.2441 13.391 16.7165 13.5071 15.5062C13.5758 14.8194 14.1489 14.1988 14.6321 13.7915C14.7087 13.7262 14.7996 13.6799 14.8974 13.6562C14.9953 13.6326 15.0973 13.6323 15.1953 13.6553C15.2933 13.6784 15.3844 13.7241 15.4615 13.7889C15.5385 13.8537 15.5992 13.9357 15.6387 14.0283L16.3658 15.6862C16.4132 15.792 16.431 15.9087 16.4173 16.0239C16.4035 16.139 16.3587 16.2483 16.2876 16.3399L15.9181 16.8136C15.8413 16.9119 15.7956 17.0309 15.7867 17.1553C15.7779 17.2798 15.8063 17.4041 15.8684 17.5123C16.2195 18.0287 16.6395 18.4948 17.1166 18.8978C17.6288 19.3935 18.2114 19.8109 18.8455 20.1365C18.961 20.1834 19.0879 20.1947 19.2098 20.1689C19.3318 20.1432 19.4433 20.0816 19.53 19.992L19.9539 19.5633C20.0331 19.4726 20.136 19.4059 20.2511 19.3707C20.3663 19.3356 20.4889 19.3334 20.6052 19.3644L22.3342 19.8617C22.4303 19.8899 22.5186 19.9399 22.592 20.008C22.6655 20.0761 22.7221 20.1603 22.7575 20.254C22.7929 20.3477 22.806 20.4483 22.7958 20.5479C22.7856 20.6475 22.7525 20.7434 22.6989 20.8281L22.6942 20.8423Z" fill="currentColor"/>
<path d="M18 0C14.4399 0 10.9598 1.05568 7.99974 3.03355C5.03966 5.01141 2.73255 7.82263 1.37018 11.1117C0.00779907 14.4008 -0.348661 18.02 0.345873 21.5116C1.04041 25.0033 2.75474 28.2106 5.27209 30.7279C7.78943 33.2453 10.9967 34.9596 14.4884 35.6541C17.98 36.3487 21.5992 35.9922 24.8883 34.6298C28.1774 33.2675 30.9886 30.9603 32.9665 28.0003C34.9443 25.0402 36 21.5601 36 18C36 13.2261 34.1036 8.64773 30.7279 5.27208C27.3523 1.89642 22.7739 0 18 0ZM26.9218 18.2108C26.8732 19.7057 26.45 21.1645 25.6909 22.4532C24.9318 23.742 23.8612 24.8194 22.5773 25.5868C21.2935 26.3541 19.8375 26.7868 18.3429 26.845C16.8483 26.9032 15.3631 26.5851 14.0234 25.92L9.52343 26.9905C9.45539 27.0061 9.38424 27.0009 9.3192 26.9756C9.25416 26.9502 9.19824 26.9059 9.15869 26.8484C9.13166 26.81 9.11287 26.7664 9.1035 26.7203C9.09412 26.6742 9.09437 26.6267 9.10422 26.5808L10.0516 21.9813C9.43233 20.7679 9.09892 19.4289 9.07689 18.0668C9.05485 16.7047 9.34478 15.3556 9.92448 14.1229C10.5042 12.8901 11.3583 11.8063 12.4214 10.9544C13.4844 10.1026 14.7284 9.50531 16.0579 9.20829C17.3874 8.91127 18.7672 8.9224 20.0917 9.24082C21.4163 9.55924 22.6504 10.1765 23.6996 11.0454C24.7488 11.9143 25.5853 13.0117 26.1451 14.2537C26.7048 15.4956 26.973 16.8492 26.929 18.2108H26.9218Z" fill="currentColor"/>
</svg>
