<svg width="12" height="11" viewBox="0 0 12 11" fill="none" xmlns="http://www.w3.org/2000/svg">
<path d="M0.210421 5.02445L2.96928 6.05317L4.04476 9.51342C4.09152 9.74722 4.37208 9.79398 4.55912 9.6537L6.1022 8.39118C6.24248 8.2509 6.47629 8.2509 6.66333 8.39118L9.42217 10.4019C9.60921 10.5421 9.88978 10.4486 9.93654 10.2148L11.994 0.395193C12.0407 0.161393 11.8069 -0.0724059 11.5731 0.0211143L0.210421 4.41657C-0.0701402 4.51009 -0.0701402 4.93093 0.210421 5.02445ZM3.90448 5.53881L9.32865 2.21884C9.42217 2.17208 9.51569 2.31236 9.42217 2.35912L4.97996 6.52077C4.83968 6.66105 4.6994 6.84809 4.6994 7.08189L4.55912 8.20414C4.55912 8.34442 4.32532 8.39118 4.27856 8.20414L3.71743 6.14669C3.57715 5.91289 3.67068 5.63233 3.90448 5.53881Z" fill="currentColor"/>
</svg>
