<svg width="29" height="30" viewBox="0 0 29 30" fill="none" xmlns="http://www.w3.org/2000/svg">
<path d="M11.6031 0.925129L24.8108 7.98734V8.01213C26.076 8.68782 27.1343 9.69624 27.8722 10.9294C28.6102 12.1625 29 13.5739 29 15.0124C29 16.4509 28.6102 17.8623 27.8722 19.0954C27.1343 20.3285 26.076 21.337 24.8108 22.0127L11.6031 29.0749C10.3987 29.7164 9.04929 30.0341 7.68627 29.9971C6.32326 29.9601 4.99299 29.5696 3.82489 28.8636C2.65678 28.1576 1.6906 27.1602 1.02035 25.9684C0.350093 24.7765 -0.00141976 23.4308 4.3098e-06 22.0622V7.93778C-0.00141976 6.56917 0.350093 5.22349 1.02035 4.03165C1.6906 2.8398 2.65678 1.84237 3.82489 1.13639C4.99299 0.430416 6.32326 0.0399232 7.68627 0.00290215C9.04929 -0.0341189 10.3987 0.283591 11.6031 0.925129Z" fill="currentColor"/>
</svg>
