<svg width="13" height="13" viewBox="0 0 13 13" fill="none" xmlns="http://www.w3.org/2000/svg">
<path d="M10.7561 1.8375C9.57073 0.65625 7.99024 0 6.32195 0C2.85366 0 0.0439018 2.8 0.0439018 6.25625C0.0439018 7.35 0.35122 8.44375 0.878049 9.3625L0 12.6L3.33659 11.725C4.25854 12.2063 5.26829 12.4688 6.32195 12.4688C9.79024 12.4688 12.6 9.66875 12.6 6.2125C12.5561 4.59375 11.9415 3.01875 10.7561 1.8375ZM9.35122 8.4875C9.21951 8.8375 8.60488 9.1875 8.29756 9.23125C8.03415 9.275 7.68293 9.275 7.33171 9.1875C7.1122 9.1 6.80488 9.0125 6.45366 8.8375C4.87317 8.18125 3.86342 6.60625 3.77561 6.475C3.68781 6.3875 3.11707 5.64375 3.11707 4.85625C3.11707 4.06875 3.5122 3.71875 3.6439 3.54375C3.77561 3.36875 3.95122 3.36875 4.08293 3.36875C4.17073 3.36875 4.30244 3.36875 4.39024 3.36875C4.47805 3.36875 4.60976 3.325 4.74146 3.63125C4.87317 3.9375 5.18049 4.725 5.22439 4.76875C5.26829 4.85625 5.26829 4.94375 5.22439 5.03125C5.18049 5.11875 5.13658 5.20625 5.04878 5.29375C4.96097 5.38125 4.87317 5.5125 4.82927 5.55625C4.74146 5.64375 4.65366 5.73125 4.74146 5.8625C4.82927 6.0375 5.13659 6.51875 5.61951 6.95625C6.23415 7.48125 6.71707 7.65625 6.89268 7.74375C7.06829 7.83125 7.1561 7.7875 7.2439 7.7C7.33171 7.6125 7.63903 7.2625 7.72683 7.0875C7.81464 6.9125 7.94634 6.95625 8.07805 7C8.20976 7.04375 9 7.4375 9.13171 7.525C9.30732 7.6125 9.39512 7.65625 9.43902 7.7C9.48293 7.83125 9.48293 8.1375 9.35122 8.4875Z" fill="currentColor"/>
</svg>
