<svg width="135" height="38" viewBox="0 0 135 38" fill="none" xmlns="http://www.w3.org/2000/svg">
<path d="M5.5004 23.1398C10.6205 19.444 20.9596 12.081 23.3385 11.3122C33.1942 8.12722 12.8399 30.5153 12.6368 32.0646C12.2918 34.6968 20.7142 24.8917 30.1251 16.2026C38.5208 8.45082 41.202 6.51677 42.7283 6.36448C47.2366 5.91464 35.0168 19.9745 33.7405 23.8862C33.6376 24.2017 34.4827 23.9305 39.2865 20.8889C44.0903 17.8473 53.1229 11.9556 56.052 10.9455C63.6356 8.33028 47.5768 25.6332 46.1344 29.4899C45.8504 30.2492 51.1451 26.1429 58.8169 19.1661C65.3671 13.2092 72.2047 9.04342 77.2552 5.97561C78.8442 5.01046 78.5779 5.67813 77.8957 6.52639C74.1726 11.1556 69.6949 18.4342 67.1974 24.1875C66.784 25.1397 66.7012 26.0373 66.9604 26.5327C67.5866 27.7294 69.7282 26.4686 76.5572 22.6071C82.2374 19.3952 92.6144 14.3743 97.2392 12.3045C101.864 10.2348 100.474 11.4559 98.9375 13.1028C95.6651 16.6114 93.1756 20.3491 92.0035 22.8247C91.4041 24.0906 99.9741 21.6967 111.918 16.5628C117.624 14.1104 119.221 12.9037 119.581 12.7075C121.464 11.6788 115.54 18.4141 112.589 23.8345C112.008 24.9004 111.795 25.6583 111.928 26.1556C112.983 30.1161 119.905 26.532 122.055 25.3344C122.488 25.0318 122.917 24.7111 123.999 24.162C125.081 23.6128 126.802 22.8449 129.5 21.0058" stroke="#61D5FF" stroke-width="11" stroke-linecap="round"/>
</svg>
