<svg width="208" height="38" viewBox="0 0 208 38" fill="none" xmlns="http://www.w3.org/2000/svg">
<path d="M5.50134 23.1398C13.6357 19.444 30.0615 12.081 33.8409 11.3122C49.4988 8.12722 17.1616 30.5153 16.839 32.0646C16.2909 34.6968 29.6716 24.8917 44.6229 16.2026C57.9611 8.45082 62.2208 6.51677 64.6456 6.36448C71.808 5.91464 52.3944 19.9745 50.3667 23.8862C50.2032 24.2017 51.5458 23.9305 59.1777 20.8889C66.8095 17.8473 81.1596 11.9556 85.8131 10.9455C97.8613 8.33028 72.3485 25.6332 70.057 29.4899C69.6059 30.2492 78.0175 26.1429 90.2057 19.1661C100.612 13.2092 111.475 9.04342 119.499 5.97561C122.023 5.01046 121.6 5.67813 120.516 6.52639C114.602 11.1556 107.488 18.4342 103.52 24.1875C102.863 25.1397 102.732 26.0373 103.143 26.5327C104.138 27.7294 107.541 26.4686 118.39 22.6071C127.414 19.3952 143.9 14.3743 151.248 12.3045C158.595 10.2348 156.386 11.4559 153.946 13.1028C148.747 16.6114 144.792 20.3491 142.93 22.8247C141.977 24.0906 155.593 21.6967 174.569 16.5628C183.633 14.1104 186.171 12.9037 186.742 12.7075C189.734 11.6788 180.322 18.4141 175.633 23.8345C174.711 24.9004 174.373 25.6583 174.583 26.1556C176.26 30.1161 187.257 26.532 190.672 25.3344C191.361 25.0318 192.042 24.7111 193.761 24.162C195.48 23.6128 198.215 22.8449 202.501 21.0058" stroke="#61D5FF" stroke-width="11" stroke-linecap="round"/>
</svg>
