<svg width="135" height="38" viewBox="0 0 135 38" fill="none" xmlns="http://www.w3.org/2000/svg">
<path d="M5.5 23.1394C10.6201 19.4436 20.9592 12.0807 23.3381 11.3119C33.1938 8.12686 12.8395 30.5149 12.6364 32.0642C12.2914 34.6964 20.7138 24.8913 30.1247 16.2022C38.5204 8.45045 41.2016 6.5164 42.7279 6.36411C47.2362 5.91427 35.0164 19.9742 33.7401 23.8858C33.6372 24.2013 34.4823 23.9301 39.2861 20.8885C44.0899 17.8469 53.1225 11.9553 56.0516 10.9452C63.6352 8.32991 47.5764 25.6329 46.134 29.4895C45.8501 30.2488 51.1447 26.1425 58.8165 19.1657C65.3667 13.2089 72.2043 9.04305 77.2548 5.97524C78.8438 5.0101 78.5775 5.67776 77.8953 6.52602C74.1722 11.1552 69.6945 18.4338 67.197 24.1871C66.7836 25.1394 66.7008 26.0369 66.96 26.5323C67.5862 27.729 69.7278 26.4683 76.5568 22.6068C82.237 19.3949 92.614 14.3739 97.2389 12.3041C101.864 10.2344 100.473 11.4555 98.9371 13.1025C95.6647 16.6111 93.1752 20.3488 92.0031 22.8244C91.4037 24.0903 99.9737 21.6964 111.918 16.5624C117.623 14.1101 119.221 12.9034 119.58 12.7071C121.464 11.6784 115.54 18.4137 112.588 23.8341C112.008 24.9 111.795 25.658 111.927 26.1552C112.983 30.1157 119.905 26.5317 122.054 25.334C122.488 25.0314 122.917 24.7108 123.998 24.1616C125.08 23.6125 126.802 22.8445 129.5 21.0054" stroke="#61D5FF" stroke-width="11" stroke-linecap="round"/>
</svg>
