<svg width="92" height="38" viewBox="0 0 92 38" fill="none" xmlns="http://www.w3.org/2000/svg">
<path d="M5.5 23.1398C8.8446 19.444 15.5983 12.081 17.1523 11.3122C23.5903 8.12722 10.2943 30.5153 10.1617 32.0646C9.93633 34.6968 15.438 24.8917 21.5855 16.2026C27.0698 8.45082 28.8212 6.51677 29.8182 6.36448C32.7631 5.91464 24.7809 19.9745 23.9472 23.8862C23.8799 24.2017 24.432 23.9305 27.57 20.8889C30.7079 17.8473 36.6082 11.9556 38.5216 10.9455C43.4754 8.33028 32.9854 25.6332 32.0432 29.4899C31.8577 30.2492 35.3163 26.1429 40.3277 19.1661C44.6065 13.2092 49.0729 9.04342 52.3721 5.97561C53.4101 5.01046 53.2361 5.67813 52.7905 6.52639C50.3584 11.1556 47.4335 18.4342 45.8021 24.1875C45.532 25.1397 45.4779 26.0373 45.6473 26.5327C46.0563 27.7294 47.4553 26.4686 51.9161 22.6071C55.6266 19.3952 62.4051 14.3743 65.4262 12.3045C68.4473 10.2348 67.539 11.4559 66.5355 13.1028C64.3979 16.6114 62.7717 20.3491 62.006 22.8247C61.6145 24.0906 67.2127 21.6967 75.0149 16.5628C78.7418 14.1104 79.7854 12.9037 80.0201 12.7075C81.2506 11.6788 77.3807 18.4141 75.4528 23.8345C75.0736 24.9004 74.9344 25.6583 75.021 26.1556C75.7105 30.1161 80.2322 26.532 81.6363 25.3344C81.9194 25.0318 82.1996 24.7111 82.9063 24.162C83.6129 23.6128 84.7376 22.8449 86.5 21.0058" stroke="#61D5FF" stroke-width="11" stroke-linecap="round"/>
</svg>
