<svg width="16" height="16" viewBox="0 0 16 16" fill="none" xmlns="http://www.w3.org/2000/svg">
<g clip-path="url(#clip0_2050_35992)">
<path d="M12.5228 1.4851H10.6982C10.6498 1.06762 10.2941 0.742552 9.86375 0.742552H9.3485C9.06212 0.284789 8.5587 0 8.00743 0C7.45641 0 6.95287 0.284789 6.66588 0.742552H6.15099C5.7207 0.742552 5.36498 1.06762 5.31652 1.4851H3.49353C2.42871 1.4851 1.5625 2.35144 1.5625 3.41613V14.0691C1.5625 15.1338 2.42871 16 3.49353 16H12.5228C13.5875 16 14.4538 15.1338 14.4538 14.0691V3.41613C14.4538 2.35131 13.5876 1.4851 12.5228 1.4851ZM6.2484 1.68005H6.88402C7.11461 1.68005 7.32225 1.54309 7.41295 1.33105C7.51525 1.09192 7.74865 0.937498 8.00743 0.937498C8.2661 0.937498 8.49913 1.09167 8.60082 1.3302C8.69139 1.54272 8.89916 1.68005 9.13011 1.68005H9.76634V2.97021H6.2484V1.68005ZM13.5163 14.0689C13.5163 14.6168 13.0707 15.0625 12.5228 15.0625H3.49353C2.94568 15.0625 2.5 14.6168 2.5 14.0689V3.41613C2.5 2.86828 2.94568 2.4226 3.49353 2.4226H5.31091V3.06774C5.31091 3.53088 5.68774 3.90771 6.15099 3.90771H9.86375C10.327 3.90771 10.7038 3.53088 10.7038 3.06774V2.4226H12.5228C13.0707 2.4226 13.5163 2.86828 13.5163 3.41613V14.0689Z" fill="#292D32"/>
<path d="M7.03589 6.61523H11.9954C12.2543 6.61523 12.4641 6.40527 12.4641 6.14648C12.4641 5.88757 12.2543 5.67773 11.9954 5.67773H7.03589C6.77698 5.67773 6.56714 5.88757 6.56714 6.14648C6.56714 6.40527 6.77698 6.61523 7.03589 6.61523Z" fill="#292D32"/>
<path d="M4.09683 7.02429C4.19375 7.12121 4.32107 7.16955 4.44827 7.16955C4.57547 7.16955 4.70279 7.12121 4.79971 7.02429L5.89968 5.92419C6.08279 5.74121 6.08279 5.44434 5.89968 5.26135C5.7167 5.07825 5.41983 5.07825 5.23684 5.26135L4.44827 6.0498L4.30398 5.90552C4.12088 5.72253 3.82413 5.72253 3.64102 5.90552C3.45804 6.08862 3.45804 6.38537 3.64102 6.56848L4.09683 7.02429Z" fill="#292D32"/>
<path d="M7.02527 9.94433H11.9849C12.2436 9.94433 12.4536 9.73437 12.4536 9.47559C12.4536 9.21667 12.2436 9.00684 11.9849 9.00684H7.02527C6.76648 9.00684 6.55652 9.21667 6.55652 9.47559C6.55652 9.73437 6.76648 9.94433 7.02527 9.94433Z" fill="#292D32"/>
<path d="M4.0863 10.3534C4.18017 10.4473 4.30493 10.4989 4.43774 10.4989H4.43811C4.57092 10.4988 4.6958 10.447 4.78906 10.3534L5.88916 9.25329C6.07226 9.07031 6.07226 8.77344 5.88916 8.59045C5.70617 8.40735 5.4093 8.40735 5.22631 8.59045L4.43774 9.3789L4.29333 9.23462C4.11035 9.05163 3.8136 9.05163 3.63049 9.23462C3.44739 9.41772 3.44739 9.71448 3.63049 9.89758L4.0863 10.3534Z" fill="#292D32"/>
<path d="M12.0544 12.3027H7.09497C6.83606 12.3027 6.62622 12.5126 6.62622 12.7715C6.62622 13.0304 6.83606 13.2402 7.09497 13.2402H12.0544C12.3133 13.2402 12.5232 13.0304 12.5232 12.7715C12.5232 12.5126 12.3133 12.3027 12.0544 12.3027Z" fill="#292D32"/>
<path d="M5.29589 11.8864L4.50732 12.6749L4.36291 12.5306C4.17981 12.3475 3.88318 12.3475 3.70007 12.5306C3.51697 12.7136 3.51697 13.0105 3.70007 13.1936L4.15588 13.6493C4.25281 13.7462 4.38 13.7947 4.50732 13.7947C4.63452 13.7947 4.76184 13.7462 4.85864 13.6493L5.95874 12.5493C6.14184 12.3662 6.14184 12.0695 5.95874 11.8864C5.77575 11.7032 5.47888 11.7032 5.29589 11.8864Z" fill="#292D32"/>
</g>
<defs>
<clipPath id="clip0_2050_35992">
<rect width="16" height="16" fill="white"/>
</clipPath>
</defs>
</svg>
