<svg width="16" height="16" viewBox="0 0 16 16" fill="none" xmlns="http://www.w3.org/2000/svg">
<g clip-path="url(#clip0_2050_36007)">
<path d="M8 0C5.07009 0 2.5 2.57009 2.5 5.5C2.5 8.42244 5.05619 11 8 11C10.9712 11 13.5 8.39319 13.5 5.5C13.5 2.57009 10.9299 0 8 0ZM8 10.375C7.01922 10.375 6.02775 10.0379 5.19109 9.42316C5.26325 7.93459 6.49119 6.75 8 6.75C9.50816 6.75 10.7368 7.93403 10.8089 9.42316C9.97228 10.0379 8.98078 10.375 8 10.375ZM6.4375 4.5625C6.4375 3.70094 7.13844 3 8 3C8.86156 3 9.5625 3.70094 9.5625 4.5625C9.5625 5.42406 8.86156 6.125 8 6.125C7.13844 6.125 6.4375 5.42406 6.4375 4.5625ZM11.3806 8.93581C11.1617 7.74066 10.3246 6.77641 9.24797 6.35756C9.81528 5.96194 10.1875 5.30503 10.1875 4.5625C10.1875 3.35631 9.20619 2.375 8 2.375C6.79381 2.375 5.8125 3.35631 5.8125 4.5625C5.8125 5.30503 6.18472 5.96194 6.75203 6.35756C5.67709 6.77575 4.83869 7.73859 4.61938 8.93581C3.67509 8.006 3.125 6.75866 3.125 5.5C3.125 2.90303 5.40303 0.625 8 0.625C10.597 0.625 12.875 2.90303 12.875 5.5C12.875 6.75866 12.3249 8.00603 11.3806 8.93581Z" fill="#292D32"/>
<path d="M10.0803 13.495C10.0435 13.3818 9.94575 13.2994 9.82806 13.2823L8.75847 13.1268L8.28022 12.1576C8.22756 12.0509 8.11894 11.9834 7.99997 11.9834C7.881 11.9834 7.77238 12.0509 7.71972 12.1576L7.24147 13.1268L6.17188 13.2823C6.05416 13.2994 5.95638 13.3818 5.91963 13.495C5.88288 13.6081 5.91353 13.7323 5.99869 13.8153L6.7726 14.5697L6.58978 15.6349C6.56963 15.7521 6.61781 15.8706 6.71406 15.9406C6.81038 16.0105 6.93794 16.0197 7.04319 15.9644L8 15.4614L8.95675 15.9644C9.0635 16.0205 9.19094 16.0095 9.28588 15.9406C9.3821 15.8706 9.43028 15.7521 9.41016 15.6349L9.22735 14.5696L10.0013 13.8153C10.0864 13.7323 10.1171 13.6081 10.0803 13.495ZM8.67344 14.2368C8.59981 14.3086 8.56616 14.4121 8.5836 14.5134L8.6871 15.1165L8.14544 14.8318C8.09991 14.8078 8.04997 14.7959 8.00003 14.7959C7.9501 14.7959 7.90016 14.8079 7.85463 14.8318L7.31297 15.1165L7.41647 14.5134C7.43391 14.4121 7.40025 14.3086 7.32663 14.2368L6.88847 13.8097L7.49406 13.7217C7.59585 13.7069 7.68385 13.643 7.72935 13.5507L8 13.0021L8.27069 13.5507C8.31619 13.643 8.40419 13.7069 8.50597 13.7217L9.11156 13.8097L8.67344 14.2368Z" fill="#292D32"/>
<path d="M5.08031 13.495C5.04353 13.3818 4.94575 13.2994 4.82806 13.2823L3.75847 13.1268L3.28022 12.1576C3.22756 12.0509 3.11894 11.9834 2.99997 11.9834C2.881 11.9834 2.77238 12.0509 2.71972 12.1576L2.24153 13.1268L1.17194 13.2823C1.05422 13.2994 0.956438 13.3818 0.919688 13.495C0.882938 13.6081 0.913594 13.7323 0.99875 13.8153L1.77266 14.5697L1.58984 15.6349C1.56969 15.7521 1.61788 15.8706 1.71413 15.9406C1.81041 16.0105 1.938 16.0197 2.04325 15.9644L3 15.4614L3.95675 15.9644C4.0635 16.0205 4.19094 16.0095 4.28588 15.9406C4.38209 15.8706 4.43028 15.7521 4.41016 15.6349L4.22734 14.5696L5.00125 13.8153C5.08644 13.7323 5.11706 13.6081 5.08031 13.495ZM3.67344 14.2368C3.59981 14.3086 3.56616 14.4121 3.58359 14.5134L3.68709 15.1165L3.14544 14.8318C3.09991 14.8078 3.04997 14.7959 3.00003 14.7959C2.95009 14.7959 2.90016 14.8079 2.85463 14.8318L2.31297 15.1165L2.41647 14.5134C2.43391 14.4121 2.40025 14.3086 2.32663 14.2368L1.88844 13.8097L2.49403 13.7217C2.59581 13.7069 2.68381 13.643 2.72931 13.5507L3 13.0021L3.27069 13.5507C3.31619 13.643 3.40419 13.7069 3.50597 13.7217L4.11156 13.8097L3.67344 14.2368Z" fill="#292D32"/>
<path d="M15.0803 13.495C15.0435 13.3818 14.9458 13.2994 14.8281 13.2823L13.7585 13.1268L13.2802 12.1576C13.2276 12.0509 13.1189 11.9834 13 11.9834C12.881 11.9834 12.7724 12.0509 12.7197 12.1576L12.2415 13.1268L11.1719 13.2823C11.0542 13.2994 10.9564 13.3818 10.9196 13.495C10.8829 13.6081 10.9135 13.7323 10.9987 13.8153L11.7726 14.5697L11.5898 15.6349C11.5696 15.7521 11.6178 15.8706 11.7141 15.9406C11.8104 16.0105 11.9379 16.0197 12.0432 15.9644L13 15.4614L13.9568 15.9644C14.0635 16.0205 14.1909 16.0095 14.2859 15.9406C14.3821 15.8706 14.4303 15.7521 14.4102 15.6349L14.2273 14.5696L15.0013 13.8153C15.0864 13.7323 15.1171 13.6081 15.0803 13.495ZM13.6734 14.2368C13.5998 14.3086 13.5662 14.4121 13.5836 14.5134L13.6871 15.1165L13.1454 14.8318C13.0999 14.8078 13.05 14.7959 13 14.7959C12.9501 14.7959 12.9002 14.8079 12.8546 14.8318L12.313 15.1165L12.4165 14.5134C12.4339 14.4121 12.4003 14.3086 12.3266 14.2368L11.8885 13.8097L12.4941 13.7217C12.5958 13.7069 12.6838 13.643 12.7293 13.5507L13 13.0021L13.2707 13.5507C13.3162 13.643 13.4042 13.7069 13.506 13.7217L14.1116 13.8097L13.6734 14.2368Z" fill="#292D32"/>
</g>
<defs>
<clipPath id="clip0_2050_36007">
<rect width="16" height="16" fill="white"/>
</clipPath>
</defs>
</svg>
