<svg width="16" height="16" viewBox="0 0 16 16" fill="none" xmlns="http://www.w3.org/2000/svg">
<g clip-path="url(#clip0_2050_36040)">
<path d="M14.7965 4.3412L14.796 4.32875C14.789 4.17507 14.7844 4.01247 14.7816 3.83156C14.7685 2.94936 14.0672 2.21963 13.1849 2.17031C11.3453 2.06765 9.92221 1.4678 8.70627 0.282622L8.6959 0.272735C8.29929 -0.0909116 7.70103 -0.0909116 7.3043 0.272735L7.29392 0.282622C6.07798 1.4678 4.65489 2.06765 2.8153 2.17043C1.9331 2.21963 1.23168 2.94936 1.21862 3.83168C1.21594 4.01137 1.21118 4.17397 1.20422 4.32875L1.20349 4.35768C1.16772 6.23353 1.12329 8.56812 1.90429 10.6871C2.33373 11.8524 2.98412 12.8654 3.83727 13.698C4.80894 14.6462 6.08165 15.399 7.61997 15.9354C7.67002 15.9529 7.72202 15.967 7.775 15.9776C7.84971 15.9925 7.9249 16 8.0001 16C8.07529 16 8.15061 15.9925 8.22519 15.9776C8.27817 15.967 8.33054 15.9527 8.38083 15.9352C9.91733 15.3978 11.1887 14.6446 12.1595 13.6965C13.0123 12.8636 13.6627 11.8505 14.0925 10.6849C14.8764 8.55958 14.8321 6.22059 14.7965 4.3412ZM13.2116 10.3601C12.3879 12.5935 10.7064 14.1273 8.07102 15.0489C8.06162 15.0521 8.05161 15.0549 8.04123 15.057C8.01401 15.0624 7.9863 15.0624 7.95872 15.0569C7.94846 15.0548 7.93845 15.0521 7.92917 15.0489C5.291 14.129 3.60839 12.5961 2.78527 10.3626C2.06542 8.40931 2.10619 6.26625 2.1422 4.37563L2.14245 4.36513C2.14977 4.20266 2.15465 4.03249 2.15734 3.84548C2.1632 3.45376 2.47521 3.12966 2.86767 3.10781C3.90868 3.0497 4.82323 2.84853 5.66356 2.49282C6.50279 2.1376 7.24815 1.63687 7.94199 0.962064C7.97727 0.932279 8.02305 0.932157 8.0582 0.962064C8.75217 1.63687 9.49753 2.1376 10.3366 2.49282C11.177 2.84853 12.0915 3.0497 13.1327 3.10781C13.5251 3.12966 13.8371 3.45376 13.8429 3.8456C13.8457 4.03359 13.8505 4.20375 13.8579 4.36513C13.8938 6.25795 13.9336 8.40272 13.2116 10.3601Z" fill="#292D32"/>
<path d="M7.99987 4.0127C5.80114 4.0127 4.01245 5.80151 4.01245 8.00011C4.01245 10.1988 5.80114 11.9876 7.99987 11.9876C10.1985 11.9876 11.9873 10.1988 11.9873 8.00011C11.9873 5.80151 10.1985 4.0127 7.99987 4.0127ZM7.99987 11.0487C6.31884 11.0487 4.95129 9.68114 4.95129 8.00011C4.95129 6.31909 6.31884 4.95154 7.99987 4.95154C9.68077 4.95154 11.0483 6.31909 11.0483 8.00011C11.0483 9.68114 9.68077 11.0487 7.99987 11.0487Z" fill="#292D32"/>
<path d="M9.14583 6.7626L7.29379 8.61465L6.79111 8.11196C6.60776 7.92862 6.31052 7.92862 6.12717 8.11196C5.94394 8.29531 5.94394 8.59255 6.12717 8.77578L6.96188 9.6105C7.05356 9.70217 7.17367 9.74795 7.29379 9.74795C7.41391 9.74795 7.53402 9.70217 7.6257 9.6105L9.80977 7.42642C9.993 7.24307 9.993 6.94583 9.80977 6.7626C9.62642 6.57913 9.32918 6.57913 9.14583 6.7626Z" fill="#292D32"/>
</g>
<defs>
<clipPath id="clip0_2050_36040">
<rect width="16" height="16" fill="white"/>
</clipPath>
</defs>
</svg>
