<svg width="16" height="16" viewBox="0 0 16 16" fill="none" xmlns="http://www.w3.org/2000/svg">
<g clip-path="url(#clip0_2050_36026)">
<path d="M2.44489 2.2002H9.82604V3.1377H2.44489V2.2002Z" fill="#292D32"/>
<path d="M2.44489 4.0752H9.82604V5.0127H2.44489V4.0752Z" fill="#292D32"/>
<path d="M2.44489 5.95117H9.82604V6.88867H2.44489V5.95117Z" fill="#292D32"/>
<path d="M2.44489 7.82617H6.13548V8.76367H2.44489V7.82617Z" fill="#292D32"/>
<path d="M14.0159 13.1874H13.3397V11.8674C13.3397 11.4443 13.4344 11.0399 13.6137 10.6977C13.7731 10.3933 13.8464 10.0496 13.8255 9.70379C13.7975 9.23594 13.5957 8.79619 13.2572 8.4655C12.919 8.13503 12.4749 7.94328 12.0065 7.92553C11.982 7.92462 11.9577 7.92416 11.9333 7.92419V0H0.337646V16H15.6624V14.8339C15.6623 13.926 14.9237 13.1874 14.0159 13.1874ZM8.20443 14.8339V15.0625H1.27515V0.937504H10.9959V8.17316C10.4243 8.5 10.0377 9.11566 10.0377 9.81988C10.0377 10.1174 10.1087 10.4142 10.243 10.678C10.4288 11.0432 10.5271 11.4724 10.5271 11.9191V13.1874H9.85093C8.94306 13.1874 8.20443 13.926 8.20443 14.8339ZM14.7248 15.0625H9.14193V14.8339C9.14193 14.4429 9.46 14.1249 9.85093 14.1249H11.4646V11.9191C11.4646 11.3253 11.3311 10.7491 11.0785 10.2528C11.01 10.1181 10.9753 9.97248 10.9753 9.81985C10.9752 9.27901 11.4252 8.8416 11.9711 8.86241C12.4571 8.88082 12.8607 9.27507 12.8898 9.76004C12.9003 9.9356 12.8634 10.1094 12.7832 10.2627C12.5339 10.7385 12.4022 11.2934 12.4022 11.8674V14.1249H14.0159C14.4068 14.1249 14.7249 14.4429 14.7249 14.8339V15.0625H14.7248Z" fill="#292D32"/>
<path d="M6.1355 9.78613C5.03847 9.78613 4.14594 10.6787 4.14594 11.7757C4.14594 12.8728 5.03847 13.7653 6.1355 13.7653C7.23256 13.7653 8.12509 12.8728 8.12509 11.7757C8.12509 10.6787 7.23256 9.78613 6.1355 9.78613ZM6.1355 12.8278C5.5554 12.8278 5.08344 12.3558 5.08344 11.7757C5.08344 11.1956 5.5554 10.7236 6.1355 10.7236C6.71562 10.7236 7.18759 11.1956 7.18759 11.7757C7.18759 12.3558 6.71562 12.8278 6.1355 12.8278Z" fill="#292D32"/>
</g>
<defs>
<clipPath id="clip0_2050_36026">
<rect width="16" height="16" fill="white"/>
</clipPath>
</defs>
</svg>
