<svg width="16" height="16" viewBox="0 0 16 16" fill="none" xmlns="http://www.w3.org/2000/svg">
<g clip-path="url(#clip0_2050_36341)">
<path d="M7.99944 10.0416C9.12817 10.0416 10.0432 9.12658 10.0432 7.99785C10.0432 6.86912 9.12817 5.9541 7.99944 5.9541C6.87071 5.9541 5.95569 6.86912 5.95569 7.99785C5.95569 9.12658 6.87071 10.0416 7.99944 10.0416Z" fill="#2B2F33"/>
<path d="M15.7594 7.35792C15.5385 6.76636 15.0316 6.27229 14.4097 6.04823C13.2381 5.62229 11.866 5.73761 10.4056 6.34792C10.7279 6.81655 10.9058 7.36931 10.9175 7.93794C10.9292 8.50656 10.774 9.06615 10.4713 9.54761C10.9906 9.73153 11.4455 10.062 11.781 10.4991C12.1164 10.9362 12.318 11.4612 12.3613 12.0104C12.3613 12.0104 12.3678 12.0795 12.3663 12.2292C12.3648 12.4083 12.4174 12.5838 12.5172 12.7326C12.6369 12.9164 12.8234 13.0463 13.0373 13.0949C13.2511 13.1435 13.4755 13.1069 13.6628 12.9929L13.6794 12.9829C15.2447 11.8467 16.5569 9.41042 15.7594 7.35792Z" fill="#2B2F33"/>
<path d="M5.08065 7.9996C5.07999 7.45202 5.23426 6.91541 5.52565 6.45179C5.00703 6.2675 4.55288 5.93698 4.21804 5.50016C3.88321 5.06334 3.68202 4.53891 3.63877 3.99023C3.63877 3.99023 3.63221 3.92117 3.63377 3.77148C3.63519 3.59231 3.58259 3.41687 3.48284 3.26804C3.36315 3.08428 3.17662 2.95433 2.96277 2.90574C2.74892 2.85715 2.52455 2.89373 2.33721 3.00773L2.32065 3.01773C0.755336 4.15304 -0.556851 6.58929 0.240649 8.64273C0.461586 9.23429 0.968461 9.72804 1.59034 9.95242C2.7619 10.3787 4.1344 10.263 5.59502 9.65242C5.25934 9.16667 5.07989 8.59005 5.08065 7.9996Z" fill="#2B2F33"/>
<path d="M12.9916 2.33709L12.9819 2.32053C11.8463 0.755214 9.41036 -0.556974 7.35693 0.240526C6.76536 0.461464 6.27161 0.968339 6.04755 1.59021C5.6213 2.76146 5.73693 4.13334 6.34661 5.59334C6.81529 5.27063 7.36822 5.09226 7.93713 5.08026C8.50604 5.06827 9.066 5.22317 9.54786 5.52584C9.73217 5.00714 10.0627 4.55291 10.4996 4.21802C10.9365 3.88312 11.461 3.6819 12.0097 3.63865C12.0097 3.63865 12.0788 3.63209 12.2285 3.63365C12.4076 3.63503 12.5831 3.58243 12.7319 3.48271C12.9156 3.36293 13.0454 3.17636 13.0939 2.96251C13.1423 2.74867 13.1057 2.52436 12.9916 2.33709Z" fill="#2B2F33"/>
<path d="M8.00007 10.9174C7.4522 10.9181 6.91535 10.7636 6.45163 10.4718C6.26766 10.9911 5.93713 11.446 5.50004 11.7813C5.06295 12.1167 4.53804 12.3182 3.98882 12.3615C3.98882 12.3615 3.91975 12.368 3.77007 12.3665C3.591 12.3651 3.41566 12.4177 3.26694 12.5174C3.08318 12.6371 2.95323 12.8236 2.90464 13.0375C2.85605 13.2513 2.89263 13.4757 3.00663 13.663L3.01632 13.6796C4.15194 15.2449 6.58788 16.5571 8.64132 15.7596C9.23288 15.5387 9.72663 15.0318 9.951 14.4099C10.3769 13.238 10.2613 11.8652 9.65069 10.4043C9.16536 10.739 8.58962 10.918 8.00007 10.9174Z" fill="#2B2F33"/>
</g>
<defs>
<clipPath id="clip0_2050_36341">
<rect width="16" height="16" fill="white"/>
</clipPath>
</defs>
</svg>
