<svg width="16" height="16" viewBox="0 0 16 16" fill="none" xmlns="http://www.w3.org/2000/svg">
<path d="M4.97303 2.46458C5.03003 2.33158 4.99469 2.17725 4.88603 2.08225C4.77669 1.98691 4.61936 1.97325 4.49536 2.04758C2.64669 3.15658 1.96436 6.00758 3.03536 8.14891C4.03169 10.1412 4.63303 11.3436 3.69403 13.5352C3.63703 13.6682 3.67236 13.8226 3.78103 13.9176C3.89036 14.0129 4.04769 14.0266 4.17169 13.9522C6.01969 12.8432 6.70203 9.99225 5.63136 7.84991C4.63536 5.85791 4.03403 4.65558 4.97303 2.46458ZM8.63969 2.46458C8.69669 2.33158 8.66136 2.17725 8.55269 2.08225C8.44336 1.98691 8.28603 1.97325 8.16203 2.04758C6.31369 3.15658 5.63136 6.00791 6.70203 8.14925C7.69836 10.1416 8.29969 11.3439 7.36069 13.5356C7.30369 13.6686 7.33903 13.8229 7.44769 13.9179C7.55703 14.0132 7.71436 14.0269 7.83836 13.9526C9.68636 12.8436 10.3687 9.99258 9.29803 7.85025C8.30203 5.85791 7.70069 4.65558 8.63969 2.46458ZM12.9647 7.85025C11.9687 5.85791 11.3674 4.65558 12.3064 2.46458C12.3634 2.33158 12.328 2.17725 12.2194 2.08225C12.11 1.98691 11.9527 1.97325 11.8287 2.04758C9.98036 3.15658 9.29803 6.00791 10.3687 8.14925C11.365 10.1416 11.9664 11.3439 11.0274 13.5356C10.9704 13.6686 11.0057 13.8229 11.1144 13.9179C11.2237 14.0132 11.381 14.0269 11.505 13.9526C13.353 12.8436 14.0354 9.99225 12.9647 7.85025Z" fill="#2B2F33"/>
</svg>
