<svg width="16" height="16" viewBox="0 0 16 16" fill="none" xmlns="http://www.w3.org/2000/svg">
<g clip-path="url(#clip0_2050_36293)">
<path d="M9.47168 2.477C9.33521 -0.810004 4.65271 -0.807472 4.51749 2.477V10.0736C2.35774 12.2497 3.92386 16.0053 6.99461 15.9999C10.0652 16.0053 11.6315 12.2492 9.47168 10.0736V2.477ZM6.99458 13.9916C5.32055 13.9584 4.96761 11.6723 6.52583 11.1227V2.477C6.55061 1.85506 7.4388 1.85553 7.46333 2.477V11.1227C9.02255 11.6731 8.6674 13.9588 6.99458 13.9916Z" fill="#2B2F33"/>
<path d="M6.99457 11.9834C6.69935 11.9834 6.45917 12.2236 6.45917 12.5188C6.48857 13.2291 7.5007 13.2289 7.53001 12.5188C7.52998 12.2236 7.28979 11.9834 6.99457 11.9834Z" fill="#2B2F33"/>
<path d="M1.47169 12.0498H0.467498C-0.154439 12.0746 -0.153971 12.9628 0.467498 12.9873H1.47165C2.09362 12.9626 2.09312 12.0743 1.47169 12.0498Z" fill="#2B2F33"/>
<path d="M0.467498 4.9541H1.47165C2.09359 4.92932 2.09312 4.04113 1.47165 4.0166H0.467498C-0.154439 4.04138 -0.153971 4.92957 0.467498 4.9541Z" fill="#2B2F33"/>
<path d="M0.467498 8.9707H1.47165C2.09359 8.94592 2.09312 8.05773 1.47165 8.0332H0.467498C-0.154439 8.05795 -0.153971 8.94617 0.467498 8.9707Z" fill="#2B2F33"/>
<path d="M2.47584 10.042H0.467498C-0.154439 10.0668 -0.153971 10.955 0.467498 10.9795H2.47584C3.09778 10.9547 3.09731 10.0666 2.47584 10.042Z" fill="#2B2F33"/>
<path d="M2.47584 2.00879H0.467498C-0.154439 2.03357 -0.153971 2.92176 0.467498 2.94629H2.47584C3.09778 2.92151 3.09731 2.03332 2.47584 2.00879Z" fill="#2B2F33"/>
<path d="M2.47584 6.02539H0.467498C-0.154439 6.05017 -0.153971 6.93836 0.467498 6.96289H2.47584C3.09778 6.93811 3.09731 6.04992 2.47584 6.02539Z" fill="#2B2F33"/>
<path d="M11.0113 4.0166C10.3895 4.04132 10.3896 4.92948 11.0113 4.9541C11.0296 4.9541 11.0446 4.96904 11.0446 4.98745C11.0446 5.24632 11.2545 5.4562 11.5133 5.4562C11.7722 5.4562 11.9821 5.24632 11.9821 4.98745C11.9821 4.45213 11.5466 4.0166 11.0113 4.0166Z" fill="#2B2F33"/>
<path d="M11.0113 2.00879C10.3899 2.03341 10.3892 2.92145 11.0113 2.94629C12.137 2.94629 13.0529 3.8622 13.0529 4.98795C13.0529 5.24682 13.2628 5.4567 13.5217 5.4567C13.7806 5.4567 13.9904 5.24682 13.9904 4.98795C13.9904 3.34523 12.654 2.00879 11.0113 2.00879Z" fill="#2B2F33"/>
<path d="M11.0113 0C10.3903 0.0245313 10.3888 0.912406 11.0113 0.9375C13.2445 0.9375 15.0612 2.75431 15.0612 4.9875C15.0612 5.24638 15.2711 5.45625 15.53 5.45625C15.7889 5.45625 15.9987 5.24638 15.9987 4.9875C15.9987 2.23738 13.7614 0 11.0113 0Z" fill="#2B2F33"/>
</g>
<defs>
<clipPath id="clip0_2050_36293">
<rect width="16" height="16" fill="white"/>
</clipPath>
</defs>
</svg>
