<svg width="16" height="16" viewBox="0 0 16 16" fill="none" xmlns="http://www.w3.org/2000/svg">
<g clip-path="url(#clip0_2124_54730)">
<path d="M8 1.875V3.125H6.75V1.875H8ZM6.75 9.21875V11H8V9.21875H6.75ZM10.5 16V14.75H9.25V13.5H8V16H10.5ZM13 6.71875H9.25V7.96875H13V6.71875ZM13 9.21875H14.75V7.96875H13V9.21875ZM13 11V12.25H16V9.21875H14.75V11H13ZM9.25 0H8V1.875H9.25V0ZM8 5.625H9.25V3.125H8V4.375H6.75V7.96875H8V5.625ZM0 6.71875V9.21875H1.25V7.96875H3.125V6.71875H0ZM9.25 9.21875V7.96875H8V9.21875H9.25ZM11.75 10.4688H13V9.21875H11.75V10.4688ZM14.75 7.96875H16V6.71875H14.75V7.96875ZM10.5 9.21875H9.25V11H8V12.25H10.5V9.21875ZM6.75 13.5H8V12.25H6.75V13.5ZM10.5 12.25V13.5H13V12.25H10.5ZM14.25 14.75V13.5H13V14.75H14.25ZM16 16V14.75H14.25V16H16ZM11.75 16H13V14.75H11.75V16ZM5.625 7.96875V6.71875H4.375V7.96875H3.125V9.21875H6.75V7.96875H5.625ZM5.625 5.625H0V0H5.625V5.625ZM4.375 1.25H1.25V4.375H4.375V1.25ZM3.4375 2.1875H2.1875V3.4375H3.4375V2.1875ZM16 0V5.625H10.375V0H16ZM14.75 1.25H11.625V4.375H14.75V1.25ZM13.8125 2.1875H12.5625V3.4375H13.8125V2.1875ZM0 10.375H5.625V16H0V10.375ZM1.25 14.75H4.375V11.625H1.25V14.75ZM2.1875 13.8125H3.4375V12.5625H2.1875V13.8125Z" fill="black"/>
</g>
<defs>
<clipPath id="clip0_2124_54730">
<rect width="16" height="16" fill="white"/>
</clipPath>
</defs>
</svg>
