<svg width="16" height="16" viewBox="0 0 16 16" fill="none" xmlns="http://www.w3.org/2000/svg">
<g clip-path="url(#clip0_2151_39245)">
<path d="M15.7157 3.02572C15.5083 2.78066 15.218 2.63097 14.8981 2.60425L3.63077 1.66344C3.31083 1.63673 2.99977 1.73619 2.75468 1.94347C2.51058 2.14994 2.36112 2.43879 2.33355 2.75713L2.10687 4.88387H1.20171C0.539092 4.88387 0 5.42296 0 6.08558V13.1387C0 13.8014 0.539092 14.3405 1.20171 14.3405H12.5083C13.171 14.3405 13.7101 13.8014 13.7101 13.1387V11.9946L14.1113 12.0281C14.1451 12.0309 14.1788 12.0323 14.2122 12.0323C14.8299 12.0323 15.3565 11.557 15.4088 10.9305L15.9957 3.90184C16.0224 3.58194 15.923 3.27081 15.7157 3.02572ZM1.20171 5.50887H12.5083C12.8263 5.50887 13.0851 5.76758 13.0851 6.08558V6.72827H0.624998V6.08558C0.624998 5.76758 0.883715 5.50887 1.20171 5.50887ZM0.624998 7.35327H13.0851V8.64979H0.624998V7.35327ZM12.5083 13.7155H1.20171C0.883715 13.7155 0.624998 13.4567 0.624998 13.1387V9.27479H13.0851V13.1387C13.0851 13.4567 12.8263 13.7155 12.5083 13.7155ZM15.3729 3.84981L14.786 10.8785C14.7595 11.1954 14.4801 11.4318 14.1633 11.4053L13.7101 11.3674V6.08558C13.7101 5.42296 13.171 4.88387 12.5083 4.88387H2.73543L2.95539 2.82013C2.95564 2.81775 2.95586 2.81541 2.95605 2.813C2.98252 2.4961 3.26177 2.25972 3.57877 2.28629L14.8462 3.22709C14.9997 3.23991 15.139 3.31175 15.2385 3.42938C15.338 3.547 15.3857 3.69628 15.3729 3.84981Z" fill="black"/>
<path d="M11.7771 10.2041H8.76953C8.59694 10.2041 8.45703 10.344 8.45703 10.5166V12.4788C8.45703 12.6514 8.59694 12.7913 8.76953 12.7913H11.7771C11.9497 12.7913 12.0896 12.6514 12.0896 12.4788V10.5166C12.0896 10.344 11.9497 10.2041 11.7771 10.2041ZM11.4646 12.1663H9.08203V10.8291H11.4646V12.1663Z" fill="black"/>
</g>
<defs>
<clipPath id="clip0_2151_39245">
<rect width="16" height="16" fill="white"/>
</clipPath>
</defs>
</svg>
