<svg width="16" height="16" viewBox="0 0 16 16" fill="none" xmlns="http://www.w3.org/2000/svg">
<g clip-path="url(#clip0_2151_39262)">
<path d="M6.34375 11.75C6.34375 11.9226 6.20386 12.0625 6.03125 12.0625C5.85864 12.0625 5.71875 11.9226 5.71875 11.75C5.71875 11.5774 5.85864 11.4375 6.03125 11.4375C6.20386 11.4375 6.34375 11.5774 6.34375 11.75Z" fill="black"/>
<path d="M14.125 11.9375H12.5625V10.375C12.5625 10.2024 12.4226 10.0625 12.25 10.0625C12.0774 10.0625 11.9375 10.2024 11.9375 10.375V12.25C11.9375 12.4226 12.0774 12.5625 12.25 12.5625H14.125C14.2976 12.5625 14.4375 12.4226 14.4375 12.25C14.4375 12.0774 14.2976 11.9375 14.125 11.9375Z" fill="black"/>
<path d="M2.1875 6.4375H4.15625C4.32886 6.4375 4.46875 6.29761 4.46875 6.125C4.46875 5.95239 4.32886 5.8125 4.15625 5.8125H2.1875C2.01489 5.8125 1.875 5.95239 1.875 6.125C1.875 6.29761 2.01489 6.4375 2.1875 6.4375Z" fill="black"/>
<path d="M8 5.8125H6.03125C5.85864 5.8125 5.71875 5.95239 5.71875 6.125C5.71875 6.29761 5.85864 6.4375 6.03125 6.4375H8C8.17261 6.4375 8.3125 6.29761 8.3125 6.125C8.3125 5.95239 8.17261 5.8125 8 5.8125Z" fill="black"/>
<path d="M2.1875 8.3125H4.15625C4.32886 8.3125 4.46875 8.17261 4.46875 8C4.46875 7.82739 4.32886 7.6875 4.15625 7.6875H2.1875C2.01489 7.6875 1.875 7.82739 1.875 8C1.875 8.17261 2.01489 8.3125 2.1875 8.3125Z" fill="black"/>
<path d="M4.78125 11.4375H2.1875C2.01489 11.4375 1.875 11.5774 1.875 11.75C1.875 11.9226 2.01489 12.0625 2.1875 12.0625H4.78125C4.95386 12.0625 5.09375 11.9226 5.09375 11.75C5.09375 11.5774 4.95386 11.4375 4.78125 11.4375Z" fill="black"/>
<path d="M8 7.6875H6.03125C5.85864 7.6875 5.71875 7.82739 5.71875 8C5.71875 8.17261 5.85864 8.3125 6.03125 8.3125H8C8.17261 8.3125 8.3125 8.17261 8.3125 8C8.3125 7.82739 8.17261 7.6875 8 7.6875Z" fill="black"/>
<path d="M2.1875 10.1875H4.15625C4.32886 10.1875 4.46875 10.0476 4.46875 9.875C4.46875 9.70239 4.32886 9.5625 4.15625 9.5625H2.1875C2.01489 9.5625 1.875 9.70239 1.875 9.875C1.875 10.0476 2.01489 10.1875 2.1875 10.1875Z" fill="black"/>
<path d="M8 9.5625H6.03125C5.85864 9.5625 5.71875 9.70239 5.71875 9.875C5.71875 10.0476 5.85864 10.1875 6.03125 10.1875H8C8.17261 10.1875 8.3125 10.0476 8.3125 9.875C8.3125 9.70239 8.17261 9.5625 8 9.5625Z" fill="black"/>
<path d="M9.875 6.4375H11.75C11.9226 6.4375 12.0625 6.29761 12.0625 6.125C12.0625 5.95239 11.9226 5.8125 11.75 5.8125H9.875C9.70239 5.8125 9.5625 5.95239 9.5625 6.125C9.5625 6.29761 9.70239 6.4375 9.875 6.4375Z" fill="black"/>
<path d="M13.9375 8.90112V2.1875C13.9375 1.67053 13.517 1.25 13 1.25H12.0625V0.9375C12.0625 0.419556 11.6429 0 11.125 0C10.608 0 10.1875 0.420532 10.1875 0.9375V1.25H7.59375V0.9375C7.59375 0.419556 7.17419 0 6.65625 0C6.13928 0 5.71875 0.420532 5.71875 0.9375V1.25H3.125V0.9375C3.125 0.419556 2.70544 0 2.1875 0C1.67053 0 1.25 0.420532 1.25 0.9375V1.25H0.9375C0.420532 1.25 0 1.67053 0 2.1875V12.375C0 12.892 0.420532 13.3125 0.9375 13.3125H8.65381C9.12537 14.9059 10.5884 16 12.25 16C14.3177 16 16 14.3177 16 12.25C16 10.8281 15.1968 9.53589 13.9375 8.90112ZM10.8125 0.9375C10.8125 0.765137 10.9526 0.625 11.125 0.625C11.2975 0.625 11.4375 0.764893 11.4375 0.9375V2.1875C11.4375 2.35986 11.2974 2.5 11.125 2.5C10.9526 2.5 10.8125 2.35986 10.8125 2.1875V0.9375ZM6.34375 0.9375C6.34375 0.765137 6.48389 0.625 6.65625 0.625C6.82874 0.625 6.96875 0.764893 6.96875 0.9375V2.1875C6.96875 2.35986 6.82861 2.5 6.65625 2.5C6.48389 2.5 6.34375 2.35986 6.34375 2.1875V0.9375ZM1.875 0.9375C1.875 0.765137 2.01514 0.625 2.1875 0.625C2.35999 0.625 2.5 0.764893 2.5 0.9375V2.1875C2.5 2.35986 2.35986 2.5 2.1875 2.5C2.01514 2.5 1.875 2.35986 1.875 2.1875V0.9375ZM0.9375 1.875H1.25V2.1875C1.25 2.70447 1.67053 3.125 2.1875 3.125C2.70447 3.125 3.125 2.70447 3.125 2.1875V1.875H5.71875V2.1875C5.71875 2.70447 6.13928 3.125 6.65625 3.125C7.17322 3.125 7.59375 2.70447 7.59375 2.1875V1.875H10.1875V2.1875C10.1875 2.70447 10.608 3.125 11.125 3.125C11.642 3.125 12.0625 2.70447 12.0625 2.1875V1.875H13C13.1724 1.875 13.3125 2.01514 13.3125 2.1875V3.84375H0.625V2.1875C0.625 2.01514 0.765137 1.875 0.9375 1.875ZM0.625 12.375V4.46875H13.3125V8.65283C12.9696 8.55139 12.6139 8.5 12.25 8.5C10.1823 8.5 8.5 10.1823 8.5 12.25C8.5 12.3962 8.50879 12.5425 8.52563 12.6875H0.9375C0.765137 12.6875 0.625 12.5474 0.625 12.375ZM12.25 15.375C10.575 15.375 9.125 14.0101 9.125 12.25C9.125 10.5269 10.5269 9.125 12.25 9.125C13.9794 9.125 15.375 10.5281 15.375 12.25C15.375 13.9731 13.9731 15.375 12.25 15.375Z" fill="black"/>
</g>
<defs>
<clipPath id="clip0_2151_39262">
<rect width="16" height="16" fill="white"/>
</clipPath>
</defs>
</svg>
