<svg width="16" height="16" viewBox="0 0 16 16" fill="none" xmlns="http://www.w3.org/2000/svg">
<g clip-path="url(#clip0_2129_54789)">
<path d="M4.67857 7.11378C4.67857 6.8753 4.48454 6.68127 4.24604 6.68127H3.64152C3.40301 6.68127 3.20898 6.8753 3.20898 7.11378V7.60842C3.20898 7.84693 3.40301 8.04095 3.64152 8.04095H4.24604C4.48454 8.04095 4.67857 7.84693 4.67857 7.60842V7.11378ZM4.20968 7.57206H3.67787V7.15013H4.20968V7.57206Z" fill="black"/>
<path d="M2.6551 7.11378C2.6551 6.8753 2.46107 6.68127 2.22257 6.68127H1.61808C1.37957 6.68127 1.18555 6.8753 1.18555 7.11378V7.60842C1.18555 7.84693 1.37957 8.04095 1.61808 8.04095H2.22257C2.46107 8.04095 2.6551 7.84693 2.6551 7.60842V7.11378ZM2.18621 7.57206H1.65443V7.15013H2.18621V7.57206Z" fill="black"/>
<path d="M4.67857 8.8942C4.67857 8.6557 4.48454 8.46167 4.24604 8.46167H3.64152C3.40301 8.46167 3.20898 8.6557 3.20898 8.8942V9.38885C3.20898 9.62732 3.40301 9.82135 3.64152 9.82135H4.24604C4.48454 9.82135 4.67857 9.62732 4.67857 9.38885V8.8942ZM4.20968 9.35249H3.67787V8.93056H4.20968V9.35249Z" fill="black"/>
<path d="M2.6551 8.8942C2.6551 8.6557 2.46107 8.46167 2.22257 8.46167H1.61808C1.37957 8.46167 1.18555 8.6557 1.18555 8.8942V9.38885C1.18555 9.62732 1.37957 9.82135 1.61808 9.82135H2.22257C2.46107 9.82135 2.6551 9.62732 2.6551 9.38885V8.8942ZM2.18621 9.35249H1.65443V8.93056H2.18621V9.35249Z" fill="black"/>
<path d="M4.24604 10.2421H3.64152C3.40301 10.2421 3.20898 10.4361 3.20898 10.6746V11.1692C3.20898 11.4077 3.40301 11.6018 3.64152 11.6018H4.24604C4.48454 11.6018 4.67857 11.4077 4.67857 11.1692V10.6746C4.67854 10.4361 4.48451 10.2421 4.24604 10.2421ZM4.20965 11.1329H3.67784V10.7109H4.20965V11.1329Z" fill="black"/>
<path d="M2.22257 10.2421H1.61808C1.37957 10.2421 1.18555 10.4361 1.18555 10.6746V11.1692C1.18555 11.4077 1.37957 11.6018 1.61808 11.6018H2.22257C2.46107 11.6018 2.6551 11.4077 2.6551 11.1692V10.6746C2.6551 10.4361 2.46107 10.2421 2.22257 10.2421ZM2.18621 11.1329H1.65443V10.7109H2.18621V11.1329Z" fill="black"/>
<path d="M5.66691 11.6018H6.2714C6.5099 11.6018 6.70393 11.4077 6.70393 11.1692V10.6746C6.70393 10.4361 6.5099 10.2421 6.2714 10.2421H5.66691C5.4284 10.2421 5.23438 10.4361 5.23438 10.6746V11.1692C5.23438 11.4077 5.4284 11.6018 5.66691 11.6018ZM5.70326 10.711H6.23504V11.1329H5.70326V10.711Z" fill="black"/>
<path d="M15.7202 13.9584L15.3442 13.301L15.5863 10.9019C15.7089 9.68644 15.2244 8.49078 14.2902 7.70355L12.3182 6.04188L10.261 2.4449C10.1306 2.21686 9.91917 2.05325 9.66573 1.98423C9.41225 1.91524 9.14704 1.949 8.91904 2.07945L7.64082 2.81047V1.31526C7.64082 0.590015 7.05081 0 6.3256 0H1.5633C0.838062 0 0.248047 0.590015 0.248047 1.31526V11.2839C0.248047 11.9638 0.766573 12.5248 1.42892 12.5924V15.296C1.42892 15.405 1.48391 15.5049 1.57603 15.5632C1.66818 15.6215 1.78202 15.6284 1.88052 15.5818L2.39395 15.3387L3.0568 15.626C3.09681 15.6433 3.13961 15.6519 3.18243 15.6519C3.22688 15.6519 3.27133 15.6426 3.31266 15.624L3.94615 15.3378L4.60566 15.6252C4.68943 15.6617 4.78487 15.6603 4.86745 15.6212L5.46197 15.3395L6.01426 15.5874C6.11253 15.6315 6.22516 15.6229 6.31559 15.5643C6.40599 15.5058 6.45998 15.4065 6.45998 15.2988V12.5924C7.12233 12.5248 7.64085 11.9638 7.64085 11.2839V10.5067L7.92991 11.0121C7.9612 11.0668 7.99727 11.1178 8.03734 11.1646L7.93688 11.6672C7.89396 11.8819 7.93725 12.1004 8.05869 12.2825C8.18014 12.4647 8.36525 12.5886 8.57991 12.6315C8.63399 12.6423 8.68832 12.6477 8.74224 12.6477C8.90238 12.6477 9.05899 12.6006 9.19524 12.5097C9.19762 12.5081 9.19987 12.5065 9.20222 12.5049C9.31841 12.6829 9.50305 12.8161 9.72749 12.8609C9.78079 12.8716 9.83428 12.8767 9.88726 12.8767C10.0232 12.8767 10.1557 12.8424 10.2735 12.7795C10.5694 13.6532 11.0944 14.4445 11.801 15.0554L11.9658 15.1979L12.357 15.8819C12.4003 15.9576 12.4794 16 12.5607 16C12.6002 16 12.6402 15.99 12.6769 15.969C12.7893 15.9047 12.8283 15.7615 12.764 15.6491L12.353 14.9303C12.3398 14.9073 12.3229 14.8867 12.3028 14.8694L12.1077 14.7007C11.1289 13.8544 10.5329 12.6277 10.4726 11.3351L10.391 9.58723C10.3858 9.47645 10.354 9.36698 10.2989 9.2706L9.49768 7.8697C9.43872 7.76664 9.42344 7.64679 9.45466 7.53222C9.48589 7.41766 9.55982 7.3221 9.66288 7.26318C9.76597 7.20422 9.88576 7.18887 10.0004 7.22016C10.115 7.25136 10.2105 7.32529 10.2694 7.42835L10.7171 8.21114C10.7814 8.32355 10.9247 8.36253 11.037 8.29829C11.1494 8.23399 11.1884 8.09076 11.1242 7.97838L10.6765 7.19559C10.5554 6.98381 10.359 6.83186 10.1236 6.76775C9.8882 6.70367 9.64191 6.73505 9.43013 6.85618C8.99294 7.10622 8.84067 7.66536 9.09071 8.10255L9.89192 9.50342C9.9103 9.53559 9.92093 9.57213 9.92264 9.60911L9.96159 10.4431L9.03914 10.9706C8.91982 11.0389 8.78109 11.0566 8.64846 11.0204C8.51583 10.9843 8.4052 10.8987 8.33696 10.7794L6.49286 7.55501C6.42856 7.4426 6.2853 7.40356 6.17296 7.46789C6.06058 7.53216 6.02157 7.67539 6.08584 7.7878L6.51453 8.53736C6.44504 8.48969 6.36104 8.46168 6.27058 8.46168H5.66609C5.42759 8.46168 5.23356 8.65571 5.23356 8.89421V9.38886C5.23356 9.62733 5.42759 9.82136 5.66609 9.82136H6.27058C6.50909 9.82136 6.70311 9.62733 6.70311 9.38886V8.89421C6.70311 8.88418 6.70227 8.87433 6.70161 8.86445L7.172 9.68694V11.2839C7.172 11.7506 6.79233 12.1303 6.32566 12.1303H1.5633C1.09661 12.1303 0.716933 11.7506 0.716933 11.2839V1.31526C0.716933 0.848559 1.09661 0.468886 1.5633 0.468886H6.3256C6.79226 0.468886 7.17194 0.848559 7.17194 1.31526V3.07865L6.70305 3.34682V2.14941C6.70305 1.94128 6.53372 1.77195 6.3256 1.77195H1.5633C1.35515 1.77195 1.18582 1.94128 1.18582 2.14944V3.14998C1.18582 3.27945 1.29079 3.38442 1.42026 3.38442C1.54974 3.38442 1.65471 3.27945 1.65471 3.14998V2.24084H6.23416V3.61496L5.17779 4.21913C4.74992 4.46383 4.57559 4.98351 4.74958 5.42967H1.65471V4.14908C1.65471 4.01961 1.54974 3.91464 1.42026 3.91464C1.29079 3.91464 1.18582 4.01961 1.18582 4.14908V5.52108C1.18582 5.72923 1.35515 5.89856 1.5633 5.89856H5.00531L5.58979 6.92051C5.65409 7.03289 5.79729 7.0719 5.90969 7.00763C6.0221 6.94336 6.06108 6.80014 5.99681 6.68773L5.21937 5.32839C5.07848 5.08207 5.16429 4.76704 5.41061 4.62619L9.15186 2.4865C9.27117 2.41827 9.4099 2.40054 9.54253 2.43671C9.67517 2.47281 9.78579 2.55843 9.85403 2.67775L12.9716 8.1288C13.0398 8.24812 13.0575 8.38688 13.0214 8.51951C12.9853 8.65214 12.8997 8.76274 12.7804 8.83098L11.8998 9.33459L11.6201 8.84564C11.5558 8.73323 11.4125 8.69425 11.3002 8.75852C11.1878 8.82279 11.1488 8.96601 11.2131 9.07842L11.8455 10.1843C11.8888 10.26 11.9679 10.3024 12.0493 10.3024C12.0887 10.3024 12.1287 10.2924 12.1655 10.2714C12.2778 10.2071 12.3168 10.0639 12.2526 9.95149L12.1325 9.74162L13.0131 9.238C13.2412 9.10759 13.4048 8.89615 13.4738 8.6427C13.5428 8.38925 13.509 8.12405 13.3786 7.89602L12.9951 7.22551L13.988 8.06219C14.8038 8.74958 15.2268 9.7936 15.1198 10.8549L14.8702 13.3287C14.8653 13.3773 14.8757 13.4263 14.9 13.4687L15.3132 14.1913C15.3565 14.267 15.4356 14.3094 15.517 14.3094C15.5564 14.3094 15.5964 14.2994 15.6332 14.2784C15.7455 14.214 15.7845 14.0708 15.7202 13.9584ZM10.0042 11.3571C10.0192 11.6775 10.0643 11.9941 10.1373 12.3032C10.0556 12.3859 9.9364 12.4245 9.8194 12.4012C9.62978 12.3633 9.50634 12.1782 9.54422 11.9886L9.71724 11.123L9.98607 10.9692L10.0042 11.3571ZM8.78519 11.5078C8.92023 11.5078 9.05377 11.4793 9.1789 11.4241L9.08443 11.8966C9.06608 11.9885 9.01303 12.0677 8.93511 12.1197C8.85715 12.1717 8.76365 12.1901 8.67181 12.1718C8.57997 12.1534 8.50076 12.1004 8.44878 12.0224C8.39679 11.9445 8.37829 11.851 8.39667 11.7591L8.45812 11.4517C8.48016 11.4594 8.50245 11.4666 8.52521 11.4728C8.61114 11.4963 8.69844 11.5078 8.78519 11.5078ZM6.23416 9.35247H5.70238V8.93054H6.23416V9.35247ZM5.99106 15.063L5.58963 14.8829C5.50511 14.845 5.40864 14.846 5.32481 14.8856L4.72941 15.1677L4.07138 14.8809C3.98967 14.8453 3.89617 14.8459 3.81484 14.8826L3.18118 15.1689L2.51696 14.881C2.47679 14.8636 2.434 14.8549 2.39117 14.8549C2.34491 14.8549 2.29864 14.8651 2.25582 14.8853L1.89778 15.0548V12.5992H5.99106V15.063Z" fill="black"/>
<path d="M9.24686 4.23946C9.28087 4.11451 9.20719 3.98566 9.08224 3.95165C8.62061 3.82596 8.13763 3.88751 7.72229 4.12505C7.30698 4.36259 7.00902 4.74763 6.88329 5.2093C6.84928 5.33424 6.92296 5.46309 7.0479 5.4971C7.06853 5.50273 7.08926 5.50542 7.10964 5.50542C7.21276 5.50542 7.30729 5.43684 7.33571 5.33252C7.42851 4.99171 7.64848 4.70744 7.95507 4.5321C8.26169 4.35674 8.6182 4.31129 8.95905 4.4041C9.08393 4.43808 9.21285 4.36437 9.24686 4.23946Z" fill="black"/>
<path d="M8.71173 5.30913C8.83658 5.34308 8.9655 5.26946 8.99957 5.14455C9.03361 5.01964 8.9599 4.89076 8.83499 4.85672C8.61492 4.79679 8.38479 4.82599 8.18708 4.93902C7.9894 5.05206 7.84754 5.23555 7.78759 5.4557C7.75358 5.58065 7.82726 5.7095 7.9522 5.74351C7.97283 5.74913 7.99356 5.75182 8.01394 5.75182C8.11706 5.75182 8.21159 5.68324 8.24 5.57893C8.26704 5.47962 8.33094 5.39694 8.41987 5.34605C8.5088 5.29522 8.61245 5.28209 8.71173 5.30913Z" fill="black"/>
<path d="M8.62055 6.16857C8.66384 6.24425 8.74293 6.28667 8.82426 6.28667C8.86374 6.28667 8.90372 6.2767 8.94045 6.25569C9.05283 6.19142 9.09184 6.04819 9.02757 5.93579L8.94971 5.79962C8.88541 5.68721 8.74218 5.6482 8.6298 5.7125C8.51742 5.77677 8.47841 5.92 8.54268 6.03241L8.62055 6.16857Z" fill="black"/>
</g>
<defs>
<clipPath id="clip0_2129_54789">
<rect width="16" height="16" fill="white"/>
</clipPath>
</defs>
</svg>
