<svg width="24" height="24" viewBox="0 0 24 24" fill="none" xmlns="http://www.w3.org/2000/svg">
<g clip-path="url(#clip0_154_69388)">
<path d="M12 0C9.62663 0 7.30655 0.703788 5.33316 2.02236C3.35977 3.34094 1.8217 5.21509 0.913451 7.4078C0.00519945 9.60051 -0.232441 12.0133 0.230582 14.3411C0.693605 16.6689 1.83649 18.8071 3.51472 20.4853C5.19295 22.1635 7.33115 23.3064 9.65892 23.7694C11.9867 24.2324 14.3995 23.9948 16.5922 23.0866C18.7849 22.1783 20.6591 20.6402 21.9776 18.6668C23.2962 16.6935 24 14.3734 24 12C24 8.8174 22.7357 5.76516 20.4853 3.51472C18.2349 1.26428 15.1826 0 12 0ZM18.9164 16.6964C18.5673 16.7455 16.86 16.6964 16.7714 16.6964C16.33 16.7022 15.9042 16.5336 15.5864 16.2273C15.2264 15.8795 14.9046 15.4977 14.5527 15.1364C14.4491 15.0254 14.3364 14.9233 14.2159 14.8309C13.935 14.6155 13.6568 14.6632 13.5246 14.9959C13.4213 15.354 13.3492 15.7204 13.3091 16.0909C13.2859 16.4264 13.0732 16.6364 12.6968 16.6595C12.4636 16.6718 12.2305 16.6773 12 16.6705C11.16 16.6659 10.3332 16.4616 9.58773 16.0745C8.78089 15.6254 8.07786 15.0111 7.52455 14.2718C6.61501 13.11 5.88819 11.8336 5.2391 10.5177C5.20501 10.4509 4.53955 9.03545 4.52319 8.96864C4.46319 8.74636 4.52319 8.53227 4.70728 8.45727C4.82455 8.41227 7.01728 8.45727 7.0541 8.45727C7.21723 8.45616 7.37649 8.50696 7.50886 8.60231C7.64123 8.69767 7.73985 8.83264 7.79046 8.98773C8.19616 10.0254 8.75109 10.9984 9.43773 11.8759C9.53392 11.9928 9.64644 12.0952 9.77182 12.18C9.95046 12.3027 10.1196 12.2605 10.1932 12.0532C10.2806 11.7675 10.3319 11.472 10.3459 11.1736C10.3582 10.5818 10.3459 10.1932 10.3132 9.60136C10.2914 9.22227 10.1577 8.89091 9.59864 8.78318C9.42682 8.75182 9.41182 8.61 9.52228 8.46818C9.75273 8.175 10.0677 8.12727 10.4209 8.10955C10.9473 8.07955 11.4736 8.1 12 8.10955H12.1146C12.3436 8.10871 12.5722 8.13202 12.7964 8.17909C12.929 8.20617 13.0494 8.27534 13.1395 8.37632C13.2297 8.4773 13.2849 8.60469 13.2968 8.73954C13.3239 8.88886 13.3353 9.04059 13.3309 9.19227C13.3173 9.83727 13.2859 10.4836 13.2791 11.1286C13.2728 11.3846 13.2961 11.6404 13.3486 11.8909C13.4236 12.2345 13.6596 12.3205 13.8941 12.0723C14.1981 11.7522 14.4766 11.4088 14.7273 11.0455C15.1715 10.3831 15.5376 9.67155 15.8182 8.925C15.9709 8.54182 16.0909 8.45727 16.5 8.45727H18.8264C18.9647 8.45485 19.1026 8.47323 19.2355 8.51182C19.2825 8.52418 19.3265 8.54611 19.3646 8.57625C19.4028 8.60638 19.4343 8.64407 19.4572 8.68696C19.4801 8.72984 19.4939 8.77699 19.4978 8.82546C19.5016 8.87393 19.4954 8.92268 19.4796 8.96864C19.365 9.47864 19.0896 9.91364 18.7977 10.3323C18.3246 11.0018 17.8255 11.655 17.3414 12.3164C17.2831 12.4019 17.2299 12.4907 17.1818 12.5823C16.9991 12.9123 17.0127 13.0964 17.2773 13.3691C17.7 13.8041 18.1514 14.2105 18.5591 14.6577C18.8581 14.9832 19.1283 15.334 19.3664 15.7064C19.6568 16.1755 19.4727 16.6173 18.9164 16.6964Z" fill="#3B93FF"/>
</g>
<defs>
<clipPath id="clip0_154_69388">
<rect width="24" height="24" fill="white"/>
</clipPath>
</defs>
</svg>
