<svg width="24" height="24" viewBox="0 0 24 24" fill="none" xmlns="http://www.w3.org/2000/svg">
<g clip-path="url(#clip0_154_69390)">
<mask id="mask0_154_69390" style="mask-type:luminance" maskUnits="userSpaceOnUse" x="0" y="0" width="24" height="24">
<path d="M24 0H0V24H24V0Z" fill="white"/>
</mask>
<g mask="url(#mask0_154_69390)">
<path d="M0 12C0 5.37259 5.37259 0 12 0C18.6274 0 24 5.37259 24 12C24 18.6274 18.6274 24 12 24C5.37259 24 0 18.6274 0 12Z" fill="black"/>
<path d="M0 12C0 5.37259 5.37259 0 12 0C18.6274 0 24 5.37259 24 12C24 18.6274 18.6274 24 12 24C5.37259 24 0 18.6274 0 12Z" fill="black"/>
<path fill-rule="evenodd" clip-rule="evenodd" d="M11.6404 0C11.58 4.86461 11.2479 7.59881 9.42334 9.42334C7.59881 11.2479 4.86465 11.58 0 11.6404V12.3596C4.86465 12.42 7.59881 12.7521 9.42338 14.5767C11.2479 16.4012 11.58 19.1354 11.6404 24H12.3596C12.42 19.1354 12.7521 16.4012 14.5767 14.5766C16.4012 12.7521 19.1354 12.42 24 12.3596V11.6404C19.1354 11.5799 16.4012 11.2479 14.5766 9.42334C12.7521 7.59878 12.42 4.86461 12.3596 0H11.6404Z" fill="white"/>
</g>
</g>
<defs>
<clipPath id="clip0_154_69390">
<rect width="24" height="24" fill="white"/>
</clipPath>
</defs>
</svg>
