<svg width="0" height="0" class="hidden">
  <symbol fill="none" xmlns="http://www.w3.org/2000/svg" viewBox="0 0 16 16" id="ic_arr_hor">
    <path d="M10.0001 2.72027L5.65344 7.06694C5.14011 7.58027 5.14011 8.42027 5.65344 8.93361L10.0001 13.2803" stroke="currentColor" stroke-width="2.04545" stroke-miterlimit="10" stroke-linecap="round" stroke-linejoin="round"></path>
  </symbol>
  <symbol fill="none" xmlns="http://www.w3.org/2000/svg" viewBox="0 0 16 16" id="ic_arr_hor_thin">
    <path d="M5.50005 13.5C5.43438 13.5001 5.36935 13.4871 5.30868 13.462C5.24802 13.4369 5.19292 13.4 5.14655 13.3535C5.10009 13.3071 5.06323 13.252 5.03809 13.1913C5.01294 13.1307 5 13.0656 5 13C5 12.9343 5.01294 12.8693 5.03809 12.8086C5.06323 12.748 5.10009 12.6929 5.14655 12.6465L9.79305 7.99998L5.14655 3.35348C4.95117 3.15811 4.95117 2.84173 5.14655 2.64648C5.34192 2.45123 5.6583 2.45111 5.85355 2.64648L10.8535 7.64648C10.9 7.69289 10.9369 7.74799 10.962 7.80865C10.9872 7.8693 11.0001 7.93432 11.0001 7.99998C11.0001 8.06565 10.9872 8.13066 10.962 8.19132C10.9369 8.25198 10.9 8.30708 10.8535 8.35348L5.85355 13.3535C5.80718 13.4 5.75208 13.4369 5.69142 13.462C5.63075 13.4871 5.56572 13.5001 5.50005 13.5Z" fill="currentColor"></path>
  </symbol>
  <symbol fill="none" xmlns="http://www.w3.org/2000/svg" viewBox="0 0 12 12" id="ic_arr_ver">
    <path d="M9.95998 4.47461L6.69998 7.73461C6.31498 8.11961 5.68498 8.11961 5.29998 7.73461L2.03998 4.47461" stroke="currentColor" stroke-width="1.5" stroke-miterlimit="10" stroke-linecap="round" stroke-linejoin="round"></path>
  </symbol>
  <symbol fill="none" xmlns="http://www.w3.org/2000/svg" viewBox="0 0 24 24" id="ic_arr_ver2">
    <path d="M19.9201 8.94922L13.4001 15.4692C12.6301 16.2392 11.3701 16.2392 10.6001 15.4692L4.08008 8.94922" stroke="currentColor" stroke-width="1.5" stroke-miterlimit="10" stroke-linecap="round" stroke-linejoin="round"></path>
  </symbol>
  <symbol fill="none" xmlns="http://www.w3.org/2000/svg" viewBox="0 0 10 10" id="ic_arrow_diagonal">
    <path d="M9.85358 0.5C9.85358 0.223857 9.62972 -2.43811e-07 9.35358 -3.70252e-07L4.85358 3.01432e-08C4.57743 -1.38444e-07 4.35358 0.223858 4.35358 0.5C4.35358 0.776142 4.57743 1 4.85358 1L8.85358 1L8.85358 5C8.85358 5.27614 9.07743 5.5 9.35358 5.5C9.62972 5.5 9.85358 5.27614 9.85358 5L9.85358 0.5ZM0.353577 9.5L0.70713 9.85355L9.70713 0.853553L9.35358 0.5L9.00002 0.146447L2.32756e-05 9.14645L0.353577 9.5Z" fill="currentColor"></path>
  </symbol>
  <symbol fill="none" xmlns="http://www.w3.org/2000/svg" viewBox="0 0 16 16" id="ic_cancel">
    <path d="M10.8566 5.97714L8.80514 8L10.8566 10.0229C10.9137 10.0763 10.9592 10.1409 10.9903 10.2127C11.0214 10.2844 11.0375 10.3618 11.0375 10.44C11.0375 10.5182 11.0214 10.5956 10.9903 10.6673C10.9592 10.7391 10.9137 10.8037 10.8566 10.8571C10.8032 10.9101 10.7398 10.952 10.6702 10.9804C10.6006 11.0089 10.5261 11.0233 10.4509 11.0229C10.3009 11.0222 10.1573 10.9627 10.0509 10.8571L7.99942 8.80571L5.97657 10.8571C5.87013 10.9627 5.72647 11.0222 5.57657 11.0229C5.50136 11.0233 5.42681 11.0089 5.35719 10.9804C5.28757 10.952 5.22425 10.9101 5.17085 10.8571C5.06442 10.7501 5.00468 10.6052 5.00468 10.4543C5.00468 10.3033 5.06442 10.1585 5.17085 10.0514L7.19371 8L5.17085 5.97714C5.07724 5.86783 5.02832 5.72721 5.03387 5.5834C5.03943 5.43958 5.09905 5.30316 5.20082 5.20139C5.30258 5.09963 5.43901 5.04001 5.58282 5.03445C5.72664 5.0289 5.86725 5.07782 5.97657 5.17143L7.99942 7.19429L10.0223 5.17143C10.0752 5.11665 10.1384 5.07283 10.2082 5.04246C10.278 5.0121 10.3532 4.99579 10.4293 4.99446C10.5055 4.99313 10.5811 5.00682 10.652 5.03473C10.7228 5.06264 10.7875 5.10424 10.8423 5.15714C10.8971 5.21005 10.9409 5.27322 10.9712 5.34306C11.0016 5.4129 11.0179 5.48804 11.0193 5.56419C11.0206 5.64033 11.0069 5.71599 10.979 5.78684C10.9511 5.8577 10.9095 5.92236 10.8566 5.97714ZM13.6566 13.6571C12.5377 14.7759 11.1122 15.5377 9.56042 15.8463C8.0086 16.155 6.40011 15.9965 4.93834 15.391C3.47658 14.7854 2.2272 13.76 1.34819 12.4445C0.469171 11.1289 0 9.58222 0 8C0 6.41779 0.469171 4.8711 1.34819 3.55553C2.2272 2.23995 3.47658 1.21457 4.93834 0.609045C6.40011 0.00352037 8.0086 -0.154954 9.56042 0.153662C11.1122 0.462277 12.5377 1.22412 13.6566 2.34286C14.3995 3.08574 14.9889 3.96769 15.391 4.93835C15.793 5.909 16 6.94936 16 8C16 9.05064 15.793 10.091 15.391 11.0617C14.9889 12.0323 14.3995 12.9143 13.6566 13.6571ZM12.8509 3.14857C11.8909 2.19197 10.6691 1.54125 9.33955 1.2786C8.01005 1.01594 6.63252 1.15312 5.38093 1.67282C4.12934 2.19252 3.05981 3.07143 2.30739 4.19857C1.55497 5.3257 1.1534 6.65051 1.1534 8.00571C1.1534 9.36092 1.55497 10.6857 2.30739 11.8129C3.05981 12.94 4.12934 13.8189 5.38093 14.3386C6.63252 14.8583 8.01005 14.9955 9.33955 14.7328C10.6691 14.4702 11.8909 13.8195 12.8509 12.8629C13.4901 12.2258 13.9973 11.4688 14.3434 10.6353C14.6895 9.80183 14.8677 8.90821 14.8677 8.00571C14.8677 7.10322 14.6895 6.2096 14.3434 5.3761C13.9973 4.5426 13.4901 3.78563 12.8509 3.14857Z" fill="currentColor"></path>
  </symbol>
  <symbol fill="none" xmlns="http://www.w3.org/2000/svg" viewBox="0 0 16 16" id="ic_cart">
    <path d="M5.60002 4.33301H10.4C12.6667 4.33301 12.8934 5.39301 13.0467 6.68634L13.6467 11.6863C13.84 13.3263 13.3334 14.6663 11 14.6663H5.00668C2.66668 14.6663 2.16002 13.3263 2.36002 11.6863L2.96002 6.68634C3.10669 5.39301 3.33335 4.33301 5.60002 4.33301Z" stroke="currentColor" stroke-width="1.5" stroke-linecap="round" stroke-linejoin="round"></path>
    <path d="M5.33337 5.33301V2.99967C5.33337 1.99967 6.00004 1.33301 7.00004 1.33301H9.00004C10 1.33301 10.6667 1.99967 10.6667 2.99967V5.33301" stroke="currentColor" stroke-width="1.5" stroke-linecap="round" stroke-linejoin="round"></path>
    <path d="M13.6067 11.3525H5.33337" stroke="currentColor" stroke-width="1.5" stroke-linecap="round" stroke-linejoin="round"></path>
  </symbol>
  <symbol fill="none" xmlns="http://www.w3.org/2000/svg" viewBox="0 0 16 16" id="ic_catalog">
    <path d="M4.30669 5.53977C5.21244 5.53977 5.94669 4.80551 5.94669 3.89977C5.94669 2.99402 5.21244 2.25977 4.30669 2.25977C3.40094 2.25977 2.66669 2.99402 2.66669 3.89977C2.66669 4.80551 3.40094 5.53977 4.30669 5.53977Z" stroke="currentColor" stroke-width="1.5" stroke-miterlimit="10" stroke-linecap="round" stroke-linejoin="round"></path>
    <path d="M11.6933 13.74C12.5991 13.74 13.3333 13.0057 13.3333 12.1C13.3333 11.1942 12.5991 10.46 11.6933 10.46C10.7876 10.46 10.0533 11.1942 10.0533 12.1C10.0533 13.0057 10.7876 13.74 11.6933 13.74Z" stroke="currentColor" stroke-width="1.5" stroke-miterlimit="10" stroke-linecap="round" stroke-linejoin="round"></path>
    <path d="M4.30669 13.74C5.21244 13.74 5.94669 13.0057 5.94669 12.1C5.94669 11.1942 5.21244 10.46 4.30669 10.46C3.40094 10.46 2.66669 11.1942 2.66669 12.1C2.66669 13.0057 3.40094 13.74 4.30669 13.74Z" stroke="currentColor" stroke-width="1.5" stroke-miterlimit="10" stroke-linecap="round" stroke-linejoin="round"></path>
  </symbol>
  <symbol fill="none" xmlns="http://www.w3.org/2000/svg" viewBox="0 0 23 18" id="ic_check">
    <path d="M7.15 12.35L18.95 0.549999C19.3167 0.183333 19.7833 0 20.35 0C20.9167 0 21.3833 0.183333 21.75 0.549999C22.1167 0.916666 22.3 1.38333 22.3 1.95C22.3 2.51667 22.1167 2.98333 21.75 3.35L8.55 16.55C8.15 16.95 7.68333 17.15 7.15 17.15C6.61667 17.15 6.15 16.95 5.75 16.55L0.549999 11.35C0.183333 10.9833 0 10.5167 0 9.95C0 9.38333 0.183333 8.91667 0.549999 8.55C0.916666 8.18333 1.38333 8 1.95 8C2.51667 8 2.98333 8.18333 3.35 8.55L7.15 12.35Z" fill="currentColor"></path>
  </symbol>
  <symbol fill="none" xmlns="http://www.w3.org/2000/svg" viewBox="0 0 16 16" id="ic_clear">
    <path d="M10.207 5.79688C10 5.79688 9.83228 5.96461 9.83228 6.17158V13.2535C9.83228 13.4603 10 13.6282 10.207 13.6282C10.4139 13.6282 10.5817 13.4603 10.5817 13.2535V6.17158C10.5817 5.96461 10.4139 5.79688 10.207 5.79688Z" fill="currentColor"></path>
    <path d="M5.78547 5.79688C5.57851 5.79688 5.41077 5.96461 5.41077 6.17158V13.2535C5.41077 13.4603 5.57851 13.6282 5.78547 13.6282C5.99244 13.6282 6.16018 13.4603 6.16018 13.2535V6.17158C6.16018 5.96461 5.99244 5.79688 5.78547 5.79688Z" fill="currentColor"></path>
    <path d="M2.56301 4.76335V13.9953C2.56301 14.541 2.76309 15.0534 3.11262 15.4211C3.46054 15.7898 3.94473 15.9991 4.45147 16H11.541C12.0479 15.9991 12.5321 15.7898 12.8799 15.4211C13.2294 15.0534 13.4295 14.541 13.4295 13.9953V4.76335C14.1243 4.57893 14.5745 3.90768 14.4816 3.19471C14.3885 2.48189 13.7812 1.94867 13.0622 1.94852H11.1438V1.48014C11.146 1.08626 10.9902 0.708039 10.7114 0.42979C10.4326 0.151688 10.0538 -0.0031709 9.65988 4.92333e-05H6.33261C5.93873 -0.0031709 5.55992 0.151688 5.28109 0.42979C5.00225 0.708039 4.84652 1.08626 4.84871 1.48014V1.94852H2.93025C2.21128 1.94867 1.60399 2.48189 1.5109 3.19471C1.41796 3.90768 1.86819 4.57893 2.56301 4.76335V4.76335ZM11.541 15.2506H4.45147C3.81081 15.2506 3.31242 14.7002 3.31242 13.9953V4.79629H12.6801V13.9953C12.6801 14.7002 12.1817 15.2506 11.541 15.2506ZM5.59813 1.48014C5.59564 1.28503 5.67233 1.09724 5.8108 0.959502C5.94912 0.821768 6.13735 0.746095 6.33261 0.749461H9.65988C9.85514 0.746095 10.0434 0.821768 10.1817 0.959502C10.3202 1.09709 10.3969 1.28503 10.3944 1.48014V1.94852H5.59813V1.48014ZM2.93025 2.69793H13.0622C13.4348 2.69793 13.7367 2.99989 13.7367 3.3724C13.7367 3.74491 13.4348 4.04688 13.0622 4.04688H2.93025C2.55774 4.04688 2.25578 3.74491 2.25578 3.3724C2.25578 2.99989 2.55774 2.69793 2.93025 2.69793V2.69793Z" fill="currentColor"></path>
    <path d="M7.99617 5.79688C7.7892 5.79688 7.62146 5.96461 7.62146 6.17158V13.2535C7.62146 13.4603 7.7892 13.6282 7.99617 13.6282C8.20313 13.6282 8.37087 13.4603 8.37087 13.2535V6.17158C8.37087 5.96461 8.20313 5.79688 7.99617 5.79688Z" fill="currentColor"></path>
  </symbol>
  <symbol fill="none" xmlns="http://www.w3.org/2000/svg" viewBox="0 0 16 16" id="ic_close">
    <path d="M5.66675 10.3337L10.3334 5.66699" stroke="currentColor" stroke-width="1.5" stroke-linecap="round" stroke-linejoin="round"></path>
    <path d="M10.3334 10.3337L5.66675 5.66699" stroke="currentColor" stroke-width="1.5" stroke-linecap="round" stroke-linejoin="round"></path>
  </symbol>
  <symbol fill="none" xmlns="http://www.w3.org/2000/svg" viewBox="0 0 16 16" id="ic_close_big">
    <path d="M1.31982 1.31934L14.6801 14.6796" stroke="currentColor" stroke-width="1.5" stroke-linecap="round" stroke-linejoin="round"></path>
    <path d="M1.31982 14.6797L14.6801 1.31938" stroke="currentColor" stroke-width="1.5" stroke-linecap="round" stroke-linejoin="round"></path>
  </symbol>
  <symbol fill="none" xmlns="http://www.w3.org/2000/svg" viewBox="0 0 17 16" id="ic_close_thin">
    <line x1="0.353478" y1="15.2031" x2="15.2027" y2="0.353845" stroke="currentColor"></line>
    <line y1="-0.5" x2="21" y2="-0.5" transform="matrix(-0.707107 -0.707107 -0.707107 0.707107 15.5564 15.5566)" stroke="currentColor"></line>
  </symbol>
  <symbol fill="none" xmlns="http://www.w3.org/2000/svg" viewBox="0 0 16 16" id="ic_compare">
    <path d="M4.66663 7.16016V9.29349" stroke="currentColor" stroke-width="1.5" stroke-linecap="round" stroke-linejoin="round"></path>
    <path d="M8 6V10.4533" stroke="currentColor" stroke-width="1.5" stroke-linecap="round" stroke-linejoin="round"></path>
    <path d="M11.3334 7.16016V9.29349" stroke="currentColor" stroke-width="1.5" stroke-linecap="round" stroke-linejoin="round"></path>
    <path d="M6.00004 14.6663H10C13.3334 14.6663 14.6667 13.333 14.6667 9.99967V5.99967C14.6667 2.66634 13.3334 1.33301 10 1.33301H6.00004C2.66671 1.33301 1.33337 2.66634 1.33337 5.99967V9.99967C1.33337 13.333 2.66671 14.6663 6.00004 14.6663Z" stroke="currentColor" stroke-width="1.5" stroke-linecap="round" stroke-linejoin="round"></path>
  </symbol>
  <symbol fill="none" xmlns="http://www.w3.org/2000/svg" viewBox="0 0 8 8" id="ic_dots">
    <path d="M4.00002 4.33366C4.18412 4.33366 4.33335 4.18442 4.33335 4.00033C4.33335 3.81623 4.18412 3.66699 4.00002 3.66699C3.81593 3.66699 3.66669 3.81623 3.66669 4.00033C3.66669 4.18442 3.81593 4.33366 4.00002 4.33366Z" fill="currentColor" stroke="currentColor" stroke-linecap="round" stroke-linejoin="round"></path>
    <path d="M4.00002 1.99967C4.18412 1.99967 4.33335 1.85044 4.33335 1.66634C4.33335 1.48225 4.18412 1.33301 4.00002 1.33301C3.81593 1.33301 3.66669 1.48225 3.66669 1.66634C3.66669 1.85044 3.81593 1.99967 4.00002 1.99967Z" fill="currentColor" stroke="currentColor" stroke-linecap="round" stroke-linejoin="round"></path>
    <path d="M4.00002 6.66667C4.18412 6.66667 4.33335 6.51743 4.33335 6.33333C4.33335 6.14924 4.18412 6 4.00002 6C3.81593 6 3.66669 6.14924 3.66669 6.33333C3.66669 6.51743 3.81593 6.66667 4.00002 6.66667Z" fill="currentColor" stroke="currentColor" stroke-linecap="round" stroke-linejoin="round"></path>
  </symbol>
  <symbol fill="none" xmlns="http://www.w3.org/2000/svg" viewBox="0 0 30 30" id="ic_error">
    <path fill-rule="evenodd" clip-rule="evenodd" d="M14.75 28.75C22.482 28.75 28.75 22.482 28.75 14.75C28.75 7.01801 22.482 0.75 14.75 0.75C7.01801 0.75 0.75 7.01801 0.75 14.75C0.75 22.482 7.01801 28.75 14.75 28.75Z" stroke="currentColor" stroke-width="1.5" stroke-linecap="round" stroke-linejoin="round"></path>
    <path d="M9.5 10.75C9.5 10.3358 9.16421 10 8.75 10C8.33579 10 8 10.3358 8 10.75H8.75H9.5ZM8 12.75C8 13.1642 8.33579 13.5 8.75 13.5C9.16421 13.5 9.5 13.1642 9.5 12.75H8.75H8ZM21.5 10.75C21.5 10.3358 21.1642 10 20.75 10C20.3358 10 20 10.3358 20 10.75H20.75H21.5ZM20 12.75C20 13.1642 20.3358 13.5 20.75 13.5C21.1642 13.5 21.5 13.1642 21.5 12.75H20.75H20ZM20.7706 19.4997C21.1846 19.4883 21.5111 19.1435 21.4997 18.7294C21.4883 18.3154 21.1435 17.9889 20.7294 18.0003L20.75 18.75L20.7706 19.4997ZM15.75 19.75L15.9503 20.4728C15.9737 20.4663 15.9967 20.4587 16.0194 20.45L15.75 19.75ZM10.2065 22.2331C9.92108 22.5333 9.93299 23.008 10.2331 23.2935C10.5333 23.5789 11.008 23.567 11.2935 23.2669L10.75 22.75L10.2065 22.2331ZM8.75 10.75H8V12.75H8.75H9.5V10.75H8.75ZM20.75 10.75H20V12.75H20.75H21.5V10.75H20.75ZM20.75 18.75L20.7294 18.0003C18.9329 18.0496 17.1579 18.4046 15.4806 19.05L15.75 19.75L16.0194 20.45C17.5376 19.8657 19.1444 19.5444 20.7706 19.4997L20.75 18.75ZM15.75 19.75L15.5497 19.0272C13.5112 19.5922 11.6644 20.7003 10.2065 22.2331L10.75 22.75L11.2935 23.2669C12.564 21.9309 14.1736 20.9652 15.9503 20.4728L15.75 19.75Z" fill="currentColor"></path>
  </symbol>
  <symbol fill="none" xmlns="http://www.w3.org/2000/svg" viewBox="0 0 16 16" id="ic_eye">
    <path d="M7.99999 13C2.76586 13 0.170861 8.437 0.0629859 8.24288C0.0216782 8.16857 0 8.08495 0 7.99994C0 7.91492 0.0216782 7.83131 0.0629859 7.757C0.170861 7.563 2.76586 3 7.99999 3C13.2341 3 15.8291 7.563 15.937 7.75712C15.9783 7.83143 16 7.91505 16 8.00006C16 8.08508 15.9783 8.16869 15.937 8.243C15.8291 8.437 13.2341 13 7.99999 13ZM1.08836 7.99925C1.68311 8.90062 4.01824 12 7.99999 12C11.9944 12 14.3191 8.90312 14.9116 8.00075C14.3169 7.09937 11.9817 4 7.99999 4C4.00561 4 1.68086 7.09687 1.08836 7.99925ZM7.99999 11C6.34574 11 4.99999 9.65425 4.99999 8C4.99999 6.34575 6.34574 5 7.99999 5C9.65424 5 11 6.34575 11 8C11 9.65425 9.65424 11 7.99999 11ZM7.99999 6C6.89724 6 5.99999 6.89725 5.99999 8C5.99999 9.10275 6.89724 10 7.99999 10C9.10274 10 9.99999 9.10275 9.99999 8C9.99999 6.89725 9.10274 6 7.99999 6Z" fill="currentColor"></path>
  </symbol>
  <symbol fill="none" xmlns="http://www.w3.org/2000/svg" viewBox="0 0 16 16" id="ic_favorite">
    <path d="M8.41337 13.8731C8.18671 13.9531 7.81337 13.9531 7.58671 13.8731C5.65337 13.2131 1.33337 10.4597 1.33337 5.79307C1.33337 3.73307 2.99337 2.06641 5.04004 2.06641C6.25337 2.06641 7.32671 2.65307 8.00004 3.55974C8.67337 2.65307 9.75337 2.06641 10.96 2.06641C13.0067 2.06641 14.6667 3.73307 14.6667 5.79307C14.6667 10.4597 10.3467 13.2131 8.41337 13.8731Z" stroke="currentColor" stroke-width="1.5" stroke-linecap="round" stroke-linejoin="round"></path>
  </symbol>
  <symbol fill="none" xmlns="http://www.w3.org/2000/svg" viewBox="0 0 24 24" id="ic_grid">
    <rect x="5.3999" y="5.29999" width="5.45331" height="5.45331" rx="1" stroke="currentColor" stroke-width="1.5"></rect>
    <rect x="5.3999" y="13.1516" width="5.45331" height="5.45331" rx="1" stroke="currentColor" stroke-width="1.5"></rect>
    <rect x="13.2285" y="5.29999" width="5.45331" height="5.45331" rx="1" stroke="currentColor" stroke-width="1.5"></rect>
    <rect x="13.2285" y="13.1516" width="5.45331" height="5.45331" rx="1" stroke="currentColor" stroke-width="1.5"></rect>
  </symbol>
  <symbol fill="none" xmlns="http://www.w3.org/2000/svg" viewBox="0 0 16 16" id="ic_like">
    <path d="M14.7076 2.27271C13.8698 1.43489 12.7606 0.976973 11.5768 0.976973C10.393 0.976973 9.28047 1.43828 8.44265 2.2761L8.00509 2.71367L7.56074 2.26932C6.72292 1.4315 5.60696 0.966797 4.42316 0.966797C3.24275 0.966797 2.13018 1.42811 1.29575 2.26253C0.457936 3.10035 -0.00337341 4.21292 1.85735e-05 5.39672C1.85735e-05 6.58052 0.46472 7.6897 1.30254 8.52752L7.67267 14.8977C7.76087 14.9858 7.87959 15.0333 7.99491 15.0333C8.11024 15.0333 8.22896 14.9892 8.31715 14.901L14.7009 8.54109C15.5387 7.70327 16 6.5907 16 5.4069C16.0034 4.2231 15.5455 3.11053 14.7076 2.27271ZM14.0564 7.89322L7.99491 13.9309L1.94701 7.88304C1.28219 7.21821 0.915853 6.3363 0.915853 5.39672C0.915853 4.45714 1.27879 3.57523 1.94362 2.91379C2.60506 2.25236 3.48697 1.88602 4.42316 1.88602C5.36274 1.88602 6.24804 2.25236 6.91287 2.91718L7.67946 3.68377C7.85923 3.86355 8.14755 3.86355 8.32733 3.68377L9.08713 2.92397C9.75196 2.25914 10.6373 1.89281 11.5735 1.89281C12.5096 1.89281 13.3916 2.25914 14.0564 2.92058C14.7212 3.5854 15.0841 4.46732 15.0841 5.4069C15.0875 6.34648 14.7212 7.22839 14.0564 7.89322Z" fill="currentColor"></path>
  </symbol>
  <symbol fill="none" xmlns="http://www.w3.org/2000/svg" viewBox="0 0 24 24" id="ic_list">
    <rect x="4.7002" y="16.3242" width="3.44118" height="1.72059" rx="0.860294" fill="currentColor"></rect>
    <rect x="9.8623" y="16.3242" width="9.46323" height="1.72059" rx="0.860294" fill="currentColor"></rect>
    <rect x="4.7002" y="11.1641" width="3.44118" height="1.72059" rx="0.860294" fill="currentColor"></rect>
    <rect x="9.8623" y="11.1641" width="9.46323" height="1.72059" rx="0.860294" fill="currentColor"></rect>
    <rect x="4.7002" y="6" width="3.44118" height="1.72059" rx="0.860294" fill="currentColor"></rect>
    <rect x="9.8623" y="6" width="9.46323" height="1.72059" rx="0.860294" fill="currentColor"></rect>
  </symbol>
  <symbol fill="none" xmlns="http://www.w3.org/2000/svg" viewBox="0 0 16 16" id="ic_location">
    <path d="M7.99992 8.95297C9.14867 8.95297 10.0799 8.02172 10.0799 6.87297C10.0799 5.72422 9.14867 4.79297 7.99992 4.79297C6.85117 4.79297 5.91992 5.72422 5.91992 6.87297C5.91992 8.02172 6.85117 8.95297 7.99992 8.95297Z" stroke="currentColor" stroke-width="1.5"></path>
    <path d="M2.41333 5.65968C3.72667 -0.113657 12.28 -0.106991 13.5867 5.66634C14.3533 9.05301 12.2467 11.9197 10.4 13.693C9.06 14.9863 6.94 14.9863 5.59333 13.693C3.75333 11.9197 1.64667 9.04634 2.41333 5.65968Z" stroke="currentColor" stroke-width="1.5"></path>
  </symbol>
  <symbol fill="none" xmlns="http://www.w3.org/2000/svg" viewBox="0 0 16 16" id="ic_minus">
    <path d="M12.9682 8.78125H3.03198C2.60042 8.78125 2.25073 8.43156 2.25073 8C2.25073 7.56844 2.60042 7.21875 3.03198 7.21875H12.9682C13.3998 7.21875 13.7495 7.56844 13.7495 8C13.7495 8.43156 13.3998 8.78125 12.9682 8.78125Z" fill="currentColor"></path>
  </symbol>
  <symbol fill="none" xmlns="http://www.w3.org/2000/svg" viewBox="0 0 24 24" id="ic_notice">
    <path d="M13.6034 16.9086C13.358 16.9315 13.1117 16.8761 12.8997 16.7504C12.8233 16.6719 12.7655 16.5772 12.7305 16.4734C12.6956 16.3695 12.6845 16.2591 12.6979 16.1504C12.7037 15.967 12.7256 15.7845 12.7634 15.605C12.8 15.399 12.8473 15.1951 12.9052 14.994L13.5488 12.7795C13.6152 12.5609 13.6591 12.3361 13.6797 12.1086C13.6797 11.8631 13.7125 11.694 13.7125 11.5958C13.7192 11.3799 13.6771 11.1652 13.5893 10.9678C13.5014 10.7704 13.3701 10.5954 13.2052 10.4558C12.7941 10.1403 12.2823 9.98516 11.7652 10.0195C11.3946 10.0251 11.027 10.0857 10.6743 10.1995C10.2888 10.3195 9.88334 10.4631 9.4579 10.6304L9.27246 11.3504C9.3979 11.3068 9.55066 11.2577 9.72518 11.2031C9.89167 11.1538 10.0643 11.1281 10.2379 11.1268C10.4815 11.1004 10.7266 11.1602 10.9306 11.2958C10.9992 11.3777 11.0505 11.4725 11.0814 11.5747C11.1124 11.6769 11.1223 11.7843 11.1106 11.8904C11.11 12.0738 11.0899 12.2567 11.0506 12.4358C11.0124 12.6268 10.9633 12.8286 10.9033 13.0413L10.2543 15.2667C10.2019 15.4736 10.1601 15.6829 10.1288 15.894C10.1033 16.0747 10.0906 16.2569 10.0906 16.4394C10.0893 16.6568 10.1378 16.8715 10.2323 17.0673C10.3269 17.263 10.465 17.4344 10.6361 17.5685C11.0534 17.889 11.5726 18.0478 12.0979 18.0158C12.4677 18.0234 12.8363 17.9699 13.1888 17.8576C13.4979 17.7521 13.9106 17.6012 14.427 17.4049L14.6015 16.7176C14.4617 16.7756 14.3176 16.823 14.1706 16.8594C13.9847 16.9018 13.7938 16.9184 13.6034 16.9086ZM14.2852 6.4086C13.9883 6.13597 13.5972 5.9893 13.1943 5.99952C12.7915 5.99044 12.4008 6.13696 12.1033 6.4086C11.5581 6.87876 11.4972 7.70193 11.9674 8.24723C12.0093 8.29583 12.0547 8.34127 12.1033 8.38316C12.7245 8.93877 13.664 8.93877 14.2851 8.38316C14.8304 7.90837 14.8875 7.08149 14.4127 6.53624C14.3732 6.4908 14.3306 6.44815 14.2852 6.4086Z" fill="currentColor"></path>
    <path d="M12 0C5.37258 0 0 5.37258 0 12C0 18.6274 5.37258 24 12 24C18.6274 24 24 18.6274 24 12C24 5.37258 18.6274 0 12 0ZM12 22.9091C5.97506 22.9091 1.09092 18.0249 1.09092 12C1.09092 5.97506 5.97506 1.09092 12 1.09092C18.0249 1.09092 22.9091 5.97506 22.9091 12C22.9091 18.0249 18.0249 22.9091 12 22.9091Z" fill="currentColor"></path>
  </symbol>
  <symbol fill="none" xmlns="http://www.w3.org/2000/svg" viewBox="0 0 16 16" id="ic_phone">
    <path d="M14.6467 12.2207C14.6467 12.4607 14.5934 12.7073 14.48 12.9473C14.3667 13.1873 14.22 13.414 14.0267 13.6273C13.7 13.9873 13.34 14.2473 12.9334 14.414C12.5334 14.5807 12.1 14.6673 11.6334 14.6673C10.9534 14.6673 10.2267 14.5073 9.46004 14.1807C8.69337 13.854 7.92671 13.414 7.16671 12.8607C6.40004 12.3007 5.67337 11.6807 4.98004 10.994C4.29337 10.3007 3.67337 9.57398 3.12004 8.81398C2.57337 8.05398 2.13337 7.29398 1.81337 6.54065C1.49337 5.78065 1.33337 5.05398 1.33337 4.36065C1.33337 3.90732 1.41337 3.47398 1.57337 3.07398C1.73337 2.66732 1.98671 2.29398 2.34004 1.96065C2.76671 1.54065 3.23337 1.33398 3.72671 1.33398C3.91337 1.33398 4.10004 1.37398 4.26671 1.45398C4.44004 1.53398 4.59337 1.65398 4.71337 1.82732L6.26004 4.00732C6.38004 4.17398 6.46671 4.32732 6.52671 4.47398C6.58671 4.61398 6.62004 4.75398 6.62004 4.88065C6.62004 5.04065 6.57337 5.20065 6.48004 5.35398C6.39337 5.50732 6.26671 5.66732 6.10671 5.82732L5.60004 6.35398C5.52671 6.42732 5.49337 6.51398 5.49337 6.62065C5.49337 6.67398 5.50004 6.72065 5.51337 6.77398C5.53337 6.82732 5.55337 6.86732 5.56671 6.90732C5.68671 7.12732 5.89337 7.41398 6.18671 7.76065C6.48671 8.10732 6.80671 8.46065 7.15337 8.81398C7.51337 9.16732 7.86004 9.49398 8.21337 9.79398C8.56004 10.0873 8.84671 10.2873 9.07337 10.4073C9.10671 10.4207 9.14671 10.4407 9.19337 10.4607C9.24671 10.4807 9.30004 10.4873 9.36004 10.4873C9.47337 10.4873 9.56004 10.4473 9.63337 10.374L10.14 9.87398C10.3067 9.70732 10.4667 9.58065 10.62 9.50065C10.7734 9.40732 10.9267 9.36065 11.0934 9.36065C11.22 9.36065 11.3534 9.38732 11.5 9.44732C11.6467 9.50732 11.8 9.59398 11.9667 9.70732L14.1734 11.274C14.3467 11.394 14.4667 11.534 14.54 11.7007C14.6067 11.8673 14.6467 12.034 14.6467 12.2207Z" stroke="currentColor" stroke-width="1.5" stroke-miterlimit="10"></path>
  </symbol>
  <symbol fill="none" xmlns="http://www.w3.org/2000/svg" viewBox="0 0 16 16" id="ic_plus">
    <path d="M8 13.7492C7.56844 13.7492 7.21875 13.3996 7.21875 12.968V3.03174C7.21875 2.60018 7.56844 2.25049 8 2.25049C8.43156 2.25049 8.78125 2.60018 8.78125 3.03174V12.968C8.78125 13.3996 8.43156 13.7492 8 13.7492Z" fill="currentColor"></path>
    <path d="M12.9675 8.78125H3.03125C2.59969 8.78125 2.25 8.43156 2.25 8C2.25 7.56844 2.59969 7.21875 3.03125 7.21875H12.9675C13.3991 7.21875 13.7488 7.56844 13.7488 8C13.7488 8.43156 13.3991 8.78125 12.9675 8.78125Z" fill="currentColor"></path>
  </symbol>
  <symbol fill="none" xmlns="http://www.w3.org/2000/svg" viewBox="0 0 16 16" id="ic_remove">
    <path d="M14 3.98698C11.78 3.76698 9.54667 3.65364 7.32 3.65364C6 3.65364 4.68 3.72031 3.36 3.85364L2 3.98698" stroke="currentColor" stroke-linecap="round" stroke-linejoin="round"></path>
    <path d="M5.66675 3.31333L5.81341 2.44C5.92008 1.80667 6.00008 1.33333 7.12675 1.33333H8.87341C10.0001 1.33333 10.0867 1.83333 10.1867 2.44667L10.3334 3.31333" stroke="currentColor" stroke-linecap="round" stroke-linejoin="round"></path>
    <path d="M12.5667 6.09375L12.1333 12.8071C12.06 13.8537 12 14.6671 10.14 14.6671H5.86002C4.00002 14.6671 3.94002 13.8537 3.86668 12.8071L3.43335 6.09375" stroke="currentColor" stroke-linecap="round" stroke-linejoin="round"></path>
    <path d="M6.88672 11H9.10672" stroke="currentColor" stroke-linecap="round" stroke-linejoin="round"></path>
    <path d="M6.33325 8.33333H9.66659" stroke="currentColor" stroke-linecap="round" stroke-linejoin="round"></path>
  </symbol>
  <symbol fill="none" xmlns="http://www.w3.org/2000/svg" viewBox="0 0 16 16" id="ic_repeat">
    <path d="M8.4999 0.5C4.84014 0.5 1.71489 3.1415 1.10489 6.75L0.914894 6.4675C0.840634 6.35744 0.725692 6.28138 0.595354 6.25606C0.465016 6.23074 0.329959 6.25824 0.219894 6.3325C0.109829 6.40676 0.0337724 6.5217 0.00845503 6.65204C-0.0168624 6.78238 0.0106336 6.91744 0.0848942 7.0275L1.08489 8.5275C1.1255 8.58926 1.1793 8.64125 1.24242 8.67972C1.30553 8.7182 1.37639 8.7422 1.44989 8.75H1.49989C1.56546 8.74978 1.63034 8.73664 1.69082 8.71133C1.75131 8.68602 1.80621 8.64904 1.85239 8.6025L3.10239 7.3525C3.19165 7.25776 3.24049 7.13198 3.23855 7.00184C3.23661 6.87169 3.18405 6.74742 3.09201 6.65538C2.99998 6.56334 2.8757 6.51078 2.74556 6.50884C2.61541 6.50691 2.48963 6.55574 2.39489 6.645L2.08489 6.9575C2.66064 3.414 5.9999 1.0085 9.54315 1.58425C13.0864 2.16 15.4924 5.499 14.9166 9.0425C14.4054 12.189 11.6876 14.5005 8.4999 14.5C7.50926 14.518 6.52895 14.2964 5.64232 13.8542C4.7557 13.4119 3.98899 12.7621 3.40739 11.96C3.36931 11.9065 3.32106 11.861 3.2654 11.8261C3.20973 11.7913 3.14775 11.7677 3.08298 11.7568C3.01821 11.7459 2.95193 11.7478 2.88791 11.7625C2.8239 11.7772 2.76341 11.8044 2.70989 11.8425C2.65638 11.8806 2.61089 11.9288 2.57603 11.9845C2.54116 12.0402 2.5176 12.1021 2.50669 12.1669C2.49578 12.2317 2.49773 12.298 2.51244 12.362C2.52714 12.426 2.55431 12.4865 2.59239 12.54C3.26591 13.4727 4.15474 14.2288 5.18328 14.7442C6.21182 15.2596 7.34962 15.5188 8.4999 15.5C12.6421 15.5 15.9999 12.1423 15.9999 8C15.9999 3.85775 12.6421 0.5 8.4999 0.5Z" fill="currentColor"></path>
  </symbol>
  <symbol fill="none" xmlns="http://www.w3.org/2000/svg" viewBox="0 0 24 24" id="ic_search">
    <path d="M11.5 21C16.7467 21 21 16.7467 21 11.5C21 6.25329 16.7467 2 11.5 2C6.25329 2 2 6.25329 2 11.5C2 16.7467 6.25329 21 11.5 21Z" stroke="currentColor" stroke-width="1.5" stroke-linecap="round" stroke-linejoin="round"></path>
    <path d="M22 22L20 20" stroke="currentColor" stroke-width="1.5" stroke-linecap="round" stroke-linejoin="round"></path>
  </symbol>
  <symbol fill="none" xmlns="http://www.w3.org/2000/svg" viewBox="0 0 16 16" id="ic_share">
    <path d="M14.5999 2.9C14.5999 3.42748 14.4454 3.94341 14.1556 4.38407C13.8657 4.82474 13.453 5.17084 12.9687 5.37964C12.4843 5.58843 11.9493 5.65077 11.4299 5.55896C10.9105 5.46715 10.4293 5.2252 10.0459 4.863L5.30288 7.28C5.43314 7.75117 5.43314 8.24884 5.30288 8.72L10.0459 11.137C10.5056 10.7028 11.1031 10.4438 11.7342 10.405C12.3653 10.3662 12.99 10.5501 13.4994 10.9247C14.0088 11.2993 14.3706 11.8408 14.5216 12.4548C14.6727 13.0688 14.6035 13.7164 14.326 14.2846C14.0486 14.8528 13.5805 15.3056 13.0035 15.564C12.4264 15.8225 11.7769 15.8702 11.1682 15.6989C10.5596 15.5275 10.0304 15.148 9.67284 14.6265C9.31533 14.105 9.15219 13.4745 9.21188 12.845L4.16188 10.27C3.75407 10.5326 3.28303 10.6806 2.79829 10.6982C2.31354 10.7159 1.83299 10.6026 1.40715 10.3703C0.981308 10.1381 0.625902 9.79539 0.378288 9.37828C0.130675 8.96118 0 8.48507 0 8C0 7.51494 0.130675 7.03883 0.378288 6.62172C0.625902 6.20462 0.981308 5.86192 1.40715 5.62966C1.83299 5.39739 2.31354 5.28414 2.79829 5.30179C3.28303 5.31945 3.75407 5.46737 4.16188 5.73L9.21188 3.155C9.17748 2.79137 9.21722 2.42454 9.3287 2.07671C9.44017 1.72888 9.62106 1.40729 9.86041 1.13139C10.0998 0.855491 10.3926 0.631025 10.7212 0.471578C11.0498 0.31213 11.4074 0.221016 11.7722 0.203748C12.1371 0.186481 12.5016 0.24342 12.8439 0.37112C13.1861 0.498819 13.4988 0.694624 13.7631 0.946684C14.0275 1.19874 14.2379 1.50182 14.3818 1.83756C14.5256 2.17331 14.5998 2.53475 14.5999 2.9Z" fill="currentColor"></path>
  </symbol>
  <symbol fill="none" xmlns="http://www.w3.org/2000/svg" viewBox="0 0 36 36" id="ic_share_tg">
    <path fill-rule="evenodd" clip-rule="evenodd" d="M18 0C8.05922 0 0 8.05922 0 18C0 27.9408 8.05922 36 18 36C27.9408 36 36 27.9408 36 18C36 8.05922 27.9408 0 18 0ZM26.3433 12.2414C26.0726 15.0877 24.9005 21.9945 24.3042 25.1824C24.0518 26.5317 23.5547 26.9838 23.0738 27.0281C22.0289 27.1245 21.2351 26.337 20.2226 25.6732C18.6384 24.6347 17.7434 23.9885 16.2056 22.9753C14.4281 21.8039 15.5805 21.1605 16.593 20.1087C16.8581 19.833 21.4636 15.6438 21.5529 15.2641C21.5641 15.2163 21.5747 15.0391 21.4692 14.9456C21.3637 14.8521 21.2084 14.8845 21.0966 14.9098C20.9377 14.9456 18.4064 16.6184 13.5042 19.928C12.7856 20.4216 12.1352 20.6613 11.5516 20.6494C10.909 20.6353 9.67289 20.2859 8.75391 19.987C7.6268 19.6207 6.73102 19.4266 6.80906 18.8044C6.84914 18.4802 7.29562 18.1491 8.14781 17.8102C13.3952 15.5236 16.894 14.0168 18.6448 13.2884C23.6439 11.2093 24.6825 10.8478 25.3595 10.8359C26.2076 10.8209 26.4123 11.5209 26.3433 12.2414Z" fill="currentColor"></path>
  </symbol>
  <symbol fill="none" xmlns="http://www.w3.org/2000/svg" viewBox="0 0 36 36" id="ic_share_vk">
    <path d="M18 0C14.4399 0 10.9598 1.05568 7.99974 3.03355C5.03966 5.01141 2.73255 7.82263 1.37018 11.1117C0.00779918 14.4008 -0.348661 18.02 0.345873 21.5116C1.04041 25.0033 2.75474 28.2106 5.27209 30.7279C7.78943 33.2453 10.9967 34.9596 14.4884 35.6541C17.98 36.3487 21.5992 35.9922 24.8883 34.6298C28.1774 33.2675 30.9886 30.9604 32.9665 28.0003C34.9443 25.0402 36 21.5601 36 18C36 13.2261 34.1036 8.64773 30.7279 5.27208C27.3523 1.89642 22.7739 0 18 0ZM28.3746 25.0445C27.8509 25.1182 25.29 25.0445 25.1571 25.0445C24.495 25.0532 23.8563 24.8004 23.3796 24.3409C22.8396 23.8193 22.3568 23.2466 21.8291 22.7045C21.6736 22.5382 21.5046 22.3849 21.3239 22.2464C20.9025 21.9232 20.4852 21.9948 20.2868 22.4939C20.1319 23.031 20.0238 23.5806 19.9636 24.1364C19.9289 24.6395 19.6098 24.9545 19.0452 24.9893C18.6955 25.0077 18.3457 25.0159 18 25.0057C16.7401 24.9988 15.4998 24.6924 14.3816 24.1118C13.1713 23.4381 12.1168 22.5167 11.2868 21.4077C9.92251 19.665 8.83228 17.7505 7.85864 15.7766C7.80751 15.6764 6.80933 13.5532 6.78478 13.453C6.69478 13.1195 6.78478 12.7984 7.06092 12.6859C7.23683 12.6184 10.5259 12.6859 10.5811 12.6859C10.8258 12.6842 11.0647 12.7604 11.2633 12.9035C11.4618 13.0465 11.6098 13.249 11.6857 13.4816C12.2942 15.0382 13.1266 16.4976 14.1566 17.8139C14.3009 17.9892 14.4697 18.1428 14.6577 18.27C14.9257 18.4541 15.1793 18.3907 15.2898 18.0798C15.4208 17.6513 15.4978 17.2081 15.5189 16.7605C15.5373 15.8727 15.5189 15.2898 15.4698 14.402C15.4371 13.8334 15.2366 13.3364 14.398 13.1748C14.1402 13.1277 14.1177 12.915 14.2834 12.7023C14.6291 12.2625 15.1016 12.1909 15.6314 12.1643C16.4209 12.1193 17.2105 12.15 18 12.1643H18.1718C18.5155 12.1631 18.8583 12.198 19.1946 12.2686C19.3935 12.3093 19.5741 12.413 19.7093 12.5645C19.8446 12.716 19.9273 12.907 19.9452 13.1093C19.9858 13.3333 20.003 13.5609 19.9964 13.7884C19.9759 14.7559 19.9289 15.7255 19.9186 16.693C19.9091 17.0768 19.9441 17.4605 20.023 17.8364C20.1355 18.3518 20.4893 18.4807 20.8411 18.1084C21.2971 17.6282 21.7149 17.1133 22.0909 16.5682C22.7573 15.5747 23.3064 14.5073 23.7273 13.3875C23.9564 12.8127 24.1364 12.6859 24.75 12.6859H28.2396C28.447 12.6823 28.6539 12.7098 28.8532 12.7677C28.9237 12.7863 28.9897 12.8192 29.0469 12.8644C29.1041 12.9096 29.1514 12.9661 29.1858 13.0304C29.2202 13.0948 29.2409 13.1655 29.2467 13.2382C29.2524 13.3109 29.2431 13.384 29.2193 13.453C29.0475 14.218 28.6343 14.8705 28.1966 15.4984C27.4868 16.5027 26.7382 17.4825 26.0121 18.4745C25.9247 18.6028 25.8448 18.736 25.7727 18.8734C25.4986 19.3684 25.5191 19.6445 25.9159 20.0536C26.55 20.7061 27.2271 21.3157 27.8386 21.9866C28.2872 22.4747 28.6924 23.001 29.0496 23.5595C29.4852 24.2632 29.2091 24.9259 28.3746 25.0445Z" fill="currentColor"></path>
  </symbol>
  <symbol fill="none" xmlns="http://www.w3.org/2000/svg" viewBox="0 0 36 36" id="ic_share_whatsapp">
    <path d="M22.9737 13.0265L22.9381 12.991C21.7609 11.8199 20.2051 11.1063 18.5496 10.978C16.8941 10.8496 15.2469 11.3148 13.9032 12.2904C12.5594 13.2659 11.6069 14.6879 11.2162 16.3018C10.8255 17.9157 11.0222 19.616 11.771 21.0981L12.0789 21.7044L11.5034 24.4944V24.5299L14.2674 23.8738L14.8974 24.1865C16.2086 24.8373 17.6909 25.0603 19.1356 24.8241C20.5803 24.5878 21.9144 23.9042 22.95 22.8696C24.2502 21.5631 24.9821 19.7962 24.9865 17.9529C24.991 16.1097 24.2676 14.3392 22.9737 13.0265ZM22.6942 20.8423C22.3555 21.3752 21.8179 22.0265 21.1476 22.1899C19.9634 22.4765 18.161 22.1899 15.9039 20.1033L15.8755 20.0773C13.9121 18.2441 13.391 16.7165 13.5071 15.5062C13.5758 14.8194 14.1489 14.1988 14.6321 13.7915C14.7087 13.7262 14.7996 13.6799 14.8974 13.6562C14.9953 13.6326 15.0973 13.6323 15.1953 13.6553C15.2933 13.6784 15.3844 13.7241 15.4615 13.7889C15.5385 13.8537 15.5992 13.9357 15.6387 14.0283L16.3658 15.6862C16.4132 15.792 16.431 15.9087 16.4173 16.0239C16.4035 16.139 16.3587 16.2483 16.2876 16.3399L15.9181 16.8136C15.8413 16.9119 15.7956 17.0309 15.7867 17.1553C15.7779 17.2798 15.8063 17.4041 15.8684 17.5123C16.2195 18.0287 16.6395 18.4948 17.1166 18.8978C17.6288 19.3935 18.2114 19.8109 18.8455 20.1365C18.961 20.1834 19.0879 20.1947 19.2098 20.1689C19.3318 20.1432 19.4433 20.0816 19.53 19.992L19.9539 19.5633C20.0331 19.4726 20.136 19.4059 20.2511 19.3707C20.3663 19.3356 20.4889 19.3334 20.6052 19.3644L22.3342 19.8617C22.4303 19.8899 22.5186 19.9399 22.592 20.008C22.6655 20.0761 22.7221 20.1603 22.7575 20.254C22.7929 20.3477 22.806 20.4483 22.7958 20.5479C22.7856 20.6475 22.7525 20.7434 22.6989 20.8281L22.6942 20.8423Z" fill="currentColor"></path>
    <path d="M18 0C14.4399 0 10.9598 1.05568 7.99974 3.03355C5.03966 5.01141 2.73255 7.82263 1.37018 11.1117C0.00779907 14.4008 -0.348661 18.02 0.345873 21.5116C1.04041 25.0033 2.75474 28.2106 5.27209 30.7279C7.78943 33.2453 10.9967 34.9596 14.4884 35.6541C17.98 36.3487 21.5992 35.9922 24.8883 34.6298C28.1774 33.2675 30.9886 30.9603 32.9665 28.0003C34.9443 25.0402 36 21.5601 36 18C36 13.2261 34.1036 8.64773 30.7279 5.27208C27.3523 1.89642 22.7739 0 18 0ZM26.9218 18.2108C26.8732 19.7057 26.45 21.1645 25.6909 22.4532C24.9318 23.742 23.8612 24.8194 22.5773 25.5868C21.2935 26.3541 19.8375 26.7868 18.3429 26.845C16.8483 26.9032 15.3631 26.5851 14.0234 25.92L9.52343 26.9905C9.45539 27.0061 9.38424 27.0009 9.3192 26.9756C9.25416 26.9502 9.19824 26.9059 9.15869 26.8484C9.13166 26.81 9.11287 26.7664 9.1035 26.7203C9.09412 26.6742 9.09437 26.6267 9.10422 26.5808L10.0516 21.9813C9.43233 20.7679 9.09892 19.4289 9.07689 18.0668C9.05485 16.7047 9.34478 15.3556 9.92448 14.1229C10.5042 12.8901 11.3583 11.8063 12.4214 10.9544C13.4844 10.1026 14.7284 9.50531 16.0579 9.20829C17.3874 8.91127 18.7672 8.9224 20.0917 9.24082C21.4163 9.55924 22.6504 10.1765 23.6996 11.0454C24.7488 11.9143 25.5853 13.0117 26.1451 14.2537C26.7048 15.4956 26.973 16.8492 26.929 18.2108H26.9218Z" fill="currentColor"></path>
  </symbol>
  <symbol fill="none" xmlns="http://www.w3.org/2000/svg" viewBox="0 0 16 16" id="ic_star">
    <path d="M9.15333 2.33977L10.3267 4.68643C10.4867 5.0131 10.9133 5.32643 11.2733 5.38643L13.4 5.73976C14.76 5.96643 15.08 6.9531 14.1 7.92643L12.4467 9.57976C12.1667 9.85976 12.0133 10.3998 12.1 10.7864L12.5733 12.8331C12.9467 14.4531 12.0867 15.0798 10.6533 14.2331L8.66 13.0531C8.3 12.8398 7.70667 12.8398 7.34 13.0531L5.34667 14.2331C3.92 15.0798 3.05333 14.4464 3.42667 12.8331L3.9 10.7864C3.98667 10.3998 3.83333 9.85976 3.55333 9.57976L1.9 7.92643C0.926667 6.9531 1.24 5.96643 2.6 5.73976L4.72667 5.38643C5.08 5.32643 5.50667 5.0131 5.66667 4.68643L6.84 2.33977C7.48 1.06643 8.52 1.06643 9.15333 2.33977Z" stroke="currentColor" stroke-width="1.5" stroke-linecap="round" stroke-linejoin="round"></path>
  </symbol>
  <symbol fill="none" xmlns="http://www.w3.org/2000/svg" viewBox="0 0 16 16" id="ic_star_fill">
    <path d="M15.1955 5.26812H10.2814L8.76172 0.583359C8.66012 0.263008 8.35555 0.0234375 8 0.0234375C7.6443 0.0234375 7.33973 0.263008 7.23812 0.583437L5.71852 5.2682H0.804609C0.363164 5.26812 0 5.63187 0 6.07867C0 6.34492 0.132734 6.58387 0.336016 6.72914V6.72515L4.30859 9.61918C4.30859 9.61918 2.78898 14.3033 2.79297 14.3033C2.68359 14.6282 2.78898 14.9927 3.08195 15.2082C3.37098 15.4152 3.75 15.3995 4.02344 15.2004L8 12.3098L11.9766 15.2004C12.2501 15.3995 12.6327 15.4152 12.9221 15.2044C13.2111 14.9927 13.3205 14.6282 13.2111 14.3033L11.6954 9.61918L15.6641 6.72125V6.72902C15.8672 6.58391 16.0001 6.3448 16.0001 6.07851C16.0001 5.63191 15.6405 5.26812 15.1955 5.26812Z" fill="currentColor"></path>
  </symbol>
  <symbol fill="none" xmlns="http://www.w3.org/2000/svg" viewBox="0 0 8 6" id="ic_status_check">
    <path d="M0.75 2.63667L2.63667 4.52333L6.41667 0.75" stroke="currentColor" stroke-width="1.5" stroke-linecap="round" stroke-linejoin="round"></path>
  </symbol>
  <symbol fill="none" xmlns="http://www.w3.org/2000/svg" viewBox="0 0 7 7" id="ic_status_cross">
    <path d="M0.75 5.41667L5.41667 0.75" stroke="currentColor" stroke-width="1.5" stroke-linecap="round" stroke-linejoin="round"></path>
    <path d="M5.41667 5.41667L0.75 0.75" stroke="currentColor" stroke-width="1.5" stroke-linecap="round" stroke-linejoin="round"></path>
  </symbol>
  <symbol fill="none" xmlns="http://www.w3.org/2000/svg" viewBox="0 0 12 11" id="ic_tg">
    <path d="M0.210421 5.02445L2.96928 6.05317L4.04476 9.51342C4.09152 9.74722 4.37208 9.79398 4.55912 9.6537L6.1022 8.39118C6.24248 8.2509 6.47629 8.2509 6.66333 8.39118L9.42217 10.4019C9.60921 10.5421 9.88978 10.4486 9.93654 10.2148L11.994 0.395193C12.0407 0.161393 11.8069 -0.0724059 11.5731 0.0211143L0.210421 4.41657C-0.0701402 4.51009 -0.0701402 4.93093 0.210421 5.02445ZM3.90448 5.53881L9.32865 2.21884C9.42217 2.17208 9.51569 2.31236 9.42217 2.35912L4.97996 6.52077C4.83968 6.66105 4.6994 6.84809 4.6994 7.08189L4.55912 8.20414C4.55912 8.34442 4.32532 8.39118 4.27856 8.20414L3.71743 6.14669C3.57715 5.91289 3.67068 5.63233 3.90448 5.53881Z" fill="currentColor"></path>
  </symbol>
  <symbol fill="none" xmlns="http://www.w3.org/2000/svg" viewBox="0 0 16 16" id="ic_user">
    <path d="M7.99996 7.99967C9.84091 7.99967 11.3333 6.50729 11.3333 4.66634C11.3333 2.82539 9.84091 1.33301 7.99996 1.33301C6.15901 1.33301 4.66663 2.82539 4.66663 4.66634C4.66663 6.50729 6.15901 7.99967 7.99996 7.99967Z" stroke="currentColor" stroke-width="1.5" stroke-linecap="round" stroke-linejoin="round"></path>
    <path d="M13.7266 14.6667C13.7266 12.0867 11.16 10 7.99998 10C4.83998 10 2.27332 12.0867 2.27332 14.6667" stroke="currentColor" stroke-width="1.5" stroke-linecap="round" stroke-linejoin="round"></path>
  </symbol>
  <symbol fill="none" xmlns="http://www.w3.org/2000/svg" viewBox="0 0 29 30" id="ic_video_play">
    <path d="M11.6031 0.925129L24.8108 7.98734V8.01213C26.076 8.68782 27.1343 9.69624 27.8722 10.9294C28.6102 12.1625 29 13.5739 29 15.0124C29 16.4509 28.6102 17.8623 27.8722 19.0954C27.1343 20.3285 26.076 21.337 24.8108 22.0127L11.6031 29.0749C10.3987 29.7164 9.04929 30.0341 7.68627 29.9971C6.32326 29.9601 4.99299 29.5696 3.82489 28.8636C2.65678 28.1576 1.6906 27.1602 1.02035 25.9684C0.350093 24.7765 -0.00141976 23.4308 4.3098e-06 22.0622V7.93778C-0.00141976 6.56917 0.350093 5.22349 1.02035 4.03165C1.6906 2.8398 2.65678 1.84237 3.82489 1.13639C4.99299 0.430416 6.32326 0.0399232 7.68627 0.00290215C9.04929 -0.0341189 10.3987 0.283591 11.6031 0.925129Z" fill="currentColor"></path>
  </symbol>
  <symbol fill="none" xmlns="http://www.w3.org/2000/svg" viewBox="0 0 13 13" id="ic_whatsapp">
    <path d="M10.7561 1.8375C9.57073 0.65625 7.99024 0 6.32195 0C2.85366 0 0.0439018 2.8 0.0439018 6.25625C0.0439018 7.35 0.35122 8.44375 0.878049 9.3625L0 12.6L3.33659 11.725C4.25854 12.2063 5.26829 12.4688 6.32195 12.4688C9.79024 12.4688 12.6 9.66875 12.6 6.2125C12.5561 4.59375 11.9415 3.01875 10.7561 1.8375ZM9.35122 8.4875C9.21951 8.8375 8.60488 9.1875 8.29756 9.23125C8.03415 9.275 7.68293 9.275 7.33171 9.1875C7.1122 9.1 6.80488 9.0125 6.45366 8.8375C4.87317 8.18125 3.86342 6.60625 3.77561 6.475C3.68781 6.3875 3.11707 5.64375 3.11707 4.85625C3.11707 4.06875 3.5122 3.71875 3.6439 3.54375C3.77561 3.36875 3.95122 3.36875 4.08293 3.36875C4.17073 3.36875 4.30244 3.36875 4.39024 3.36875C4.47805 3.36875 4.60976 3.325 4.74146 3.63125C4.87317 3.9375 5.18049 4.725 5.22439 4.76875C5.26829 4.85625 5.26829 4.94375 5.22439 5.03125C5.18049 5.11875 5.13658 5.20625 5.04878 5.29375C4.96097 5.38125 4.87317 5.5125 4.82927 5.55625C4.74146 5.64375 4.65366 5.73125 4.74146 5.8625C4.82927 6.0375 5.13659 6.51875 5.61951 6.95625C6.23415 7.48125 6.71707 7.65625 6.89268 7.74375C7.06829 7.83125 7.1561 7.7875 7.2439 7.7C7.33171 7.6125 7.63903 7.2625 7.72683 7.0875C7.81464 6.9125 7.94634 6.95625 8.07805 7C8.20976 7.04375 9 7.4375 9.13171 7.525C9.30732 7.6125 9.39512 7.65625 9.43902 7.7C9.48293 7.83125 9.48293 8.1375 9.35122 8.4875Z" fill="currentColor"></path>
  </symbol>
</svg>