<svg width="0" height="0" class="hidden">
  <symbol fill="none" xmlns="http://www.w3.org/2000/svg" viewBox="0 0 16 16" id="ic_arr_hor">
    <path d="M10.0001 2.72027L5.65344 7.06694C5.14011 7.58027 5.14011 8.42027 5.65344 8.93361L10.0001 13.2803" stroke="currentColor" stroke-width="2.04545" stroke-miterlimit="10" stroke-linecap="round" stroke-linejoin="round"></path>
  </symbol>
  <symbol fill="none" xmlns="http://www.w3.org/2000/svg" viewBox="0 0 16 16" id="ic_arr_hor_thin">
    <path d="M5.50005 13.5C5.43438 13.5001 5.36935 13.4871 5.30868 13.462C5.24802 13.4369 5.19292 13.4 5.14655 13.3535C5.10009 13.3071 5.06323 13.252 5.03809 13.1913C5.01294 13.1307 5 13.0656 5 13C5 12.9343 5.01294 12.8693 5.03809 12.8086C5.06323 12.748 5.10009 12.6929 5.14655 12.6465L9.79305 7.99998L5.14655 3.35348C4.95117 3.15811 4.95117 2.84173 5.14655 2.64648C5.34192 2.45123 5.6583 2.45111 5.85355 2.64648L10.8535 7.64648C10.9 7.69289 10.9369 7.74799 10.962 7.80865C10.9872 7.8693 11.0001 7.93432 11.0001 7.99998C11.0001 8.06565 10.9872 8.13066 10.962 8.19132C10.9369 8.25198 10.9 8.30708 10.8535 8.35348L5.85355 13.3535C5.80718 13.4 5.75208 13.4369 5.69142 13.462C5.63075 13.4871 5.56572 13.5001 5.50005 13.5Z" fill="currentColor"></path>
  </symbol>
  <symbol fill="none" xmlns="http://www.w3.org/2000/svg" viewBox="0 0 12 12" id="ic_arr_ver">
    <path d="M9.95998 4.47461L6.69998 7.73461C6.31498 8.11961 5.68498 8.11961 5.29998 7.73461L2.03998 4.47461" stroke="currentColor" stroke-width="1.5" stroke-miterlimit="10" stroke-linecap="round" stroke-linejoin="round"></path>
  </symbol>
  <symbol fill="none" xmlns="http://www.w3.org/2000/svg" viewBox="0 0 10 10" id="ic_arrow_diagonal">
    <path d="M9.85358 0.5C9.85358 0.223857 9.62972 -2.43811e-07 9.35358 -3.70252e-07L4.85358 3.01432e-08C4.57743 -1.38444e-07 4.35358 0.223858 4.35358 0.5C4.35358 0.776142 4.57743 1 4.85358 1L8.85358 1L8.85358 5C8.85358 5.27614 9.07743 5.5 9.35358 5.5C9.62972 5.5 9.85358 5.27614 9.85358 5L9.85358 0.5ZM0.353577 9.5L0.70713 9.85355L9.70713 0.853553L9.35358 0.5L9.00002 0.146447L2.32756e-05 9.14645L0.353577 9.5Z" fill="currentColor"></path>
  </symbol>
  <symbol fill="none" xmlns="http://www.w3.org/2000/svg" viewBox="0 0 16 16" id="ic_cart">
    <path d="M5.60002 4.33301H10.4C12.6667 4.33301 12.8934 5.39301 13.0467 6.68634L13.6467 11.6863C13.84 13.3263 13.3334 14.6663 11 14.6663H5.00668C2.66668 14.6663 2.16002 13.3263 2.36002 11.6863L2.96002 6.68634C3.10669 5.39301 3.33335 4.33301 5.60002 4.33301Z" stroke="currentColor" stroke-width="1.5" stroke-linecap="round" stroke-linejoin="round"></path>
    <path d="M5.33337 5.33301V2.99967C5.33337 1.99967 6.00004 1.33301 7.00004 1.33301H9.00004C10 1.33301 10.6667 1.99967 10.6667 2.99967V5.33301" stroke="currentColor" stroke-width="1.5" stroke-linecap="round" stroke-linejoin="round"></path>
    <path d="M13.6067 11.3525H5.33337" stroke="currentColor" stroke-width="1.5" stroke-linecap="round" stroke-linejoin="round"></path>
  </symbol>
  <symbol fill="none" xmlns="http://www.w3.org/2000/svg" viewBox="0 0 16 16" id="ic_catalog">
    <path d="M11.6933 5.53977C12.5991 5.53977 13.3333 4.80551 13.3333 3.89977C13.3333 2.99402 12.5991 2.25977 11.6933 2.25977C10.7876 2.25977 10.0533 2.99402 10.0533 3.89977C10.0533 4.80551 10.7876 5.53977 11.6933 5.53977Z" stroke="#EB2230" stroke-width="1.5" stroke-miterlimit="10" stroke-linecap="round" stroke-linejoin="round"></path>
    <path d="M4.30669 5.53977C5.21244 5.53977 5.94669 4.80551 5.94669 3.89977C5.94669 2.99402 5.21244 2.25977 4.30669 2.25977C3.40094 2.25977 2.66669 2.99402 2.66669 3.89977C2.66669 4.80551 3.40094 5.53977 4.30669 5.53977Z" stroke="currentColor" stroke-width="1.5" stroke-miterlimit="10" stroke-linecap="round" stroke-linejoin="round"></path>
    <path d="M11.6933 13.74C12.5991 13.74 13.3333 13.0057 13.3333 12.1C13.3333 11.1942 12.5991 10.46 11.6933 10.46C10.7876 10.46 10.0533 11.1942 10.0533 12.1C10.0533 13.0057 10.7876 13.74 11.6933 13.74Z" stroke="currentColor" stroke-width="1.5" stroke-miterlimit="10" stroke-linecap="round" stroke-linejoin="round"></path>
    <path d="M4.30669 13.74C5.21244 13.74 5.94669 13.0057 5.94669 12.1C5.94669 11.1942 5.21244 10.46 4.30669 10.46C3.40094 10.46 2.66669 11.1942 2.66669 12.1C2.66669 13.0057 3.40094 13.74 4.30669 13.74Z" stroke="currentColor" stroke-width="1.5" stroke-miterlimit="10" stroke-linecap="round" stroke-linejoin="round"></path>
  </symbol>
  <symbol fill="none" xmlns="http://www.w3.org/2000/svg" viewBox="0 0 16 16" id="ic_close">
    <path d="M5.66675 10.3337L10.3334 5.66699" stroke="currentColor" stroke-width="1.5" stroke-linecap="round" stroke-linejoin="round"></path>
    <path d="M10.3334 10.3337L5.66675 5.66699" stroke="currentColor" stroke-width="1.5" stroke-linecap="round" stroke-linejoin="round"></path>
  </symbol>
  <symbol fill="none" xmlns="http://www.w3.org/2000/svg" viewBox="0 0 16 16" id="ic_compare">
    <path d="M4.66663 7.16016V9.29349" stroke="currentColor" stroke-width="1.5" stroke-linecap="round" stroke-linejoin="round"></path>
    <path d="M8 6V10.4533" stroke="currentColor" stroke-width="1.5" stroke-linecap="round" stroke-linejoin="round"></path>
    <path d="M11.3334 7.16016V9.29349" stroke="currentColor" stroke-width="1.5" stroke-linecap="round" stroke-linejoin="round"></path>
    <path d="M6.00004 14.6663H10C13.3334 14.6663 14.6667 13.333 14.6667 9.99967V5.99967C14.6667 2.66634 13.3334 1.33301 10 1.33301H6.00004C2.66671 1.33301 1.33337 2.66634 1.33337 5.99967V9.99967C1.33337 13.333 2.66671 14.6663 6.00004 14.6663Z" stroke="currentColor" stroke-width="1.5" stroke-linecap="round" stroke-linejoin="round"></path>
  </symbol>
  <symbol fill="none" xmlns="http://www.w3.org/2000/svg" viewBox="0 0 8 8" id="ic_dots">
    <path d="M4.00002 4.33366C4.18412 4.33366 4.33335 4.18442 4.33335 4.00033C4.33335 3.81623 4.18412 3.66699 4.00002 3.66699C3.81593 3.66699 3.66669 3.81623 3.66669 4.00033C3.66669 4.18442 3.81593 4.33366 4.00002 4.33366Z" fill="currentColor" stroke="currentColor" stroke-linecap="round" stroke-linejoin="round"></path>
    <path d="M4.00002 1.99967C4.18412 1.99967 4.33335 1.85044 4.33335 1.66634C4.33335 1.48225 4.18412 1.33301 4.00002 1.33301C3.81593 1.33301 3.66669 1.48225 3.66669 1.66634C3.66669 1.85044 3.81593 1.99967 4.00002 1.99967Z" fill="currentColor" stroke="currentColor" stroke-linecap="round" stroke-linejoin="round"></path>
    <path d="M4.00002 6.66667C4.18412 6.66667 4.33335 6.51743 4.33335 6.33333C4.33335 6.14924 4.18412 6 4.00002 6C3.81593 6 3.66669 6.14924 3.66669 6.33333C3.66669 6.51743 3.81593 6.66667 4.00002 6.66667Z" fill="currentColor" stroke="currentColor" stroke-linecap="round" stroke-linejoin="round"></path>
  </symbol>
  <symbol fill="none" xmlns="http://www.w3.org/2000/svg" viewBox="0 0 16 16" id="ic_favorite">
    <path d="M8.41337 13.8731C8.18671 13.9531 7.81337 13.9531 7.58671 13.8731C5.65337 13.2131 1.33337 10.4597 1.33337 5.79307C1.33337 3.73307 2.99337 2.06641 5.04004 2.06641C6.25337 2.06641 7.32671 2.65307 8.00004 3.55974C8.67337 2.65307 9.75337 2.06641 10.96 2.06641C13.0067 2.06641 14.6667 3.73307 14.6667 5.79307C14.6667 10.4597 10.3467 13.2131 8.41337 13.8731Z" stroke="currentColor" stroke-width="1.5" stroke-linecap="round" stroke-linejoin="round"></path>
  </symbol>
  <symbol fill="none" xmlns="http://www.w3.org/2000/svg" viewBox="0 0 16 16" id="ic_location">
    <path d="M7.99992 8.95297C9.14867 8.95297 10.0799 8.02172 10.0799 6.87297C10.0799 5.72422 9.14867 4.79297 7.99992 4.79297C6.85117 4.79297 5.91992 5.72422 5.91992 6.87297C5.91992 8.02172 6.85117 8.95297 7.99992 8.95297Z" stroke="currentColor" stroke-width="1.5"></path>
    <path d="M2.41333 5.65968C3.72667 -0.113657 12.28 -0.106991 13.5867 5.66634C14.3533 9.05301 12.2467 11.9197 10.4 13.693C9.06 14.9863 6.94 14.9863 5.59333 13.693C3.75333 11.9197 1.64667 9.04634 2.41333 5.65968Z" stroke="currentColor" stroke-width="1.5"></path>
  </symbol>
  <symbol fill="none" xmlns="http://www.w3.org/2000/svg" viewBox="0 0 16 16" id="ic_phone">
    <path d="M14.6467 12.2207C14.6467 12.4607 14.5934 12.7073 14.48 12.9473C14.3667 13.1873 14.22 13.414 14.0267 13.6273C13.7 13.9873 13.34 14.2473 12.9334 14.414C12.5334 14.5807 12.1 14.6673 11.6334 14.6673C10.9534 14.6673 10.2267 14.5073 9.46004 14.1807C8.69337 13.854 7.92671 13.414 7.16671 12.8607C6.40004 12.3007 5.67337 11.6807 4.98004 10.994C4.29337 10.3007 3.67337 9.57398 3.12004 8.81398C2.57337 8.05398 2.13337 7.29398 1.81337 6.54065C1.49337 5.78065 1.33337 5.05398 1.33337 4.36065C1.33337 3.90732 1.41337 3.47398 1.57337 3.07398C1.73337 2.66732 1.98671 2.29398 2.34004 1.96065C2.76671 1.54065 3.23337 1.33398 3.72671 1.33398C3.91337 1.33398 4.10004 1.37398 4.26671 1.45398C4.44004 1.53398 4.59337 1.65398 4.71337 1.82732L6.26004 4.00732C6.38004 4.17398 6.46671 4.32732 6.52671 4.47398C6.58671 4.61398 6.62004 4.75398 6.62004 4.88065C6.62004 5.04065 6.57337 5.20065 6.48004 5.35398C6.39337 5.50732 6.26671 5.66732 6.10671 5.82732L5.60004 6.35398C5.52671 6.42732 5.49337 6.51398 5.49337 6.62065C5.49337 6.67398 5.50004 6.72065 5.51337 6.77398C5.53337 6.82732 5.55337 6.86732 5.56671 6.90732C5.68671 7.12732 5.89337 7.41398 6.18671 7.76065C6.48671 8.10732 6.80671 8.46065 7.15337 8.81398C7.51337 9.16732 7.86004 9.49398 8.21337 9.79398C8.56004 10.0873 8.84671 10.2873 9.07337 10.4073C9.10671 10.4207 9.14671 10.4407 9.19337 10.4607C9.24671 10.4807 9.30004 10.4873 9.36004 10.4873C9.47337 10.4873 9.56004 10.4473 9.63337 10.374L10.14 9.87398C10.3067 9.70732 10.4667 9.58065 10.62 9.50065C10.7734 9.40732 10.9267 9.36065 11.0934 9.36065C11.22 9.36065 11.3534 9.38732 11.5 9.44732C11.6467 9.50732 11.8 9.59398 11.9667 9.70732L14.1734 11.274C14.3467 11.394 14.4667 11.534 14.54 11.7007C14.6067 11.8673 14.6467 12.034 14.6467 12.2207Z" stroke="currentColor" stroke-width="1.5" stroke-miterlimit="10"></path>
  </symbol>
  <symbol fill="none" xmlns="http://www.w3.org/2000/svg" viewBox="0 0 24 24" id="ic_search">
    <path d="M11.5 21C16.7467 21 21 16.7467 21 11.5C21 6.25329 16.7467 2 11.5 2C6.25329 2 2 6.25329 2 11.5C2 16.7467 6.25329 21 11.5 21Z" stroke="currentColor" stroke-width="1.5" stroke-linecap="round" stroke-linejoin="round"></path>
    <path d="M22 22L20 20" stroke="currentColor" stroke-width="1.5" stroke-linecap="round" stroke-linejoin="round"></path>
  </symbol>
  <symbol fill="none" xmlns="http://www.w3.org/2000/svg" viewBox="0 0 16 16" id="ic_star">
    <path d="M9.15333 2.33977L10.3267 4.68643C10.4867 5.0131 10.9133 5.32643 11.2733 5.38643L13.4 5.73976C14.76 5.96643 15.08 6.9531 14.1 7.92643L12.4467 9.57976C12.1667 9.85976 12.0133 10.3998 12.1 10.7864L12.5733 12.8331C12.9467 14.4531 12.0867 15.0798 10.6533 14.2331L8.66 13.0531C8.3 12.8398 7.70667 12.8398 7.34 13.0531L5.34667 14.2331C3.92 15.0798 3.05333 14.4464 3.42667 12.8331L3.9 10.7864C3.98667 10.3998 3.83333 9.85976 3.55333 9.57976L1.9 7.92643C0.926667 6.9531 1.24 5.96643 2.6 5.73976L4.72667 5.38643C5.08 5.32643 5.50667 5.0131 5.66667 4.68643L6.84 2.33977C7.48 1.06643 8.52 1.06643 9.15333 2.33977Z" stroke="currentColor" stroke-width="1.5" stroke-linecap="round" stroke-linejoin="round"></path>
  </symbol>
  <symbol fill="none" xmlns="http://www.w3.org/2000/svg" viewBox="0 0 16 16" id="ic_star_fill">
    <path d="M15.1955 5.26812H10.2814L8.76172 0.583359C8.66012 0.263008 8.35555 0.0234375 8 0.0234375C7.6443 0.0234375 7.33973 0.263008 7.23812 0.583437L5.71852 5.2682H0.804609C0.363164 5.26812 0 5.63187 0 6.07867C0 6.34492 0.132734 6.58387 0.336016 6.72914V6.72515L4.30859 9.61918C4.30859 9.61918 2.78898 14.3033 2.79297 14.3033C2.68359 14.6282 2.78898 14.9927 3.08195 15.2082C3.37098 15.4152 3.75 15.3995 4.02344 15.2004L8 12.3098L11.9766 15.2004C12.2501 15.3995 12.6327 15.4152 12.9221 15.2044C13.2111 14.9927 13.3205 14.6282 13.2111 14.3033L11.6954 9.61918L15.6641 6.72125V6.72902C15.8672 6.58391 16.0001 6.3448 16.0001 6.07851C16.0001 5.63191 15.6405 5.26812 15.1955 5.26812Z" fill="currentColor"></path>
  </symbol>
  <symbol fill="none" xmlns="http://www.w3.org/2000/svg" viewBox="0 0 8 6" id="ic_status_check">
    <path d="M0.75 2.63667L2.63667 4.52333L6.41667 0.75" stroke="currentColor" stroke-width="1.5" stroke-linecap="round" stroke-linejoin="round"></path>
  </symbol>
  <symbol fill="none" xmlns="http://www.w3.org/2000/svg" viewBox="0 0 7 7" id="ic_status_cross">
    <path d="M0.75 5.41667L5.41667 0.75" stroke="currentColor" stroke-width="1.5" stroke-linecap="round" stroke-linejoin="round"></path>
    <path d="M5.41667 5.41667L0.75 0.75" stroke="currentColor" stroke-width="1.5" stroke-linecap="round" stroke-linejoin="round"></path>
  </symbol>
  <symbol fill="none" xmlns="http://www.w3.org/2000/svg" viewBox="0 0 12 11" id="ic_tg">
    <path d="M0.210421 5.02445L2.96928 6.05317L4.04476 9.51342C4.09152 9.74722 4.37208 9.79398 4.55912 9.6537L6.1022 8.39118C6.24248 8.2509 6.47629 8.2509 6.66333 8.39118L9.42217 10.4019C9.60921 10.5421 9.88978 10.4486 9.93654 10.2148L11.994 0.395193C12.0407 0.161393 11.8069 -0.0724059 11.5731 0.0211143L0.210421 4.41657C-0.0701402 4.51009 -0.0701402 4.93093 0.210421 5.02445ZM3.90448 5.53881L9.32865 2.21884C9.42217 2.17208 9.51569 2.31236 9.42217 2.35912L4.97996 6.52077C4.83968 6.66105 4.6994 6.84809 4.6994 7.08189L4.55912 8.20414C4.55912 8.34442 4.32532 8.39118 4.27856 8.20414L3.71743 6.14669C3.57715 5.91289 3.67068 5.63233 3.90448 5.53881Z" fill="currentColor"></path>
  </symbol>
  <symbol fill="none" xmlns="http://www.w3.org/2000/svg" viewBox="0 0 16 16" id="ic_user">
    <path d="M7.99996 7.99967C9.84091 7.99967 11.3333 6.50729 11.3333 4.66634C11.3333 2.82539 9.84091 1.33301 7.99996 1.33301C6.15901 1.33301 4.66663 2.82539 4.66663 4.66634C4.66663 6.50729 6.15901 7.99967 7.99996 7.99967Z" stroke="currentColor" stroke-width="1.5" stroke-linecap="round" stroke-linejoin="round"></path>
    <path d="M13.7266 14.6667C13.7266 12.0867 11.16 10 7.99998 10C4.83998 10 2.27332 12.0867 2.27332 14.6667" stroke="currentColor" stroke-width="1.5" stroke-linecap="round" stroke-linejoin="round"></path>
  </symbol>
  <symbol fill="none" xmlns="http://www.w3.org/2000/svg" viewBox="0 0 13 13" id="ic_whatsapp">
    <path d="M10.7561 1.8375C9.57073 0.65625 7.99024 0 6.32195 0C2.85366 0 0.0439018 2.8 0.0439018 6.25625C0.0439018 7.35 0.35122 8.44375 0.878049 9.3625L0 12.6L3.33659 11.725C4.25854 12.2063 5.26829 12.4688 6.32195 12.4688C9.79024 12.4688 12.6 9.66875 12.6 6.2125C12.5561 4.59375 11.9415 3.01875 10.7561 1.8375ZM9.35122 8.4875C9.21951 8.8375 8.60488 9.1875 8.29756 9.23125C8.03415 9.275 7.68293 9.275 7.33171 9.1875C7.1122 9.1 6.80488 9.0125 6.45366 8.8375C4.87317 8.18125 3.86342 6.60625 3.77561 6.475C3.68781 6.3875 3.11707 5.64375 3.11707 4.85625C3.11707 4.06875 3.5122 3.71875 3.6439 3.54375C3.77561 3.36875 3.95122 3.36875 4.08293 3.36875C4.17073 3.36875 4.30244 3.36875 4.39024 3.36875C4.47805 3.36875 4.60976 3.325 4.74146 3.63125C4.87317 3.9375 5.18049 4.725 5.22439 4.76875C5.26829 4.85625 5.26829 4.94375 5.22439 5.03125C5.18049 5.11875 5.13658 5.20625 5.04878 5.29375C4.96097 5.38125 4.87317 5.5125 4.82927 5.55625C4.74146 5.64375 4.65366 5.73125 4.74146 5.8625C4.82927 6.0375 5.13659 6.51875 5.61951 6.95625C6.23415 7.48125 6.71707 7.65625 6.89268 7.74375C7.06829 7.83125 7.1561 7.7875 7.2439 7.7C7.33171 7.6125 7.63903 7.2625 7.72683 7.0875C7.81464 6.9125 7.94634 6.95625 8.07805 7C8.20976 7.04375 9 7.4375 9.13171 7.525C9.30732 7.6125 9.39512 7.65625 9.43902 7.7C9.48293 7.83125 9.48293 8.1375 9.35122 8.4875Z" fill="currentColor"></path>
  </symbol>
</svg>